<mxfile host="65bd71144e">
    <diagram id="Ht1M8jgEwFfnCIfOTk4-" name="Page-1">
        <mxGraphModel dx="1086" dy="802" grid="1" gridSize="10" guides="1" tooltips="1" connect="1" arrows="1" fold="1" page="1" pageScale="1" pageWidth="827" pageHeight="1169" math="0" shadow="0">
            <root>
                <mxCell id="0"/>
                <mxCell id="1" parent="0"/>
                <mxCell id="60" value="Azure Cloud" style="sketch=0;outlineConnect=0;gradientColor=none;html=1;whiteSpace=wrap;fontSize=12;fontStyle=0;shape=mxgraph.aws4.group;grIcon=mxgraph.aws4.group_aws_cloud;strokeColor=#858B94;fillColor=none;verticalAlign=top;align=left;spacingLeft=30;fontColor=#858B94;dashed=0;" vertex="1" parent="1">
                    <mxGeometry x="40" y="40" width="700" height="340" as="geometry"/>
                </mxCell>
                <mxCell id="78" value="&amp;nbsp; &amp;nbsp; &amp;nbsp; &amp;nbsp; &amp;nbsp; &amp;nbsp; &amp;nbsp; &amp;nbsp; Virtual Network" style="rounded=0;whiteSpace=wrap;html=1;fillColor=#C2CFE0;strokeColor=#6c8ebf;align=left;verticalAlign=top;" vertex="1" parent="1">
                    <mxGeometry x="80" y="80" width="640" height="280" as="geometry"/>
                </mxCell>
                <mxCell id="64" value="" style="aspect=fixed;html=1;points=[];align=center;image;fontSize=12;image=img/lib/azure2/networking/Virtual_Networks.svg;" vertex="1" parent="1">
                    <mxGeometry x="90" y="90" width="33.5" height="20" as="geometry"/>
                </mxCell>
                <mxCell id="79" value="dd" style="group;verticalAlign=top;horizontal=0;align=left;" vertex="1" connectable="0" parent="1">
                    <mxGeometry x="123.5" y="130" width="160" height="210" as="geometry"/>
                </mxCell>
                <mxCell id="72" value="&amp;nbsp; &amp;nbsp; &amp;nbsp; &amp;nbsp; &amp;nbsp; &amp;nbsp; &amp;nbsp;Subnet / Tier-1" style="rounded=0;whiteSpace=wrap;html=1;fillColor=#dae8fc;strokeColor=#6c8ebf;align=left;verticalAlign=top;" vertex="1" parent="79">
                    <mxGeometry width="160" height="210" as="geometry"/>
                </mxCell>
                <mxCell id="63" value="Route Table" style="shape=image;verticalLabelPosition=bottom;labelBackgroundColor=default;verticalAlign=top;aspect=fixed;imageAspect=0;image=https://www.devopspertise.com/img/blog/title-azure-devops-automated-route-table-creation.png;" vertex="1" parent="79">
                    <mxGeometry x="50" y="40" width="60" height="60" as="geometry"/>
                </mxCell>
                <mxCell id="75" value="Service Endpoints" style="verticalLabelPosition=bottom;html=1;verticalAlign=top;align=center;strokeColor=none;fillColor=#00BEF2;shape=mxgraph.azure.service_endpoint;" vertex="1" parent="79">
                    <mxGeometry x="55" y="150" width="50" height="20" as="geometry"/>
                </mxCell>
                <mxCell id="77" value="" style="shape=image;verticalLabelPosition=bottom;labelBackgroundColor=default;verticalAlign=top;aspect=fixed;imageAspect=0;image=data:image/png,iVBORw0KGgoAAAANSUhEUgAAAc0AAAF4CAYAAAA2QqLbAAAKpmlDQ1BJQ0MgUHJvZmlsZQAASImVlgdUU0kXx+e99JAQIBABKaE36S2AlNBD701UQhJIKCEGgopdWVzBtSAiAoqgSxEF1wLIKioWrAgoYF+QRUH9XCzYUPkecAi7+7Xz3XPmze/cd+c/986ZOecCQCaxRaI0WA6AdGGWOMzHnR4TG0fHjQAMUAA0AAMVNidTxAwJCQCIzc5/tQ99AJqa75hOaf3r//9q8lxeJgcAKAThRG4mJx3hk8h4xhGJswBAlSN+neVZoik+j7CiGEkQ4btTnDzDI1OcOMNfp2MiwjwAQCNV4UlstjgZAJIa4qdnc5IRHdJChC2EXIEQ4al8XdLTM7gIH0HYEIkRITylz0j8k07yXzQTpZpsdrKUZ2qZNrynIFOUxl75fx7H/7b0NMnsHvrIIPHFvmHILIuc2b3UDH8pCxODgmdZwJ2On2a+xDdyljmZHnGzzGV7+kvXpgUFzHKSwJsl1cliRcwyL9MrfJbFGWHSvZLEHsxZZovn9pWkRkr9fB5Lqp/Dj4ie5WxBVNAsZ6aG+8/FeEj9YkmYNH+e0Md9bl9vae3pmX+qV8CSrs3iR/hKa2fP5c8TMuc0M2OkuXF5nl5zMZHSeFGWu3QvUVqINJ6X5iP1Z2aHS9dmIRdybm2I9AxT2H4hswysgA3wAZYgGvnaAJDFW5E1VYRHhmilWJDMz6IzkdfFo7OEHLMFdCsLKyRm6q3OXIV3YdNvEKK1zfkyDiFX+APyJnbO+RKLAGjOA0D5wZxPdz8AlFwAmto5EnH2jA899cEAIqAARaACNIAOMASmSI52wAm4AS/gB4JBBIgFSwAH8EE6EIPlYDXYAPJAAdgBdoNSUAEOglpwFBwHzeAMuACugBugC/SCh2AADIOXYAx8ABMQBOEgMkSFVCBNSA8ygawgBuQCeUEBUBgUCyVAyZAQkkCroU1QAVQIlUKVUB30C3QaugBdg7qh+9AgNAq9hb7AKJgEK8LqsD5sDjNgJuwPR8CL4WR4GZwD58Lb4BK4Cj4CN8EX4BtwLzwAv4THUQAlg6KhtFCmKAbKAxWMikMlocSotah8VDGqCtWAakV1oO6gBlCvUJ/RWDQVTUebop3QvuhINAe9DL0WvRVdiq5FN6Evoe+gB9Fj6O8YMkYNY4JxxLAwMZhkzHJMHqYYU405hbmM6cUMYz5gsVga1gBrj/XFxmJTsKuwW7H7sI3Y89hu7BB2HIfDqeBMcM64YBwbl4XLw+3FHcGdw/XghnGf8DJ4TbwV3hsfhxfiN+KL8Yfxbfge/HP8BEGOoEdwJAQTuISVhO2EQ4RWwm3CMGGCKE80IDoTI4gpxA3EEmID8TLxEfGdjIyMtoyDTKiMQGa9TInMMZmrMoMyn0kKJGOSBymeJCFtI9WQzpPuk96RyWR9shs5jpxF3kauI18kPyF/kqXKmsmyZLmy62TLZJtke2RfUwgUPQqTsoSSQymmnKDcprySI8jpy3nIseXWypXJnZbrlxuXp8pbygfLp8tvlT8sf01+RAGnoK/gpcBVyFU4qHBRYYiKoupQPagc6ibqIepl6rAiVtFAkaWYoligeFSxU3FMSUHJRilKaYVSmdJZpQEaiqZPY9HSaNtpx2l9tC/z1Ocx5/HmbZnXMK9n3kfl+cpuyjzlfOVG5V7lLyp0FS+VVJWdKs0qj1XRqsaqoarLVferXlZ9NV9xvtN8zvz8+cfnP1CD1YzVwtRWqR1Uu6k2rq6h7qMuUt+rflH9lQZNw00jRaNIo01jVJOq6aIp0CzSPKf5gq5EZ9LT6CX0S/QxLTUtXy2JVqVWp9aEtoF2pPZG7UbtxzpEHYZOkk6RTrvOmK6mbqDuat163Qd6BD2GHl9vj16H3kd9A/1o/c36zfojBsoGLIMcg3qDR4ZkQ1fDZYZVhneNsEYMo1SjfUZdxrCxrTHfuMz4tglsYmciMNln0r0As8BhgXBB1YJ+U5Ip0zTbtN500IxmFmC20azZ7LW5rnmc+U7zDvPvFrYWaRaHLB5aKlj6WW60bLV8a2VsxbEqs7prTbb2tl5n3WL9xsbEhmez3+aeLdU20HazbbvtNzt7O7Fdg92ova59gn25fT9DkRHC2Mq46oBxcHdY53DG4bOjnWOW43HHP5xMnVKdDjuNLDRYyFt4aOGQs7Yz27nSecCF7pLgcsBlwFXLle1a5frUTceN61bt9pxpxExhHmG+drdwF7ufcv/o4eixxuO8J8rTxzPfs9NLwSvSq9Tribe2d7J3vfeYj63PKp/zvhhff9+dvv0sdRaHVcca87P3W+N3yZ/kH+5f6v80wDhAHNAaCAf6Be4KfBSkFyQMag4GwazgXcGPQwxCloX8GooNDQktC30WZhm2OqwjnBq+NPxw+IcI94jtEQ8jDSMlke1RlKj4qLqoj9Ge0YXRAzHmMWtibsSqxgpiW+JwcVFx1XHji7wW7V40HG8bnxfft9hg8YrF15aoLklbcnYpZSl76YkETEJ0wuGEr+xgdhV7PJGVWJ44xvHg7OG85Lpxi7ijPGdeIe95knNSYdJIsnPyruRRviu/mP9K4CEoFbxJ8U2pSPmYGpxakzqZFp3WmI5PT0g/LVQQpgovZWhkrMjoFpmI8kQDyxyX7V42JvYXV2dCmYszW7IUkabopsRQ8oNkMNsluyz70/Ko5SdWyK8Qrri50njllpXPc7xzfl6FXsVZ1b5aa/WG1YNrmGsq10JrE9e2r9NZl7tueL3P+toNxA2pG25ttNhYuPH9puhNrbnquetzh37w+aE+TzZPnNe/2WlzxY/oHwU/dm6x3rJ3y/d8bv71AouC4oKvWzlbr/9k+VPJT5PbkrZ1brfbvn8HdodwR99O1521hfKFOYVDuwJ3NRXRi/KL3u9euvtasU1xxR7iHsmegZKAkpa9unt37P1ayi/tLXMvayxXK99S/nEfd1/Pfrf9DRXqFQUVXw4IDtyr9KlsqtKvKj6IPZh98NmhqEMdPzN+rqtWrS6o/lYjrBmoDau9VGdfV3dY7fD2erheUj96JP5I11HPoy0Npg2VjbTGgmPgmOTYi18Sfuk77n+8/QTjRMNJvZPlp6in8pugppVNY8385oGW2Jbu036n21udWk/9avZrzRmtM2Vnlc5ubyO25bZNnss5N35edP7VheQLQ+1L2x9ejLl491Lopc7L/pevXvG+crGD2XHuqvPVM9ccr52+zrjefMPuRtNN25unbtneOtVp19l02/52S5dDV2v3wu62HteeC3c871y5y7p7ozeot7svsu9ef3z/wD3uvZH7afffPMh+MPFw/SPMo/zHco+Ln6g9qfrN6LfGAbuBs4Oegzefhj99OMQZevl75u9fh3OfkZ8VP9d8XjdiNXJm1Hu068WiF8MvRS8nXuX9Q/4f5a8NX5/8w+2Pm2MxY8NvxG8m3259p/Ku5r3N+/bxkPEnH9I/THzM/6TyqfYz43PHl+gvzyeWf8V9Lflm9K31u//3R5Ppk5Mitpg93QqgkAEnJQHwtgYAciwA1C4AiItmeulpg2b6/2kC/4ln+u1pswPgYD8AEasACLgFwN5SpJVF9CnxAIRQEL8TgK2tpWO2753u0afbkiGkZ0EUD/DBv7GZ/v1Pef99BlOqNuDv8z8BOV4D4auVhOQAAAA4ZVhJZk1NACoAAAAIAAGHaQAEAAAAAQAAABoAAAAAAAKgAgAEAAAAAQAAAc2gAwAEAAAAAQAAAXgAAAAAePSecwAAQABJREFUeAHsvWdzJVeWrpfwOPBAee9YZNO7dtOj1vTMKK70TR/0g0b/SCEpFJLuVcTt6Ts9wybZJKtY3nuHgvdez7MPkg1Ws6pRKGTi4Jy1ySygUAeZO9c2717uXU2rq6trWbSQQEggJBASCAmEBP6mBJr/5ifiAyGBkEBIICQQEggJJAkEaMZECAmEBEICIYGQwCYlEKC5SUHFx0ICIYGQQEggJBCgGXMgJBASCAmEBEICm5RAgOYmBRUfCwmEBEICIYGQQIBmzIGQQEggJBASCAlsUgIBmpsUVHwsJBASCAmEBEICAZoxB0ICIYGQQEggJLBJCQRoblJQ8bGQQEggJBASCAkEaMYcCAmEBEICIYGQwCYlEKC5SUHFx0ICIYGQQEggJBCgGXMgJBASCAmEBEICm5RAgOYmBRUfCwmEBEICIYGQQIBmzIGQQEggJBASCAlsUgIBmpsUVHwsJBASCAmEBEICAZoxB0ICIYGQQEggJLBJCQRoblJQ8bGQQEggJBASCAkEaMYcCAmEBEICIYGQwCYlEKC5SUHFx0ICIYGQQEggJBCgGXMgJBASCAmEBEICm5RAgOYmBRUfCwmEBEICIYGQQIBmzIGQQEggJBASCAlsUgIBmpsUVHwsJBASCAmEBEICAZoxB0ICIYGQQEggJLBJCQRoblJQ8bGQQEggJBASCAkEaMYcCAmEBEICIYGQwCYlEKC5SUHFx0ICIYGQQEggJBCgGXMgJBASCAmEBEICm5RAgOYmBRUfCwmEBEICIYGQQIBmzIGQQEggJBASCAlsUgIBmpsUVHwsJBASCAmEBEICAZoxB0ICIYGQQEggJLBJCQRoblJQ8bGQQEggJBASCAkEaMYcCAmEBEICIYGQwCYlEKC5SUHFx0ICIYGQQEggJBCgGXMgJBASCAmEBEICm5RAgOYmBRUfCwmEBEICIYGQQIBmzIGQQEggJBASCAlsUgIBmpsUVHwsJBASCAmEBEICAZoxB0ICIYGQQEggJLBJCQRoblJQ8bGQQEggJBASCAkEaMYcCAmEBEICIYGQwCYlEKC5SUHFx0ICIYGQQEggJBCgGXMgJBASCAmEBEICm5RAgOYmBRUfCwmEBEICIYGQQIBmzIGQQEggJBASCAlsUgIBmpsUVHwsJBASCAmEBEICAZoxB0ICIYGQQEggJLBJCbRu8nPxsZBAIRJYXlnNZpdWsjmupZW1bGl19YfntLc0Zx2tzVlna0v62sbfo4UEQgIhgZ2UQIDmTko/ng1IrmUT80vZ85nFbGZxJV25WHo7WrP+ztZsqKs9a2luy9pa8n+JryGBkEBIYGckEKC5M3Jv2KcuoVkuA5QC5NjcUjYyt5g9BTCfTi8kbXN+sappNiGhrvaWrBfQ3Nvdnu0HOPd0tWVDlfasm583NzUBpH4qWi1LYG1tLVtYXs3muRz7RS6Gn2stjWErY5hbFLQqxLjW8mhG35RAgGbMg1Il4AY6tbCc3Z+Yy757MpXdHp/LhueXs1G0zTV3U/4XCjXENgmKXHsrbdmR7rbsVH8l+/hwX3ZioCtttAGapQ7dlh7mkE4y3s84FE0yzloVnAMenNqam7OejhasCW3Z3h4PRe0xrluScvxSmRII0CxT2g38LLUMTbFP2DwfTMxnV55PZ18+mMhuAprjaJ3TbKStaI9t4iRyEjiX2HAX0Uj60SwPoHE+HVxIQLrMzw+gfR7o6UifU6xN/G60nZeAmqVAuYxv2sORgPlgcj67M8Y4Y1nwml9S61wDIJuyvnXz+6G+juxAb2e2V2sCINqefNnNMa47P6TRgxckEKD5gkDir8VIQHOsWsbF4ensz48n0yY6DICusHkKlD1soJrm8lAfIVAXZhsbcBMb8SS/f3t8PlvOxrKHUwvZr44OJM0kmfMCL4sZtC3cleFMZtg01k+nshsjs9k9xvn2JGO9vMK1mq2AqgKrB5221qasgrO6D//1EID5/t7u7OxQd7afQ9HBvk4OUlvoRPxKSKBACQRoFijcRr+1Wgd7Y/JfuYk+mJzLLj6bzv4DDVONsxPTa1W7ZPMENH+6NVV9oETXTgOc+j8fsgHvwWT7wYGeFFnbiVbyst/+6XvGT7dbAo61TYvC1OJyGt/zmN+/ejiePZhdyu5ML2UdDFKHB6P1wXJ2CLIaCdr4YTfgObewkq3yw5W17myAMXZsm/k3D0fRQgK1IIEAzVoYhTrtg/vo5AImOQDzm8dT2TdPJrPraB7zAGC7m+cm39tNthVYXOWrASRuypcx7w7eas3eVjPZ25NMfZu8XXysAAkImWqQjzkMfYsl4QJa5s3R2ewpgLmIdtnHoUitsYVxz+Fvje8S2PIDQXGV37/M7zzBhPsxhyPTkI6gbR7s7SD4K7aqAoYtbrkFCcRM3ILQ4lc2J4FVNAm1wyeYUy+gYf7+7ng2BYB2gILtIuEmWzLb8vEVAFM/p6bem4BvC3/vRDs5hTkPt2e0HZSA5lbH59n0Yvblw4nsj/fGUsTsouZ3xroXjfGn21/mgaCpj3vagxVA28XvNXFfNU6stdFCAjUhgQDNmhiG+uqEQSBGSo4BkN8DlvowbxEIsoLpTnPsX7bJ13tvf09NxTYBcN6bqqaraPr1p3nKQvpA/FGqBAzweUiA12XGexjgFCy1zeeBXZvpTBpDx5cD0Cj3+xptdR4gNhjszGBXSj3qwfcZLSSwkxKIGbiT0q/TZ5tOMDK7SLDPbPbvD8az//36yLo/q7qJbvW13VQ18ZnJOQYozwDCj9igRzABdsAWpEbT/FLf6FafGr+3GQmMMt4X8GGe54CkZUGTrDmYjsnrtE4UUmOin3O/+5h6xzgczWOOX+Ug1tHaR4pKbFmvI8/47PZLIGbg9su0Ye9o/t0MKQZueN+wgV7E73h7bF5HJKki1WjJN0kN+eF30Tw0BarNTLOhumH3s5nq94oJXe7004/pIclDzP2peQ4xkFQQJStWev0wZpvoVv5ZYbaZ8W1GUx3lQHQJc20rVIr6QPVz7u3uSKkqm7hlfCQksO0SiD1m20XauDdcYLOUDs8AkC/wa30FcC7zM9NJVABf5tXaqsQMIplFE3Fj3d+NNrIWjq+tynKrvydgzjPG4wR8PQQwn3CAMYJWDVPw22rTrNvCpPFQdHkUXmKtvQI0B7MPDzUHaG5VsPF7byyBAM03FmHcQLA0OCf5tIZnskvkYt4AOIcB0ApI2bXNROtuxvmGrBnQJHoDR4ysjVauBFKKCfIf14fN1ynmQR4l+yY90XftQWteUMY0+4A0Izcrx7mVoCLHWiYhg4SihQTKlECAZpnSrtNnzcEX+4RN7drzmeyrRxPZBcyyU+Tb5RpmEa8taKq5GnEpaLt5B2YWIelX31MuWdOKptPBZSVbZhDMmhXwtqOlQCK0Vsf4JoFGMkcZ8CVJwlukGwVoboeU4x6vI4EAzdeRVnz2RxLQh6mmZ27eZQDzAhrmNTTM+9CmdcArampJUc07p4s/DLiM5PeiJP3q+2qe1c+oiVaaRDXAtfUI51f/5ub+daPGObW0nJ5xhbmmv9Ogr340zS7SjiT3jzmwOZnGp95MAgGabya/hv7tMSqUGClpWskf7k9k9yBhNxCoE8DcLk3jZQLOq26qdQxgpqu0VZljXvb5+HkxEtCvjLKZArOK1PTVOLuZVE0A8100zhmAegagFrDPBsFFMYMbd/1JCQRo/qRY4ocvk4CbpNqFhNuPAUxNshIXfI+WaW6dG5v0eGU0NQt5SzXRqW2U9NgyXm33PCNp+Wr9bxb487deONc4jZoeYZ5NonXCJ5R4iVvxme/tqkbUmnok7V60kEBREgjQLEqydXpf8DJFq5qHee7pdPY1eXn3MMdKXFBhsyqDYFvrnxUy1C4FzAPQrPWibebEB3Uq+pp8Lct7merj4aVaqq1YwPLuKR+Xefh8bjm7hDugzXQUtF01zhODFeZh0EPV5GSpk04FaNbJQBb9GskMx0ZlQIYm2esjBv1MZv9G4M8cEZNyi3ZxFdnsA11IvqsKZllLSO2jBuOBns6slzzNqK9ZpPR/+t4WkFb2PQCnpnKngIcax8qW517+9G+//k+1LrRzf32nWjaec1kpZwoAtQ1UmAd8ppWOhI/z9eUbv/G3JRCg+bdlFJ9AAgZ5jJBC8git8jvMsd9BcXaXqiXyv5pWUoZFTD/mAv1wcz7W35l9tL8nOzVQSZUw3CiLheyYBj8lgbZ10BwCrPaj9T8BQE0Lcb44J4rU+aRkdE6M40e/Pj6bdXW2pOjd00OV7DR8xIJ5tJDAdksgZtV2S7RO72dKh/Uvr6zXw/y3h5OYxFazTjbGN01k36zINA3PsUsKkMcAy7872p8dBTxT+ahAzM2KcVs/p5m8rYVamGj9BwDNwY6WbJiBmgU4Eyl/QePibXUFqM/KRjSMximATvO91hALlAdobutQx83WJRCgGVPhlRIwrUQy7qcAplGy0uOpba4CoonYDAAr2gxm7t8yu6Nazdv97dnx/kr23r5uALOSEtx9/nabAV8plPjHHySg3AUwC0i/h+YvWBoUNk1Ua5Gq/w/jzdzw+V6WoLs1kWWdpJ8MVtrJHV3J9lEexbSUaCGB7ZJAgOZ2SbJO72P+3T1MX1dh+vmSoJ8/cUlnlkyybFVuVkU3AXMGv9Ve2Lx/fqgv++Wh3uwUVS8OU2tRP2YZpuGi33G3338/fLA/PzqAnb45G0bbe4Dfu4y5odzUODXVykZk9RtNwxmYPUU/Pj3cF6C52ydXjfU/QLPGBqRWujMD56flvR7qwyRK9gosP0bJGvRD0Coln4rX7gz2ACuJzmzJDna2Zicxyb6PhvnWUFe2hwCgDqImo9WGBPQzD6LRnSJ69eODvalTWiSMsk4Yxh8ebgTSH7TEbeh6rul6K1OhvDTX3qDCDvidAoKWcCNorh1kzkQLCbypBAI031SCdfr7AuZNImRl+vkC7fI69TCXMLnJ8gNeltIEzCWA8zCb8ccHegDMnuzdvT3Zwd7OFAxUSifiIZuSgBp/B6VsDjM2f39sIDuAWfT3t0ezMUz7mtcdx1YgM0XXbuqOr/8hNU5zNHUp3JuezxbIQ5nHjaDZ9lf0KUDz9WUav/HXEgjQ/GuZNPRPZgHGWbTMm5zUvyVC9iL+qevkwj2ZWUp5mEWnlSh8E9j5P1GjWT/xXfLvPj/Yl72Llilg9hF0Eq22JKBf2WuQKNqutq6sj3EzJcQyYU+pefoQcy1DmrROw3e2W+NUGtU+VDXOSYBzebVa11OrifNI4gP9m1opooUEtiqBAM2tSq5Of8+gn/vjc9n3BPx8g1n2Ft/PL60mph9P8mU0QZNHZsfY3D7Y342W2Zud3dOdTGydYZItYwi2/AyBy9xNTbWfctDpI3/za3J5rbGq6dT6m0JmkRqnZmAjdyXzH8Fisrw2n/XQBw+DHzCXAjS3PLzxi0ggQDOmQZKAxOsLmLIeU0j4Kv7LS5hl1TCfstn1sAkWTY2XExeYNmCUbAdko8dJJ/mETe4DojJDw9wdEzVpeyBiL+B5do++5zZ4YpezW1guLB82QU6lVoQi20aNcxof/Bxz+zIWk1merR/8+EBX1oljvsL3QYhR5EjU570DNOtzXF/7rZ7iA7oFSGqOPY+GeQdSbAv+dhNNUYaGKVhKXDDPN58c6M7eY8N9Dx/mz7j2EcQRGuZrD+mO/gKYmcYMnoHsEzROAerbJ5PZt4+nUv3TMjqXa5z2ZRTAXlqdpzLKeCpj9j6HMa/I5SxjJOrrGQGa9TWer/U2iRpPkxlHf8nXL+DDNMfuAlrm5Hw16KeiHa3AltOtqXykklJEPJ5Aw/wNxAUnSSs5RFqJFG3RdpcE1PY6OG21MX80rR/i4GMqyCPmmVHRC9jfq77rv6id2xlVq7RyjdPnqXGakiJJxwg5x2qYR5hbmpJb+V6AtW13H6p3jT/rSQKxG9XTaL7mu7hpPUCjlEv2PIApPd4Tgjbk8jStxBN60c0ts0pcwOYKWB7tqyRfmCY0/WLt5g1E27UScAoJTAbivENAlwD2PXPtKgczq5UYIc2PEmgVlUBkH2SRcq5pqn3Gc7WoCJzvYsk4RQpTPylNgmwJU37XjmV0vCqBAM0GngkGZdzF1/QdxOvn2US+YjNzZ+lAOygLrDTLqoHI4vI+m+o/nxyiUkUX4NlJjl0A5m6fnmpuapzmcX6EOVQ/pwWjh2eXksnUg5sBO2p7RRk17IMuBq0aMhZJgLBMGtUj6r8aHNQHYJoLLB1koOZun3HF9z9As3gZ19wTDMF/inYpccHXRMmeAzCHCfiRVaWpiST0EnqsxqGGaUmpk4Pt2VsA5Qf7e5PJzHSFMJOVMAglP0Jg1Dd9mrH+HYejgz3tcBnPZMMUAhA8fyB5Zx4W1ZzbAugCKq6RtddGZgkKGsue04e3MCNLB1g16xbXh6LeLe5bjgQCNMuRc009xVxMg37OEZjxNUE/59k42lAxLbmkgaqM7SJpmGyUA9iB32Gz+vt1H6Z8sht9TDUluOjMG0lAc6iAdBrWoEFybfcCUNNEtHqpARq9rbZXlMZp5723ffBZmmqvMvc9RNoHa7Oqdcb8e6NhrvtfDtCs+yH+ywu6MUi8flviAgDz/LOp7DE+TKNksZ5lTeub2l9+Y/u/S+wwIKbmsJMUjz7DBvoJtGtvw/SjD7MTzTNafUpAsPJE1mvtTUzvSyvdiTFIy8ItGKfu4V/XApFrnGqF22lxyO/lodCcUZ9lWbEVaPb8twr9Gqcu57GBzuwQJBoshwSw9Tka8VZblUCA5lYltwt/b5IN4jJAeYGAn5SHOcYmxebRw/HbE7ibSdFN0oJZnjkEaH4ENZ55mGcIxDgIgJqfGa3+JaDG2dEEnzBj/mvo7czl1L4xip9zBgahRSZJVSstTha5xmk07SjXyvg8YD2e+vCbbDBVR6lqnGWsiuLeM+68/RII0Nx+mdbcHdUwE5dsysOcya7AKfsIjVOzlAE/qe5hwb1WwzRSsgJYCphvA5Ryyb5NYMg+KmR0R1pJwSNQO7ev+gwzUolaslYCvmyjaHhzuA3uEJwj5Z5NE34T80bYyrVEf74dzft538RSxDMm8G/eWZ1LEbaaaXsx0+6DkcrSYusK8rb3YTveI+5RvgQCNMuXeelPNKXkEpGxFwm6+A5N8xFEBksgWCeAqQmqjLbIDjiHhnmMoJ/PMcd+AGDK9HMIbaOjJUyyZYxBrT1D8LSAuBVIfnmkP82F398aSeQH87gM9HP6GQN3ipqmzn8BVHI/8zjvYiKmMmcief8lpc4G4NJV4zRlJVpIQAkEaNbxPFDDnEabvIGG+T0BP1fRMB9CkzdBcV61y6I1zI3UeBUCfnrYIM8QOfkxYPkz0ksEzN6OIF+v4yn4ylerapxNaJxN2bH+ppQraVS3lVGeEM2qxlnlqpXovRiN0z7YqtG7pKMsLOHzx6+KyVZfq8FKctUOELik3z8H2Ve+WPxjXUsgQLOOh/cBpq4rpJOcx4epSfYpG9EyGqZgqU+njGZaiYEdZwc6EjPMp2iZbw11J5NsaJhljEDtP0MgkgBBSruPmB8GhP05EaxXWXyMdLUV6Xd3OahN+tXKLIL2t+RyypX788P9qV/VXM7m0taO7xyt9iQQoFl7Y/JGPfJErmlL/9A1gPI/7o9XfZhsAvMgmMTrZWmYvkg7O53EBfow//tj/SlK1gCQ8GG+0TDX1S8njZN5ohlUhh5p92y6FdQ2n6N5WiOT81ehGqfg7foRpBfIW3YN3Saq1zQYGYNSIWsjvKkbKrhut5/Vd45W+xII0Kz9MXqtHhrYIMuPVR2kK7tBaa9xzLHuOIKlG0PRzc1NDdMUlpPkXb6zt0pcIJesWkREyRY9Arv3/smHiRnUiOr/dHZflQ8Z18JjAtcETgPKivRxujxy/6UWEv2cl1hLfv8+bgUJOPZDytBGPEBZ1prdO5r12fMAzTobV0HzDkD5r7dHsjuTC9ldLtNKqtR4JSDmujzd3Fo4jx8n501qPMmxJS6IPMw6m3Db+DpqbgKR80bQPD5QoTpKczZGKsrEPNqmqSG4F5oLPPzZB0FZjXOR53n4u0QA3T3WlH5OtU2DgwRW+xmt8SQQoFknYz5vuD4a5l0W9zmo8QTLSYKA0iZkAEMJ75kTF7Ty0Lf2VLITAKUFpAVMw/jNvYsWEtiMBHKN8xgHrd+cGMy68Xdeoc6r1XgWAc6cACHXCjdzz9f5jDO1em/oHjl0zpA7akBdx+1R0mOWSJWyKPq6xhnz+nVEu+s/G6C564ew+gL6X74HLL+4P5bdBjBvEjovlyy1nFPYfhmvyV6WiAu6iZQ1B/O3UONZrUSzrCf42FvKGIX6eIZzReCUcs8o635A00LpM7gaRgnOmQfEyqDcEzgFTeMELlOZ5R58zWNovWrAqTIKCyw0zvqYc5t9iwDNzUqqRj+n2eoRC9mAhQv4Xu7y/Ti1MNUsvTwxFx2wkGuYEhcc7m/LjqMdCJq5DzOqldTo5KnhbuVzVv+35thjlI37/Egf5v3mxGj1gHmuCVVAA9eqc91vtqnlz/d2EiwI4uY2TwLat7HmfPlwAu1zJfEmS7mnFcVApmj1L4EAzV0+xlKPfUdo/LeE6N+CCuwhXLKs8ayDBewSLmMZ6/f5gRqPYInPSBt4Fy5ZC0iXVWJslw9jdP8lEhCHBDC1Tf3hBpJNoWmayzlLasgcGmeV7u4lN9iGH9sHtV4tKcv4Na1Bq6ZrZaAKVVvsk6XPWpuDpGMbxF3ztwjQrPkh+ukOpgRwIgovEiEraGo6MkpWM5Jm2TJOvakWIhuJ+WuH2DjeIXjDPMyPAM59BEz0BDXeTw9e/HTTEhAwPfiZoiRo+v2zw4tEYDfhv5+Hdq+qcUqC0EyIuP++UUvc9INe8UEB0yZZhxmj00TUzi/PJ0KEvZX2FDB0HE1YC0uucW53H1IH4o+akECAZk0Mw+t34gmA+cW98ZSAfW9yLtUGNEpWP091ib/+PV/3Nzx5L7GRHAYwf3G4b51Lthsi7s5UN/F17xefDwm8TAK5xjnkXMNXLifsF+Qgj8MZOwOITa8sJ8g08K2o+S92eiBlmSWzsHVAv3gwnioH/f3xwcQcpOYpcBbVh5fJJ35engQCNMuT9Zaf5AnX5p9uEFYruQFxgXmYV9Awp4iSncdsVIaGmVPj2RcLSFsP8xSpAVYrkXzdkPw+KMeihQS2UwK5xtmFVeME802yd9eBxaMtPrAypX+zyhykr1PQ2m5tL9c49X/ox7cu7V1iCWboh2BuNO1B5r9rQIajHOi3Uw5xr52XQIDmzo/BpnqgKRRcTLUwv3k4DnnBDD7M2QSYbhICpou0jJYH/pwZ6kgJ3+/CIyuX7H42i05O2tFCAkVJwCluRGsfnMUf4wowgvUbgnK+wac/jJ/TQB2hs1ACBDrhevMU6xcDgqTc02XyK0jeLXdmv1wLar7R6ksCAZo1PJ65hqk5KJmg0ChvkSv2NZuE1RhGME2VrWG6IRnR2EGo/UlO/FYsMRH9MEE/QY1Xw5OpTrqm9igQWQBAjdNanAuA1iRR5LAgQIAADR5+fVvhGuc6IJo3agFtzbXy50oTeYz1sKeLuqEECIXGWSeTb/01AjRrfDz1G84TJXhzZDa7RnK39HgPphYhLuBEzb+VpWHyqGyBvWiVjeIsQQ9nyb389FBfSiuxCkRQ49X4RKqz7olXmkvV5s5ANGDgW1cKPJskqnUpBeu4dor0cb4oUgkX5Hv26+esjQ85ULo2ugD4pJm++Avx910pgQDNGhy2XMNMgMkpWgaSy8NT2R9uj0BgvZg9YVPQXGvQT9FRsnlfPLsLmC2cnC3v9c8nB9NmpYYZJtkanER13qVc45Q8XUuHWqdtDmtMUzbLQRPWIA6bhuRYLdO23T7OdNMNf5gzep3DrZfRvJYWE9xbKLLe3FaMn3XD4+PbkiQQoFmSoF/3MYLiFP6Zq2iXBvxcJeDn0TQnaEA0mXvSZvC6d339z7vd6MNUk1TDFDA/PdiXmH5SjUGdOtFCAjsoATVOznLZKcDT2TiIdreyNpE9IWd5geAgwcw1U6a3XTrLf70zmj2bIW+ZyHKDgzTVWvUn2u6WQIBmDY6fQGXQj0ncF6jw8P9efw511zJ5mMuptwY5uAmU0ewLedzJh6lJVg1TajzJtPMIwTL6Ec8ICbxMAq4FgfMU81Ou2gpm2vsTC6lCydICFHgAZyqHV9KasZ8WTXgIa5GR7fo4jfZtaWpjzbzsLeLnu0UCAZo1NFKadDwVy215Dc3yOv6R82iZzwgwWOTntrKo8VK0Lo80rcQoWYN+9GHqP1LDFDCDgL2GJk+DdmWjyVXCA6ZrOtD97vQQjFQdaQ3doxi7hOsSfySNswTriH5N1+wtwPP/uzVCHMI8LFndpGd1JSrAcGns3gkboFlDYydQWf5oeGYh+5KkaavXW4C3apLFBMVJuazDshgtcYF5mNYRNEpWLll9mGUFH9XQ0ERXdpEEzJX87Ykhcibb0TAziN5XUiyAtTGLJnnPxeQR1ziAR5iIh+fGsiccfOUzGiRVZhCNM0Azl9Tu+xqgWQNjpoYpYBqyLhG1WqZReI8og2QIvQtQsExXwadk/ZdyyUqNJ9OPxAWekA22MBIwFnsNTJjowisloO/Q6/hyJZvcb2CQaVLTaY2ZHmKdTDXOMtaTNTitQOS6Pv9sin5QNo+1dGqAovBE/trPaLtLAgGaNTBemmTVMPWD/PvdMao4THEyXkDDZHHTv+SPKamf+i8lX5dLVmo8mX4kLlDDjLSSkgYhHrMtEhgih/OzI/3JTGulFAHsGZHnj6dXqhyx68C5LQ974SYCsu5L169ujHEsRl88mMiecjD+R+qD9mBHHuIQGqD5guB2wV8DNHdwkNQwTcAeoVrCY6jALj2bzq6iYUpcIEWX/2aAg1fRTQ3TFBfLew1xSb5ueS+p8WT6CeKCokcg7r/dEuhImlxLMsladcd6nNdIB5F+z7mudceUKoFto290O/qRr9j8vlZHGWFNu5Qvw5vbDWi+tZ5f6mFUDbSMdb4d79bo9wjQ3MEZoIapqUgNU5YfNUzNOJY7spXpO8w1TOthWqXEaiXV6vRBjbeDUyQevQ0S0KXwDgfAPqjtBKhnxAxYEWicyFZ9H8nPuQ3PedUtBFGfs8BCkwJzAuDWVNxN3+yXV3Oko7xKhDXzbwGaJQ+FJ1vWaap5mQin0TLNwZS78hY0YLOchgVTAbMM4gL7YmtlwXYT9GN5I+thCpxWKwny9ap84s/dK4F2/IbH8M3vRcOzKsp9Dqn3jRdgLUq55xooinIvl1qyGPEXTcT3ORg/Y93v6WzPhohEP0yUr+uvi3/XlBsaZy612vwaoLkD46J2aRV400n+272x7A6VEtQwDYm3lalhGvSjafatPZVkjtUkqynLepgR9LMDkyMeWZgENIH+jPndhWn0/NPJ7NyTqewe625kTq1vtRSN05dT61zheQYGPUHrlXLv85Xe7ChxA/2AqGblaLUrgQDNksYm1zA90Uq+btLzFdh+/ivUeDL/6N/kkFlduH5TYMup8TxhN/EsQ+FPsGB/S51C00oO8X0UkC5wAOLWOyKB1mYsKWicXlpxFjGVCpZTfDUQz/WQr43cF7ndHXVle1n7VsvSFQow0C3AkkhaTMftLS30LUjet1vu23m/AM3tlOYr7sUaSQtUwPzuyWR2CeL1K/g2VtA4dWUY3ZcvqFfcZlv+yc1BDdOghDNpE+nMPiZKVqafQaJm213F0UICdSwBo8F/ThmvlkTS0ZwsPTJuGSykibSMjVGLkmvw/uRC9nsKyk8trmafsh9YIUUfZ2ictTkBy5gbtfnmJfdKDVPz69gc1d6pOP9/XRv+oQcunoSYP/yk2G80AstY0gJav7NXaryh7AgLVS2zlU0kWkig3iWQa5yWGFu1eDXrUxKRKdZFB8sxrckChaAmS3W9zHLtt3HPfP/c2rgrqSJKJ+uymmsaZtoCh2DLtw7Q3LLoNveLVpM32OA5+WHS4klaYLTsTjR9lxxmUy3CswMd2QkI2D/Y35sAcwANsyiT1E68azwzJLAZCeynAsknh/uhtsNJgYZ5d3w+FZWeg0XIYtdFg6d9NA+7m68j5HB+SRS9nNOfYjI+zvrsoVJKpHttZiTL+0yAZsGyNhLWnMtHBBx8/Wgy+xP0eC6KnWhYfrI5+tNDNOFZcsR+c6QvfT1KxGw1am8nehXPDAnsnATMQe7HFGrxaF0n5lPew1xqOkoHRpcyQFONU6uP+dp/gnfaUoDmcapxGkkboLlz8+Onnhyg+VNS2YafqWEug1JPIC24SkK1kbIG/ki+ngcbbMNjNnULNUwOrom44Nhg+3p5r97sXSIJEzUeCzRaSKARJVA1gzanyFVLeBlZ29U+nWXPLf4OBd66xukKKcoSk6ejuF9olXoIaHvAngbE39+/koalC8KRAM/amKEBmgWNgwtADdMF8OXDccgLXATLKWquoEe+9LYCptR4Mv1IvP4xOZhvDXWnKFmrlUQLCTS6BEz1+OBA3w95ybOsVQu+GxykxqklpujmI9rRLGd49rccskfQOm39rNtg5Spa+pu/f4Dm5mW1qU8mDROAkhbvPnR4F6DGk7rrEX8XnsqEKIOPwEtOqFVqvLehxvsA7VIu2X34ciKtZFNDGh9qAAlUNc729KaTgJUH3raWmVTE2rQUD8FNrCfXb5Eapx1ILh1MtLbBzplUnu9tNFDZjCzVZ1+DACGJZ0f+CNDcZrFr0tE3co6T4h8gX79JHtYkLCRpsW3zs/7W7UwrsbzXSYrgfnSgJ5EXfICWeYi/d5APFi0kEBL4sQT0bb5HcJyap8FxHah/t4lHeACDUBPrqQzKPfcKg4OsjvIdRegfE0T4G4C8mecfITjoAOs3QPPH41bm3wI0t0Ha+ig9HXo9o37eYxbYZfIw1TKf8L0LwMVWRrMvrK2kYXoqtR7mmcFKqlYi+bqA2UtNv2ghgZDAX0tALU5TqGtnHtCSuUevoukgHojXWOMSvRetcXp/WcOGlxazSfoxgLWoC03Tg7C0gN1trTB2oXGWtK/8taQa9ycBmtsw9oKUp0K5ZC9CjfUN9FzWxHTRCZgEwZXakobJ4j5J0M87RMl+gh/TepiaZEPDLHUo4mG7VAKy8xznsGkAji4OXR2P8HE+JcJVAoQyNE73jU72D83Ct0lTmxC4WdduJ/LVyg2tJhytXAkEaL6BvNXqPHVarcAC0vcn5rJvAcx/g09WYmgNoGVqmC5uAVyOzU4W+1uQFfw91HhvwyV7EA0zou/eYLDjVxtKAmpzR/oq6VLDFLg68HHOoXmOrS6ldebaF7KKMpV6X4kWjH63IP11ckgrrG3tRAsrVQ5dmYOk3SsjUKmhJsArXjZA8xXC+Vv/BFZm05YYwt/wPRqmicnWwpxjkZXdBMsFTqFrLLSz+D3eJ9hH4gJZfqTGiwLSZY9IPK9eJCBblvma7ZhsDQK6Dmfss9nlFCykJli0sqepVo1SgNbd86e1iVQNyQP5Uda6aWOSIEQrRwIh6TeQsyYb00ieERmr//I/3xr94W5lG02E6Xn/YIUd5YScU+NJXCDbSbSQQEhgaxJwDXlZvmuJA7H+zeH5lZTGJZgWHSGQa5wCp3nfdwlMkgZzKGmZVfID3LDRSpJAgOYWBK1PwwhZTbJfPJpIJX7uYzrxRJi3skBTE5GXmuQnB7oTNd6nB/uyE2iYfZw+i67Jmb9vfA0J1LsEDoBMnx3pTyTvFdwft+CMHSc1xHgGwbOMteZzmthonrL3/Csc1s94vrmkBvmpcUb92+JnYYDmFmRs3pa5XA8wxf77gwkm71jyPXQyoctu4GVi++mAi+s9Fs5v8GFarcTafJqSijYdlf2+8byQwE5JwEC6wUp78iFK8t7EdQnGoAlASyBrLaHqQitbjMA5QhrKgxkBE45cBFLh0GyQX4Bm8bMjQPM1ZLzAAvFU+QCWn6tEx16mtNfjqflsTeemPocSraCahn2s0X3HOGFK7vwexAW5DzOqlbzGwMZHQwKbkIDBNl77e9qzd4kXaCEApwm07GyZTZR3umo0pboNFEWAkN/XwCSvMTTNi+xFPncBEPdAb36pV7RiJBCg+RpynYOPTpPspeGp7PcQF5wn8ViC516OfxtNs69xyy1/VMBcZNEcwK/x2aHeRI93lihZAwM8iUYLCYQEipHAXg6pve2t2QE0T1PKuvB1Xh2dy54DYO1sBGVEsuYk79Noud8ST/GcaH1ZjCysfZYgwADNYsbeuwZobkK2VQ2T6geklFjaS7DUNCvTT5nEBXbV8HPzMKXGO8xp8l0WiJd5mHu62kh4LlHd3YTs4iMhgXqTgPEDXvtYi2+z9lJcK+BpOsoMwCXRegv/BpYmDbCI91ez9KBuxLwpb8/JH70K+xhbQyJjkJxBdiPjGoIAYXtHIEBzE/LUJKuGKWDqw9Qs6wnPaDb+L7UJmDMskoNomB9Djfc5QT+W+TLROQCz1KGIhzW4BASmUxQ+kMO5mbPqCgB2jeCg5+wNbqyVEiw++jgrbEJG9d6AAGEMH6dB9OZznuQg7eEaI3KDj9T2vn6A5ivkaZTsIn4Cw7wtIH0Jajx9mY/wY7axIMomLmBNphPu3s7m7ORAJXHJvruvOzOqLwIAXjGQ8U8hgQIkYIWgvd3tqaj7PPEO7hcLrFFBcx5t06h2CVCK9HFaKFuNdpHNQUKVWcyz/diIeyFnMGfbmId+aDMF+DLMxgWIueZuGaD5iiGRtMDCsN8+mcz+271xynz9xSRbpg9Tk4tmmDmOkG/3t2c/P9QHYGqWleknNMxXDGH8U0igcAkInkasmw/dhntELe8KptI7Ewsp5kGfZ9EbrcCpxtmEgdZyhLIYTWMhs8TZO+wTJ9A6u1SHo72xBIoeyzfuYNk3SFGpAJTk67Jv3B6fzS5ijrVqiew/mmTLyMfyvXPydUFTH0oz3v/jJFn/gsCfsywCATM0zLJnSDwvJPBjCbg296Bx6kM0erV5bTWb56vBORipgDFK9KFxaiTNo19/fIc3/1uucfocD/tjC0vJEibBvP3rxZ1DFfpUViw0zjeTd4DmC/LTLzFGDpSh3H9+PJn9GbBUw/TnmmP5v7QmWOrDbOKhmmO9PqS012mIC0xktiJDtJBASKA2JCAY6SoRwLQK2e4RMGjVowU0P/ePonU9tyej5907JECYI/6hCdBk+2LfqCTSk6Dcc2S23gI012WnVufEMuhHDfMO5pU/PZrMfg/rhv9gWomRsmU0+5I3AVNwfAfigt8dH0h5mMcAzwj6ySUUX0MCtSEBQVPrj5etwpm2G8Cy+tEC4OWqztd2URqn9zUdRY3zGYf/21RmWWX/WsTHusDeZp1QyeiTZlrSfpaEUUd/BGiuD6ZmlfG55aRVnke79HqEhmmVAYGrTJ3OxWVqib6Sk5hj3wIwPz7Qm/wmkq9HHmYdrcB4lbqUgAFCP4MAoQkCBK1Fd4hsfUZ8hGlqgmvRG6/He11JNhmLLqIErPL3DvyuZxZ07XRkQ1iror2+BIoeu9fv0Q79Rp7rdHN0hnqYBP6gYWpKSaApcJbYL0GTIDgmeFMyqahhGmhwHA1TIF1fCyX2KB4VEggJvI4EpNwbwodYITAo+RVZtDNE2EqA0OECRyMsurXzCMsEyk37hOeaRyrVp5qn0bQBmlsbgYYHzRmiyybQMB+gVV6gvJcBP3chX3diacIQoIoypbw4ZGqXi4Blpa05e3eoMzsNSH5KpOwZ8jAHNKsAmOHEf1Fq8feQQO1JwHXqpcb5HhqnwTj+vZOvwwDYmMQo7C9FuXzyPUtobmVfkVRvimdeInWuSpCyhp91JRWmN4gp2uYlEKCJrV8z7BVyML8m8Mci0vodNG0Ufxb88UBpxpkDrHvwOcgj+0uiZOWSPbxez48uRQsJhAR2kQRk5OnEvdLBQdjla0DhHNH4kq3LVd1ewi6TU+4tApI3MRNb79c9zs2/5UBTivzdRSLd8a42LGiqYZpCchNb/0UA8zKkBfcBT0t+GeVW1Anwp0Y8p8bTZHKgtzU7RZTbe+RhVqnx2iPo56eEFj8LCewCCVg4wWsf/kPXsyZSD8bGULjXzHHJ6mOepdR4RbSccs80OslaxkhJuQV4armqmtKyTD7dwfBxbkr8DQua1sG7C+XVV0TI/gca5h14ZVeJcOtk9hYzdV8+HvovZ5nQh/rasl8f6cs+Jq3kXTRNK8Zr1okWEggJ7G4JmOZxCjdLJww9HazpPqxJ30C0foF9qItDugQIRTcf0QEwm/5yS+5somklQHAvtE5ogObmRqDhQHOWk51a5m0A8wKTVhu//swx/JpO3M4SbaCGhZvOJT/kEJdpJR8Alj+DBNp8r244LaOFBEICu18CHn691tY6svk9Kykafxp/zCQn5iXMpkt8lXbPI3Luj9zut/a+Bjdq2VrgecMza9lN9rsVtM9uQN19qA/KPSP0I3bi5dJvuF15bG4xu4dpwoCfLx9PpcolckYmqqviD3s/GgkU21Te66jBAphjPznYSwX2KmBGHuaPRBV/CQnUhQRc10f6Kil61dJ+Uu7pZ7w5Ngt3bZVApWgCBIFZ7uw8l3NW4gUAXco964T2dfQFaL5itjUEaDo5JC2Qj/EOGuY5UkrOo2VeRsucIhxb80hZGqYOeLVLAVOuygECBNQwf415JCdf7+W0Fy0kEBKoPwlILLCntR36y9YUFDSANUnyEkuKyXO9xMZQtMaZfJwoCD5H4gXzODXdaqZ1X5JtbAhtU80z3EN/PQcbAzTxF8ry8wg7/jnSSvRjSjFFXkkCSydMWY05mcjX50HO44Pt2SeU93ofk2we9NPRUvQ5s6w3jeeEBEICL5OAwGUup4BpMQa3IIMRja2YIe+sLMq9pHHybCukyFpUaZ9Oz7ZO6NsQvQ9IaxTtRxKoa9BMPkMmpCHWDwHMi5hkvwc0v+OS08q0kjI1TAEzXSwYnRcG+vwGDdO0kkN8b12+aCGBkED9S0CfofmRXqahSERgRK05nDP4G90n3L8E06J8nLnGqfVrilgPCeZVIJbxsdr2AupdWMPsa/g4k0jSH3W9S+c8sgLmnx5NYJadykaYlJ6ubNU/07eF/6FJ1hOlNe4M9DlDWsnH+A9OU8RWx3sK/y68F/GAkEBIoNYkoDm0eV8T8Q3VakbXSIPTzzkBiHmwF1CLblJzNnGQNw3GyNr21qkUMPQ+e9QpDvWSNESrSqCuQVMfpiZZNUwB82u+5tplM5OxzKavQJOsGqaA+T+dGkqa5glYf8zjihYSCAk0pgRM9fDyLO/+5G5wb3qRNLSllEZZNAGCmqwECG2oERaxHl9YSNqvgUH2ZU9XW4DmhqlZl6BpcM8whewkLjDgR/ICzR5OyHSi2iCAor/VxCLTTycBP8cHOxJQqmFqmh1AwyzK9FL0e8X9QwIhge2VgOkeJzhQa5Ga5pS9l/1heGYhlSnUOlYG4Yq6hACqS+sRwH0J9iIP9aNUTDna/5cKLtv75rvrbnUJmtOA5m0A8xsCfr4BMC+NzCbuRUGT+VBqY/5Dvr6W9ePwfw+z7C8P96W0kqNUL9FP4CSNFhIICYQEjKjtImK1g7QU94UeDtp/eryWPQC8ukui3FOztKqTri2B00P/7NIy1VmWstbmwR/KnjXyaNUVaFp25zknMzXM70gruQBgPkXjXGLwW/Fwl+nMNpxbwHQRHMP0cpa0kk8o7yWnrD4M002ihQRCAiGBXAJVAgQDcNrTwbqVsmKG5OTpIOPkmKc6mPysKAuV9/Uc7/61QmCSxPJrY/OYa+mHZc7Y1OTC9mrUVlegOcFp6Mq6OfYcX+VXdJB7mHVla3QCpsnL+2Ha+GB/d/YLNMwzBP0YJRtBP4263OK9QwJ/WwIVrFKCkukoHvQrmEdVAlQAOlAFyzj85xqnEb2WM1tkQ/P76YWl7NfHBwM0//Yw1vYn9GHmJln9l1chLXjMBJsmEkw/gDlPZTUpqgz6UcPcB2CehaT5PfKdZPoxLyvSSsoaid31nLU1o8SYOD/ZOP0b2hitISSgD7GHy8Ag01FMCdFcal3MtNexrzXxc4ney9A4FwDLcRQSOpLk30+d0EGuPfhcjcsQxN1hi+pLrQ16XWiaT+COvUFisObYryBffwJxgaeiFIlWHl6msbUeplUMjmNi+Tm0eHLJngUw08kxiAtqbf7XTH/kiVpb0xgneG5sAmYrm1KA5kapNML3apr74aAWRAXQQXyeXxCn8e3T6QRg3bqcChaEs651XemYBKxvk43QfH88BVr++thA9snh/pTLmX+m4O7UxO13LWgmBzWDOMsJ7Ba8jd9jjlXDfADzT9ka5o+p8Zqzbib7aXKbPqRaSU6+HtR4NTHfd6QTzg+1yFVAcYU0guXVRa75dPmz1bVlriWuBYDzBdBEw2xuaseXRS4f4NlMEcaW5g6sJ518bWdDa0s/55zfMCf9HRnEHXioPs0e7LHGY6ysdmVdBAhJQPCYSNYZtM5lYjWcWwKbRAVFNLVHgdn9VkVkeX4tu20OKf5VtUw1zv09aJ3EabTpfG2AtmtBU7PFQzTMW6Mz2Pun0DJnCM9ehBkPdg1ORmWOn1tirmH+bKAje5co2U/RMt/Ch6lJNoJ+GmAlvfIVMbER0rG0Mkvy+CiuhBE4Px9gansCddkMnMhTbIqzmPXn2QSXf3QnNcyW5krWzNXZ2ktZqW5M/Acg1T7ChrqX6hRD/LwHyHRrK1rv+FHX4i8lSUAtTnAyFuKz+T7IDpqzq+x737PnWWxCVrN1ZbCwHgmHuS9VnlwzAi6g8Rpk+T573c+PDDQMT+2uA01BUdICiYavoVl+9WA8Ea/LYrFEQqT1MMvyYXrKq+oQmDB4rpRTb+HD/O2xfjTMHsKzo7xXYau4hm+s9qipVY1yCY1yZV2rnFsagxT7cTY++zB7Pns1G527ha9qAtq0UT47k4Dzr0AzaZZdbIpdEGgPom0McMI/SdHgd/h6hM30MMC5h0NiJ1qn9Vchy+CrGoJaabTdLwE1Tjlg1exWCJjYj5m2A4fmA5QE6k8k/6aaoMBWlF9xo8Y5Tx+mSUO58pz8d7IVjLQ91NvJ1ZGqt9R7oOOuA02d0mqXtzHJatv/nhzM0dnlrAn0EizLNBAImBIXmNd0EmYf00oSNR6mWanxokLA7t+wtvIGSytzmLKmAciHbCpXOeA9AhxHcCWMZPNLU+maW37O4W8M7ZOUqFUKoK9RQCAz2OIF8yya5srKIvN6hs/4u8+4zzM2y1tsnL1sUl5DHNj2Zr0dB6nD+j6mslMc4ozS7tpK9+N3algC/ewrspl9gLYne48lxe5iLjVQpyySd614KZcT5UXSmItovC0tI1Rp6snewyUleNZz232gyUDdIg/zq4fjAOZcAk25GU0rKUvD3DghjJZtYUs7NdD5AzWexAVhkt0opcb6XtCcxQz7bOZKdm34v5AqcJFN7S6b3PMfBKE5zStvfuvfX3RNiaEYV5JFY6HKo53+7s/y1qn22XkCV8C73KMV8+3eqsYRoJmLqG6+CpoJOJko3Wig1gEewb84zNW8VrxbKtc4Bc45NM5JNE5dDM+k/SPG5CD+zQDNGplu1np7ODmHhjmXfU2ErCw/lrOxFqah12XGFqbEX8BSM8QH+C/VMj+GuOAEGmYfaSaNFElWI9Njx7ph4M4KfshlgHJs7j4mV67Z63x/JwHl6OxNzK/DAB10ZBsmqSD5IkC+7CX8nJ/Pm99vBFwSEgDkJ2i1y/iZKIE3+W021HUmgWh/56HMS7Ot/tFIXcmluLu/9rLPHIdyb97TExNkb2U6u0+MhzU5pQotYw8SOJ2I5sKPrbvLum9LubeYncRNdZDIX/2gRQUp7dQI7hpNUx/mddJKvgMwdYBbBcDJYbm3DXtRKXIELzGpQa4MSeM7TI6/O9qfHR/oyo6SkOxJbOOGVkqH4iE7JgG92qv4LhcI5nk2fZUi519mj6b+DIBdwkQ7Qb8wuZJG0sSVNpkt9HQjYPrrTLEfN6Ju55eHuUaSn7StuRtu418yJyeyYwOfYLrtYxOV5zgqVfxYcLv3b90dLZjlO5OpVvIDvddTEKybn25Kr0lKRTf3Xfc6gzInV6AuHZ/NFtQ8MR1radu7TkIfoFn0SLxwf1l+nuPw1ulsHuZ1NE3t904JLwdOoCqjaYrVh2nAz9FuyJUxw2rHtx6mPsyoVlLGKNTGM1KQD9rlHEE8o3PXAMyLXNcxxd6Ap/MOgDnKZoLJjKmZT8/86+u8wWZ+x0OcwKzWa/rKGukrY/M3s+aJNrQA/KDLo/g5T6N9nibStp8+yW0aQUKvMw619tlUC5NTmHy1RyBSn6YG5tzqagrEeQJwPmPPVKmQfL2o/TG/bxMHR2NK5Kp9RjrMDfysvZ1t+OtXM6s4HcDHmfq7mclca4L+if7UvKY5wuCfQ7v88+OJ7NLz2ezeFMm1DFBZxaM3ykzAnMGOP9TTmn1ysC/75aHe7CxRsrL/O0GjNY4EllcXSB95ThTs9ezGyP+JFeT/QNucB6AWAC4Dd9i0SjSBOPucglUrhwTbd1JKy8TCXTbQy2idv8reJW2ltYtkeaJrAzTrY652U7hegvd2yN0HKq3ZYQDq9/fGs5uTC7iuqlH9Re9MTnPjSTTTjuIyWxnVp7+SPWWv/qczezmsmU/M3NyqqaXGhqpmQVMNU8C8jIYpNd5NNMxR/JqmlZiHWWY9TMO5wUpC/luyg/gSJCx4bx+FpDHNWmuuk0kbrTEksEiu5cKykbH3AKOraJbf40M8h/XjYTVAB7O94JWDWBlSefG8puYpUcIKwD5FPqhf9S3pgz+waHTtO/g5j9LP0DjLGJ8in+G4eg2gca6tdaaAMQkQ9DFOsYdOsmfmBAi5Zrjd/fG+zvdqkYq1VMj6MYFBTMNsb89U0nRlRFPrrIdWs6CpSVYNU8C8iC9Tpp8lkGsnqPEETGvcHWJifkIi76domXLJHiQ3KQCzHpbB5t9BwBybvZs9mPhzdmf837LHU99hon0GMFXvkQPm5u9YzCfZRxN4L69Osokt0s9pgoVuZxPzv8je3vs/cwDcx2ar2SwOfMWMQLl3bUeV00WkMrHIhlVBq/sG0pdvAc2c8EVgK7IlwwrPV8mQcm95ajH7+uEkwUlL2d9B8h6gWZD0jZI16EcfpiZZNUwBc4pBaGdHKiMqLH81B9+9UPL1A2iYapefA5gfkIu0j8iwPuz20RpDAksr82xGc2wAt7OHE9+QG/dHorm/5O83qr71dZByY3pR8ytbQvnz7YumYn2rS/OC532+X8bvdQitcwhz3jE0zsNldy+eV4AEJEBobZdyjwhp7t+NudYAnWmCg57PLKWCFmqCAluRGqdHMJ8j5Z6sQeaRjqHxakY+AB+3plqtc7uZAKHlX/7lX/5X3rNm2k2ICy4+ncrOez2DGo9TiicnB7t6enZKlNOW0DAt73UMn6WlvayH+Q4+TMt7qWGWCeDlvHE85WUSmFsaxyT7AKD8Bq7j3xMh+3XSMDWDsl8loMxnZg5aL7tX6T9f7xhTGVNdC+tJ/ttVDoMC59HSuxMPLFYC7kuSvcsF2wdYSQgzPGc+Jfsoc6HoaFanWzLZ8o1WOvdvAXSMvVzCl/2A52620NWEeVbzgQO7QPSVeZimlRgla9CPPkxNsmUBVE6Np4bZxsQz4EjQ/ByzrD5MTbKhYRa76Gvp7lVC9RVO7MP4Ly9nj/FfPgY4R+ZupBQS9oCabgK4mxhLDMAkkA3wX566gL/J8k7HyOU8y6m/K+Vx1vSLROc2JQH9m10AZTuHesd7AAvZNEtJ8A4AAEAASURBVCkgT9A2n5M/Kcl7mZR7apzu7TchpBnF5abV7khfR5qTFbIQ8n29KO13U0J7zQ/VhKYpl+xdcnwuoV1+8xjydXyYqfApP/dUZNBVWUJlnuG/rJb3OkMqyWdol/ox3yO1ZB8nJAddU0i0xpDAAnR48/DDPgIor43839mT6e8AnkeYvuaq2qWItFvael9XE1UfpjyiaD0kSrnX3b5nt7xF9HOTEnDP7OBU5x7aC5CqeRrdamqIh6miNc5qN/9SfUdt0718XsJ3gLQHQFcjrmqlu2ch7aimmaJSEeQkAylxgeTrF2H6UctUhGp5+Ulkk/Nkyx/bqGGu8nDT0c/AuPFPJwdTHuYxIr92s0lhy4Jp8F8UMCepRmLAz42R/we/4FM2Gys+7C7BuEm6pszjXFyZYs3dze6Nf4l1Zy5pmeZxps0LR0hZB9TdJcHd1dsElICSzEH6OY/hUuonkPHheulE36YMjVO2NvfWRfb5meXllA3xHJJ3syOs3CJouq+ii6S2G+bejoKmuTyW97pOtZLzkK9fIb9HajxzHl3gZTbNsZb3auEodAYe2eMQFxglK9NPIi5w14nWcBIYnb0DuHyVTLPWwNztzVnsaX+VMmTTiw+y5plmKP8+5GDwmA2shw2sn7UXc323j/PG/lcAJvews7iXfndiCOCaSQQEkiAYXCl3d9HNOedpUxfcCMGeN9jr++6PJd7cM5RQlK9W03IJXXnjV91Z0ERNt2LJ12iYl7B5X+ZqYxATi8Ubv9rr3UCfjzyOFaLONMv+04kBfJjdgGYlRXqpXURrPAkImrdG/xs5wtcxKe1+0HQEncsU2EuguYDWOTp3O4Fmb3YA0Oz1E4030HX8xlLaSYBwdgiSd77vgYJvGE3PcorNaHjtJUCVM8p5ZzDSLBrnKlG1C7AYWUy7BzXTQtayCpVjMn6zwd4R0JxkwKoFpGdTAelLaJrPie5KguV9xKey1PQq+TqmYCbTscH27DSA+fND1TxMw6MNjfYEFK1xJGCKxsziGHmNo0RvXwNUbvL9MwRACbpdPhXy/hskohPC4tfPIWm48fz38NR+ju/rABvpjmwLjTPBSn7TBETM20TOgkb33lIPfvlVImtbCGqbz4YhInCLa8knxzb3b+Nenij32OH1qz7iua0tM8y3ZlIKV1Og5W7I5dyR1WEe5uVn1MIk8EfAvOmJh0VslGzZe5Ia5hI7yAAa5nsw/fwG8nWB0/Je+lMDL7d5Be2C262sLsGk8xQwuUHFhluJVUcO1+amldLnZ1Hicp15WfTadyQuAy1kiAT0XxX1yLjvDktAAoQBiPvPDKEk4GzsJ6/zD3fHCHJbqNbiLGHzVTESm1NlFFxx1pKdBjBncNVpRg7QfGGS6Pwd054NUMr0cx0V/Tm5O6aVyF0oPV5ZLQUhAZievo5g77e81/uQF2j334OGGfUwyxqJ2nuOvLJql3fG/oCP/Sa5ZjOYM6vFLAs6jO+IEKrvsooW/TzlbU4s3EcDGUl9aSOi1tqc0epHAmqc8r8aSXuE1Dn9i2NY+GRaGyYdRF9jvgPnX7f77dU6vXfVwoepFo33KYFBldHmbC/ZCVr29G/uhzxGOPCzGzXV7e7PVu5X6qp4SuTWhaeT2QW0zG+5LGNj9HsnA1nUIL1MKJKvG9F1DHaKX2CO/ZDUEvMwj6BhmoAbrXElsLRqUd3z2ZXh/w0fzARzcykFz9SbRKprzhzpMYjm4dOdv58IHNhas+6mvWxgpW4P9Sbemn0f97d+2My0qGlNOwJI/R6N89nDiR9cZEV33h1WRcnSeuaR3hmf5+A2lj3g6z+e2VMNvuTfy8qeeJ33LWVVeKIxyfUhZAXyyF4h4MfSNbOo5WqXCq+spoapSTZFlOHHPIWGKQH723u6yMPsSHRPZfUlnlNbEpDIwJJfsxAAaJ4VRJyaXvWkYSr1/H30ba5SSkyTtGXOJJ5vb6lG0WYUro5WfxIwRsNLkpbjvJ4kA88gPpiEcm8Uy59ap/tk1ZRazN68UeOU3GaaOpwPJtU8V2Bc68j2ULFFzfNgT2fNHVhLAc1ZBkOz7G18l5cJNb6DDX0Zk4CAmUKRS5yXapgm2R4wBJs8TKnx1DAPYA4Ik2yJA1GDj6oCxzg8nc/QvmbS4SoHlxrs7rZ1yW3R91xYnszGZx/g29xL1Ywj23b/uFFtSkAtToIBSd4/O9SfDZE3+SXa5lNAU5+jykzRdP7JpsdzbAYH6a67QKzLIuD5KdSlFrJuMcS3hlopoGlJLzllpVK6B2COYEfvAS3L9GHmMs83CPkPP9rfm30I+foxTLIDTJhojS0BfZlTAOYIVUzUNjlfNUQTMN285vBtDs9cJCF+L4fIsw3x7o38kmqbFQBJggGtbUfR8NT0LCJt4QyZ2pbXNc6iUkHUOIVENVtZgrRI3gAnRvRzogGfoZrUABpxJ4GatcLEloC+6IljEu05ytTcH5/DAwxRNIBZtoaZv2MHD+4n+OcgoHkaDfNwXyUNTv7v8bVxJSB5wQTmyeGZ69nc4ugPgQj1LhEPkh7255af4Db5ipzNG2gas/X+2vF+6xJw/AUl/Zy6qX5HjvpZwKoFMJ3DIsj/hTf7kMzGgOgUwP0IjfP2xFx2Ga3zEWkx8wQM1UorTNPMaen0majuG/xjbibF3RI9XpkCsC950wRr9NghzLHHMc8ewAkeLSSgBJZWpPd6lFJNzNEUSNTC6rnl7+drzi8/56T/nJy5zxJo5uum1qIX63k8duLdHF+p7GDZIziIVDsmwwLB4jfZr2VoE66Kngu5xmlgkGZa6xffxZ13EdwQTGU0MtPBttPzsTjQ5OWmycc0/0bQfIrwJzgt+NqlqLdKd0PztGSY81FOU+9wmpKL0WCgaCGBXAIraJozi48xTd0EPBpH0/zL+0vfwIU1yLqba5I5pBVb5yeHXADxFdM8wUEDWXYGN9o74wThMBdm0PxMS9E6WIZ3MdGosjUPE5z0JypetQGWh3Gh9YLqbRTL2CkrZT49CkMNlTsBc4QXt2LJMKA5BWjqYN6JJmAaBJRMEOtch9ryo4UEcgmsULB5dmkYv+a9bHGZ8Hs2CTWxXBvLP1evX12a7I+sUUAT0oM1ookl3IvWOBKQ4F2X1QnKIZ5BsTBg0tgTC1qXsXWrRRqA1ElazCixL+eGiYXBrTeGAqa/U9/nTrfCUEN1fo4VqEN5EXXbE4onBP7fkaaoBc7k/IYJIy+ZsyOdiYfWlASqqSZEdMNOIq3c6tpc0rJqqpMldkbAlGfXwChlE63xJCBHrRkFpn24V+5E01SbcETlC2vlOCAqcO50K0wagpSRWKaaWD+tGQEInDtxarcvitrl3wpy9+DT7MDxXVREGI+JtosksAbDxjIgsUSaSQLNrLFBcxXT7NLKHJegufOb1C6aSnXTVVNRjqhpkru+Y6l460qlODJMMOkoVktz/ne6FQaavpiadK7Sq2HulJb5opCTya2G+vNi/+Lv5UoAwxNWiGqCP9+V+/AafJqa5iL+3SU0zaqJtgY7GV0qVAKaSLvwJRpVq3KxE1AlXghQ5vQLnCpfmol3uhUKmjv9cvH8kMBmJKAJyOLMXmqdjd6Ug5qmKThxiGjM2SDxQScxH5K8q+2sairlvzKb/k26QcIFhewETbRMXWw73QoFTU2hHcQvyzjhASFtRzvwzp5Y8svIwCmcyvPUcquFAdjpCRDPVwJV30kVMHdggtbYILg5Vg8RK8mnVGPdi+6UIIEcsHJ3mlhV9sqo7tnw0/JwA0jVMmsAM4vL/vCFZazvwqHsqcWiSqZ9lC34fH7ZH32qVWb/JdJhakPVz/sXX0MCIYGQQK1IoGp9qWp5O7Vn14osXuxHYZqmJ5UK9vABQpa1jbehdapqq/I5CGUPhHZ583/MOXpItZVRypTVQiTWiwMSfy9fAtbYaW5qwSLSynemLhe2LMp/uS08sSoPOEmRies4WuNJQM3O7AeVDNM8nAZlz4QqTvjsarUTMx9qYToWRm7gy/WRKGsy6l54XaWuWyR0WMFrpi17W0rpLghdhosrI7Mw6VeyeVXfaA0vgSbAoa2lg8tSSV2ARQUz0CIHu6WGlI11NNuocNLaTE3NUtLZG1LMNf3S0taNQWU3yX65wj7ZzM7tf2W2XNvVvWcErz7WlhpAzcJAU83OsGWvQz3t2TGuZU4tU1Q80Tat+Ms6xfqcPE90En+mibJvQRFl7s8+6mmah9S6Q7lIZU7CeNZPS6C5STLoDtwJgGZLNxaJbrhw8OtRLitvNbBW864U/rWl2TXRRVJ7JWmbhT8wHlAzEhCoVCWm2aflDB8BOI0DSUpH2b1MIJElQvk+cKSbqxb26VIUPquE/+Jwf/bWUCUJQNV/p3Q8n2s01jMmxPeQyF+HcUIgjdbIEtDsozkSbbO5By2rL33PNNmxebqTo9HS1J5qaqp5q3VGaxwJOOfdn8fQMO/A/fqYfVI3lq6t5F4rURTGwkh1apWTg2DIHsqE1QKLWykr4jCk6M3URrPI6S0okUY5zbSu7UylE6OvtMo+m17MvofXsItBGUTbHGJAojWmBJrQNNkSOE1rou0FMPrJUZxJgFmuQao25J80zdYe0g26aqND0YvSJKD/sgqaSwk0n2CNswlgZbc2gZrnDsI5exAM2cM+XQvlwUoBTU20B7PO7P19PSSprmbXRmZSQWo1vHYEU2ZdTcfexF0B/AalZzrwtbZgezANxYHZCwNGtMaUgJrVUOVkdqj3Q0xTy5ioHq+7EepXHh4i+T+1DjTsnvZBqknsh24yDpH1O+ovf7P77IlXh6ez7ynJJZubAOqeWRZ7mubhBSbkIs99i4or71Pn8z1wYwDgrPtAoI3DYkkXC4pao60JgajqP5xZymaxl1uUu71EB7P2aCfBNEFJ+jab+Eu7kb1sHabIBGhuHLnG+r6tpRNC/yPZvu53somF+ym32LlS7y0HTrXs/o5jWF/2oHUHaNb7uP/U+1m78ov749nNsTnWwHIqQq3GV1bzAGdZsGnMgXvgvf0FFsq3qErVj+JVC0FAyqEUTdNTipvPILbpE5weZgkIegyPoAWhLR82B4DpaC5DKHnwURM7hVPBaNprVCpP9Rww0+W128Jc6/RorGYwUF/nQRbryezRFPWRGqS5UbFPEZ04yLu/RXmogykwqkFev+Ff08DMJ1Pz8LsuUr+SqiIApmW51DLdk8uATM3CzkG8dpRt7CBVsT37cH9PdmqwK9uL60xmonzv3ukBKwU085fsR8VOOZukoSzCyNOHIC48n8lukDPZAaqWAZp5XwRpwdxo3gsjK9kTGPQXZNCHRu3d/b3h48wF1UBf20ix6O88hD9zmnk61DBvrqbphtXVtpfKFh8gg2OAZqVh3r/RX9RScDeez2bfPpzILo3OZNeIOxFIzTiwIHUZjemXLTIR3ZN/NtSVAkfPomGe5qpQIFtlplZaqaBpuDDvnxy6mmpdqGqd+hNNopVbMIEZ0in6VOH9HYY1OuGkmUDjNEjJOm7NgLpMRtbeNNRZZ3S0+peAAUHmJ1bQuPo7j3LCfYc5+ZzowdFE5eUsYNrUXfOddJtU2vpZmyfQNPcBmmGerbuBfuGFpBI1F9OgyEv4MVVgnsxUo2WdD1UfYrETPtcwpVw9hEa5l2AffZjv7evO9hNf0tVGmkmN7b+lgmY+Zl2U5jrJacJBsVD1FFreg+n5bAKtz6Agg4PKap6kKg4K4Hl/iiLE2NJbAE0137dwQuuPNbYyWiNIwIOURAfdBB6czo72/Tp7Ov0dpqpJXn4pHejqUQrObpdApa0vG6wcZ87vZQ0EaNbjWG98p1n23lujs9nlZwT+cF0bn4Wofy3Th+kWXEY+okQ3S2iYXWhTZ8GEDwDMDw/0Zicxy5pe4rystbYjoKkwOlqr4T+CZipSPdwEaEIQDXgl2iYEqbyK1jg1CavdLvM8/atquxdbpzFPUGOR05bBQWqcRgDX2omn1ibTbu9Pda5ROZ4o2r1db2VLQ5y6V0ehXLzKfFiqRpkyJ2wlnuuqD9zmP5nu61GzVrMYYJ73JbOs/sxONE7TTqLVpwSsGGLmwl18l0bJfvd4KrszSSogbjIBU4Wh6H031zDbwIL+zpbsxEBn8mF+fqgvO9LfWdPusR0BzXwq6t88zelCMJKBZYJBGyHMeRRTqYBZlj3d/niq6qQf0i48QuMcg9C9RVMtHdEZfSr1Uyt/tHqXgAFBg11HCT7ozIZnvsoetLZmC5AD6U5wYjo3d3vzVXwfNeu+jpOYZX9Gus1bHGZ7OES28fN6eMvdPkrF9F/AlNTlPIB5AbPsdTRMlYUOLGwqEGU0554+zH7cYO9i0fsY7VKz7LGBCmlPtb3P7ihodqKSH+qz0GlLNipYErF1DXPBJBpnKgPj6HkkphV98tEB3c6EUeMcA7wfkNS7h8ClzvVJNAjxvK1Nv6xIGq1uJdACC45+vW5yFoe6jhHufiDTQDu7NJOsIA7/bp0B68spjZ3fy4TU33kCU/SvMM2eJodZt0lomfU4uZcIdJRT9gkFK67gvzwPI9otNEwJDMxkEDSLbjlNn3EiXTzvAPSqguYnB3uzo2iY+3tqP09+R0EzHyCrobyN47enA3/SnTH8nKvZOKchq3XbPP2UtUnlGqfPfAqF1J9wls9wCrOpcR7u60yVW9IP4o86lUDVt+lBal/3J+QX/y/Zw8lvsnvjX2CunS5vMhYkXY+hAqbg397Sku3rOUmU4q85KBzgZ7V9yi9IJA1x2+eA4xV8l5cBzAt8vQmRgVWfOtnsyspc0OWlD1M+8vcAy59xfUC2wnE0TONHdkOrCdDUb3isvwITS2f2GNPoAzgPXdhzFopGj3fzKqvlGqce13G036frNFLd2N7thQPrZRBTmf0q6/3jOWpfjjRlsbgGO89mqwPtBEhwQp++SqT1Av+GM2FdZStxam7L0OSAKfK3Ugqt0kZ6VeVYdrj/fX6CWTZAc1vkXEs3MTvAffSp1KFol5pkZUN7Zq48+1h7wRpmvlace26iArRRsmqXssRpkt0NGmY+pjUBmmmLQpBE/Gdvc/KwncPePvuAyFpMtcUbDXJx/Pirg9vBwyUv/hYfwKKjzs90Ykse3EeAULT6lkAXJlrb9OKHMKQ8zJ7PXCGI4g4pUmNOBfeAXdf0J3W29iXmI/MyBytnOQA6l3dqpe06Ee6qDj+ZXEiKiGkll6AwfYgFzRQ/sxTKOvi7d8r0cwJLnZcpJW+Tdih1qel9u6nVBmgyeJpDPdu/DwuEwNmByVaO2rwI6vrBvlTZylFrSITBSbfRgMcBcIdXc4a+zQDNUodjRx7W07EXt8FeDkqWtFtBO+siaGIS18FYmgu7ETU9+7W3DGLZ+TWm5/+RA+A7bJ6RYrIjE6yEh2q5++LuWMrDvMCeOr20nPyXlkQsoznfBMxJ0lmsVvIPxwezdwHN04BmL3Eju63VXI89+WAJzY5jrv3dqaHsKvZ3c4ms67ZTzTDsbtByFj/rRQpYy1frJDBVRn5EU1Ki1bcEZAg62PsegWJzmGhnmaPt+IMec6gbB3Cq/sFaloDapQdPK7gMwvhzoOcT3uejRBkoqUG0+pKAJlkDfp5yfYdJ9jJ7qMQFmkrdz1RSim4+Sx+mB8vjaJcH0Co/P9SbWH72sm+2ldGJAl6yBkFTC2gToNlJRNdQ1oPqPoGmt5OgaepLFwNsTulFT2qApaZbzRtqnAGaBczMGrulkbQdrbgOmAvLKxbmhZsTM9fs4niyagqctdwETA76zNdB/EkfEkPw36VqLjIARbRsLY/c1vqmD/MhGua5R5PJ1XUFejyDftQtJZApY7qKlwb9qAgdh0/2t2iYkq+fIX2v17z3AM2tDe6LvyVgOqDm6rSgyp8ZIhiHzSk5sgnKkWC9erIvY9irvXPQnWxJu2TnGTE1BvDUVGvotABq5G+Ya6vyqsc/ZcjxGug8TJrUhwDQPIc7NwRyOKHam18e/cHHyXSomfYXDbOX1K4D2b6u90ke/4wo8PeZr4ejZmbNjNT2dMSAtVGsco/RMC8RIWvQzwO+FzAlYBcw3c+KbDlxgXujUbIvUuNJFCMB+25tNadp5oJUg3NwTfMQlLrROP9IyZrnaJ2twKrAWXZr45nW3lxkAl7BTDtMX0xGWWUynqCfAZplj0j5z5Ni7mi/JNK9XANEn+7NHk9+TaDQKKBqZGD5fXrVE3MNU8A83v/32ZG+z4lW/JxoxXcx1Xa+6lfj33ahBMzDvMGB/s8PIF/n62UuiQtyDbMMqPKgJnGBeZimlRglK9f4W1xmSuxWs2w+HWoWNJN2xw5k8dFmQpJn4KV9xgnKItbjkA9oKvXA5CSopgjkr1Tc11zjTJR79GcJv8F1zB5ulGaUDkCA0MkJytqhtcTKX5xEGu/O1tz0WlszHYp6sGiaHuBW4aadX35G8vgwQUOrKWVK6YihBR/sfxgEAfLFVmkbws2xB5D8CLD/BSbZD0gxOUHaVOOUPntRJvX490SNhxVODfMKkf5qmEbJWhPTOViahsmzEjUee6DEBeZhmlZilGy9KBU1C5r5xPZk0gdwnhgwanEVjbM5+wo7/ej8LOwlBmA4JcptArXOdHfG2+MSzcOZy88slOrk8Gqxuna0upWAdHN7uk8R5d1DGbEB5uhBwvr/yPVv2fLyAsBZBUsBtcwZ6jzcCJ4Szx/u/WUK+jnS/ymH0COJW7ZuB6ZBX2wSwLwKWF4BLC88r+ZhmnnQyj5V1hx0zuvDlEtWlh8viQvMw9xtaSWvmkY1D5qaab0IuuJr1dcpN+0I2qaTwquZgSpd42Qn1HZvsdbn9KWChikt4M8IpbYE2iCWL4npQ+N81fTbvf9mCTEvo2q9+qjDqcVheXWKUncj2dySNQln8H1OJ61UMMtbDqJbPe9tBMX8vt5Ti0trUzdzroIZzCoR3QT8/IqKEf9ITubb2RDFtTsB+2j1IwHLe1mt5A5lDc8/JeiHSNn7aJsSFxiomIJ+tjrRNikm90HnoYE9ViuRfF0uWc2yMv3sJuKCzbxyzYNm/hI6jgep5m0E4KcMhieoK4RRX+USNFMR6/zDJX11o1LjdMLcJ4F4mvQDI2vlDjo9VGGjInF3l1BDlSSyunuMtHMViAKaKKl1Zs8/wVV7nDD/G5Ag3MWNcIvrMhaSyaR5CnbuX1WAezMN1FO98y4HUO/bRq5lb8dxCNhPZHu7T7NZAZSVM6ybM5hj96Q0mbobgAZ/IethmpJXZfqZoVrJfKIfdT8sywqX+zCth2l5rw/JtZd8XS7Z3UKN9zrTaPeAJtqbplqvD/avphONAHUN8+gqEWMG5DSxg1Q3JP8svlVP9lWNU9Lj6wBnO6etXuzG+jYFzHbyVZIv1F0tWt1JQNDsICiovaUnkbwf7f85VoZz2YO2c/iXKvi9R5KPcxliBHPn4JMCOJ2tmPRFvS206q85nzieQaMl9V0rV2erOZhnActPOOF/Rj7c3+HC6EQDqDAHw12wBVHX7K+YTeB8GmbfsR6muZhWK0nk6wBmGcQFOT2em657nFGy1sO0vNduo8Z7nYHeNaCZv5QsPTqYNXtK6m7dy1sA50NMEot8b3mvsrcHt69Ug46vJhT/K1G+krwv0J9TmCeGOIGZlxStviXgzHPzsJBzK2A11H00OzLwYTY5/xjqvWeUvntKoBCm22XNtyNooOR4bqG1an4FqDtbh/Dx70v+1L6O/clErA+zr+No+pkmWgOVysnK28KLxK9sWQLuMzeNjsWPKeWo9TBTeS8O7WYblNEkLjAo8ggxHG+hYapdWkDaepi1Xt7rTeSz63Zy/YV7MXv2drRlc9jymwEm/Zr3iBSb5/RVFtvFRqGrcXYwTwXOZ5z8bqFxaofrR9Psor/6OgM0N0qs/r6vRnBXSd77K0cyr+XV9yB6/w3E/4/JNb7KgepSNjZ3O11LkCOsrG0RNJs60Wz3EHh2Agq8s/j73yfQ52cpMKnSNpA03/qTcLzRRglYsUTiAqNkr4zBmEZchaW9yijvlfdDwDR3XR7uXx3uT/EcJ0m9U0mo57brQDMfDLCIkkbt2TtrvdlzCkZPkTspi/802uciA2lQRlknrrxPftXxLuX8+Nxi9h0nwAVr2AHseqBM6u1u37Ui9/WivYYECAPDIqJfZwj/drXA8/6eM/icRpinT0g4H+bAJ7/yNCbcZa6VdGk9cb60YFJtZiOsarCa+rtSuktn6yDRiNT7JEfUvNG+jkNweO4HLC0gXd8b1muIvy4/+oCAH9NKLrC3mIf5CPBcKlFZMOhnCQ3TPfYY1HiHe9uzj4iQPQPTz36UGYMf673t2h1cQJT814GyhNgy16XmGWjuVtLfy6xCvnGSWMja5N0RJrP+hmEc9fa1D63zEBpCgOZGadX39/oa2xjz1o4Oxt1cybeBQvzvAOQiQLm0MptMtuNzj9j4jLZd4GdsgiuUHuO/9pY25lIb88cUJk38AGXHEIFH/eQCD6af6dMUnH1Ws2WCdDBFq1sJ3Bmby77C/SNpwfdc7n1a17RyldE8zmnRmyYi8xhRsv9wdCAV2LDIhntbSd0o41Vf+oxdC5p5EI6jdATw/PhgH2w9zUyi1ewxplq/LjKwZWuc9svpK0uQp7JRWIPOY0JZ4+fv7zMhPkMzaE1a50tHJf6hLiRQNdmuexQBtdzXbgBFKxrhCpphM4DY3tKLqXaR+bLE/FjGrAtVBqf5FgpEW/OyGQ4sfZOVtr6UF9qGr7Lqr8zvWBfiipd4iQQsDDEM2fqw9TDRMAXMpGGymcDkqCeIq1jQdC9jS0u0ofLISuTyMRpmKu/V08FBzrlabB9eIp7Sf7xrQXOjpGTPt8SM/k4LR7spPWSCzVACR3OpwFl2c/6YJzUNc9A5ottGyC2V+7FCH40s01QbrXEl0NxM0bk1D0+wSFFlZA0WIZFSTZTpm76vHsCcvEbIOo+r4KlWSUy2H4rWABIwZkMN8/vHU+wlU8mHmfLTeXf5XcuYCU5JiQsquAvOsH99TsDPewd6SK3rSlkCu5V8fSvTpy52bs0CXqeHVpNP09ygiiXFsP+rcc4R5iV7kLmdZbU8R2oJbdf6dfch+L7QPpWt4a+yT5psTUmxr/lny+pbPGdnJVAFQ7REpiPn80SSsLM9iqfXogQkLjAP8z7VSs6TUvLnx5PZA6xokxzE1TBLo8bjWVLj7e1uzY7ixzRP3rQSlRU1zkYjcKkL0Mwn/B7yhD453Je0TlNTzGW6g9N8dHExI/geTTT/ZHlf1XIr9MVc0pskIWuu9XTYxSR00lXaOgM0yxuOeFJIYNdIQKYfiQvOAZYXSC25Rh6mVUz0YXr+L0MF0CQr+Xo3+9U7EK7/nP1VAoPjgxUsJPrSd404t62jdQWaucap5rbAKU2NboFBn1hEs2PgDZHOQyWK9gHkI2RfwEh8VlX/prmlBynA6iQ0j9NUFDXONswejXZiy2UUX0MCIYG/SEAfpm6dB2iY17CYff90Ors7NZ+NcOA24KdMajw1TPcq6xtLvv4RbD/S4g3WeVrJX0bjr7+rK9DMX2+gsy17Hye11UY8DUl4IPmBlcvVQPU1lt0Ea59tu87pUW7IMQBUB7oE7+Y6VYLkPckn/ggJNLIErOJ0CXPsZQDTPMyraJj6MDuJhygrPkO6Un2Y+3tg+dnfTYmvnpSHeaS/kvbVRh6fugRNNbeudllT0OYoJZZo9pgAankGW2hy2BHKPZ9OPyRAsDCsUbQWaTUyTXpAo8/UNsPH2chLMt69USWghik4yvZzCbBUw7wF089TDthqmGUQF7g/sT0m8vV2rF9HiJT9EAVEDdMUv3onLtjM3KtL0Mxf3HI0RneZcGuSuL4AJ+AjImulWTcwqHydsxqQZEqdScp/uDeBY58Ug9QRClkDpGrH0UICIYHGkoBpJUbJWuJLH6Ym2VlIWwTMsohacmq8o5hgz+C3/Hi9gLQmWZWRaOzf9SyEFFG7pxUuRAirQaVOQPJ7as09xTewAk4Z5G98v3hVlo/T57TxQBIOsieA9x0o9xZx7ndjppVkudlkeGwwVV/oTkB6Pc+IeLeQQO1JQOJ1gxb1Yf75wUQyyV7GhTO2UPVhFq1hql3a/JPtKe09x/Bh/gbigo8AzcNEzPbj8opWlUBdg2Y+yGBRIhHW9NlG7skaE0Mf5+OZJUiOV5JjfScEoX/CU6Tm2i8eTmSzmGY+OrCSnSQPSr9sV1Du5UMYX0MCdSsBzbEPAcxvycOUGu8haSUCqbEXZblqcg3zBHvPW5Q1tFqJ1HjGWpRRMWU3De5OYEXp8tG0YW23Q9jnLdWV/Jn87PHccjaHuil48ePSm8YOn/2MRfKEawZTTCc/MB2lA82zgQPUSh+LeGBIYKck8BTQlHzd8l6XR2eyCWIvUsAiB+qyWk6+bsWSfzwxmJ2CeP1IXyVF95fYjbJe942e0xCgqUlUk6cvewDb/Hs4tvVqytB/h7JiU0xS01PKJkD4wSRMP0xJkav2HM5/yZAlRbYZAaxvNlpIICRQPxLQHKuGabUSA34uEin7iIPzvNR4vGa62LeKbIkaLz2gCfL1DsgL2int1ZMAcx/fV9gQIw3ur0egIUBz42vvAzS1z7cLRqiX0kJ9R6TaGHlRO0mAoBlmFPaPP81PJPOMxazVOPdBSB+guXEE4/uQwO6XgOZX62GqYWqSvYSGOWOpQ14t5WGW8Iqey62Q0sJe8w45mH93pD87hWn2xEA1eDIA86cHoeFA09QOr0OYIZZXevAjrmGiRcvkZ3MAp4VcNdWWSbmnxumZUm5aT5pqnBeJnvPn75IfVQE8TZ+x3z9opz89nvHTkEBIoIYlMI8LZoxARMsYmlZiHqbk6wKm2mfiki1DwwQxq9R4beRitlNAujsBZ8oXR6EIwHz5JGo40MxFIWei2pxJvAKWxaKvSHO3sJBo73aCck/fgWkxCywsTTYj+FwNbDuAqaRPQnpZg+xstJBASGBXSsAUkpsjs9lFqpVYyMEC0mp7aphlka+bNSBxQQ8H8XcI9vkYk6wuq6NkGaT0vNhjXjm3GhY0NXl6eboTiNTmCFVLvsRFJraXIOZkLku7S2kmPE+N08CgafowAFj2EkV7kpypkwOAO32uTuyY2a+c2fGPIYEakoAa5iSVjm6Thyn5+ndPJrO7k1Djwf7jQblM8nWtVkNdLdkpImXNw/z8UG92sKczka/XkMhqtisNC5r5iPRSmunkIH4EJlLOs3iNk+B1fAxlTOS8Hxu/CtSJcB5T7VUCBKYx3fwComTNxiYZ7yWstjlUzo0ii+9DAjUtAQFT0oLzT6vk6zcm5rJ52MrMwXQpl3EE5iyeyNeHOlpg+OnNPgUsz0LCfpgo2Yib2Pz0aXjQrFLuqXVSognVUoFINiBPrVqolykqZWqcarb2w0LWj4iwe4LPQ014gMlulG3Skvl3/Q5l5XFtfkrFJ0MCIYFcAlYlMU5C9q8rEKucQ8u8g4b5lDXdAVoWTVxgP3JqPAN+euC3Pgwd3gfQ4n12sC8zMFI/ZrTNS6DhQTMXlSbPQ0ymZCIFjAagszvPyfAqfk5BU9L3shM/PH2qXfr1Bv2YJDXms0NL/KwayGSFlKDcy0cwvoYEak8CppRcYx+5TMCPPsxbkBjMQahiPnbZ1HjH2N8+wxxrtRKvRI2Huyfa60kgQHNdXppn97S2J35FidMFzTHMojeY5CucFrFspBObHy/Lx5lrnJ4U1Thv0xcX2kkmv6XEDAwy6pfultandXHFl5BASOAVEsip8YyEv4B2+T2geZ1qJTn5umToRbacGs9nNKUDfxN+y47sl4f7s3dh+9nb3UZwYVDjbWUMAjRfkJqAOUgxazXOzw4upX+1cvp9fBCaWgStnTibqXGKjlLu/eHeWAog0IlvgFA1OGgnevWC8OKvIYGQQJJATo13GS3zInmYDwjss4JJmdR4RsmaHXAc4oLjBP1okvWrwYWmr0XbmgQCNF+Qm5qbhAJetkMA6L8/GEfTs+LA2nrFgRd+qeC/5hqnwPkIf8jd8bnsObleXTB2uAAEcmn3ooUEQgK1IQG5ZL+8N57yMM8DmlPkgOu/LJPHNdXEJC7i5EBn9s+nBlPQj2klFrKItnUJhPReIbv+Smt2fK2STRIuLpm6YCXV1fTCCkAlb6zqX7lNU6za8Aglzr6CTWSBlfE+J0jDxyuU7ukM8Cx3QOJpIYF1CWiSfULVIoN+cvJ1iQsM6DOtxD2j6KZZVvJ1t6bj8G0fRcv8hICf47D8DFbak1un6D7U+/0DNF8xwlYa6eFU5gSsMOP/DChZ+3IU0oFqjbtX/HJB/1SN4s0SaH75cDnx5hqFpw/W5OgAzYIEH7cNCfwNCRhpb3mvb6lY9J3EBVLjme/N75VJjSf5uu6l42iYvz02kL0Nq9jxpGEG08/fGMJN/XOA5ivEpKnW4DKjzJyEmjtM+egBPHXwT5B7VbbGqanWA6ssIvMUBb3HIlXjnCHn66MDvdmZ9aLbEr1HCwmEBIqXwCJWKAtIG/vw7ePJ7FvYfu6jbQqYiTyFw6z7R5FN8nX3pzY2pJPUv7TE1+eH+lLQj0Uqutmz3M+ivbkEAjQ3IUMDbQ7CVWvrxI9ozuSfHk5mw/gVO4AwgbPslmuclhH6hug8zUDSAg7i45QiMECz7BGJ5zWqBAzwuQPTjwWkJV+XGs+fuUa1/pSxPXCGTtR4nS0tKZ3kHyjvdQzt0pKIFVw2wSW7fbMzQHMTsqxqnAYIQbnHSjBZeRy/piW8pqDBmsVk68Io+jS5sas/aJxE9HqiXeDrZdiDugH4U2ibgqa+zyBA2Ci1+D4ksH0SUMMcZ/0bKSvbj+TrFpA2n9r9oAxGMX2YRsmaZz6Ei+Ywh3tzMN8jrUS+at1LAZjbN+beKUDzNeQpEO1r7sDkIc1dc3aQXKcvOF0aVm5QEBhVevM06+I0l1S2kSdUT/gtp8x9sHxokjFSbif6Vbog4oEhgZIlME1E7CXWXLVaCQQGEJAYDCSzmFtBGduBgClX9X72ImnxrIcpNZ61MT3sx9rf/kkRoPkaMs01zgPdRs5iqiUHZIQamBPzRNei7c2wiPLFoiZYRvM5ei85cCa6vTFOuRaQPYZfw1Pn4V7qcmJSThUUSupTGe8dzwgJ7JQE5mH00bpk0I/WHSsS3SUlbWxhKeVhpqCfgteaGiZLPqWwDHa2ZKfJ134f7VJOWQEz0kqKmx0BmluQrexBhm97lvzlkVVyJduy74mW+zNBANbhzKnvtnDrN/6VJaIBruFXkT/357B/aJo5kApZA5w74Xx94zeKG4QEaksCYxyUb6FVXgMwNcnempxLh2Yj6sty0eQa5qHe9ipYEgT49t6uxCUb8QzFzpcAzS3INy9knZh4MIGo0ZkbdYM8zhVAaxXA8hS4sZWhd/oMo3vvcgL20jTTD8m7LQEngO7PylrY6cHxR0igTiSgD9MAH6Nkz3FAVsO8uoEar0zyda1e3e3NKT/7l0f6ycXspdxXe9aLHzNasRIICb+BfAWfHpzvB7jHx5z0DPu+TlmxG+RnzZICkjf9jmU0QXPjsyRj+K93RrMJgpY+ZVEdAtwF+tA4yxiNeEa9ScC0EqNkrYd5gTgGTbKCaDVn29VXfPNwbh7mkf6O7ENITd7b152dHqpk/UTMawGLVrwEAjTfQMaaPq00IhAZqXq4pz37z00j2QOo7qbXQdOlpNZZ9JLy/i8+4874fHaLy3D0A/g5+uirWjLdjRYSCAm8pgSGCbL7/vFUcsNcQ8McIeWsk/VUhoaZd3WFbxZdz+w1ppWYlx0+zFw65XwN0NwGOevz149gXTop7ZzYV/B13EHTm1pPR9mGx7z2LQRRz56PAfE/QvI+xiKX5P0wQUJG+GniiRYSCAm8WgIPKNbwlLSS85hjzcO01q6xAwb8lBEmYNCPe4rkBacI+DHIT3Os69hDu9WOopUngQDNbZC14GR6hxrnpywk2Tj6+LvV2mcAzZ1q9svrHtqmfJhPySFL5Af4PbpIRQmNc6dGJp67myRwF5PsN6SWXSTw5zKulwmi5OWS1SxbRtNSJQOYGuY7pJP8p9NDibhA0FTT9dAerTwJBGhug6xzogERSh+nZtu3mdxTpH8MjbRlD9H0NOWU3fK1ZHDQCs4Qk7C/fjSR/K1n9nQlcA+Ns+xRieftBglUqfEWM4tIX0DDFDAt1jBPkF8T4CVQFZ1WJlh66as8ChXeflws+jFl+hnSh4maaypZtHIlEKC5zfK29I/+zbcAJdl5Bpncf7y3uiOg+eKrCdz/cX881eT03/ZR9iw0zhelFH8PCWSJYeseGuaFJ5PZOdLJLo/NJCawNTQ+D5plGUQFTcv+vQvLz6+Ikj2ND1MuWRmAIgp+Z2ZqgOY2y10tswWVcy/+zS7LdHEQnCcoyAmueVSidxeCwTkeEj0nFn1izV9R+j8Zg3x2f4dV29cA9+6kcQr0XmX1Je9TfA0J1JIE5iEp0fevS+PcU8jXSS25z7qV41kNU8AsuiSgUfjG3luxSO3S6Fij8y3I0E9OuIfx0DB3btYEaBYke4NsOBCmkjwusl7yJdXyBE0d+oaNU3QsESEU1IWX3lZuzHOcoJ8S0PA/0BcBvgJrUEuzcB8tJNC4EpDZ6yZpY99SOSgnX19kwerD1CRbhobJkkw+zH7W5LuklPzd0X4KSVejZN1X7Ee0nZNAgGZBsq9qbi0kHDclQFKrHOUEOwbB83MYRcYIErJ5omwCQF0HZWl5apwP8W9qrj1KMIFmWk0+R/jeRWlEYFl9UQbRQgI7LQF9mHLJ3kfDvEIO5vfPquW9nrNGDPgpgxpPDVPAbGUN9lVaAMpKMsu+v683VS4KarydniXV5zetWlY8WmESsJ6e1wS8lNa+vI2f5D/uj2XfcJK1MokApulWoCrbR+EzBcqDAOavjg5kvzs1lHI5LX8WYeyFTYm4cQ1K4BmHyAuQFlx+Pp2IC66QWiJxgWs0rU36XPRB0ghZLVBGxf4a/+UHBP28hQ/z1GBXyq/Wjxlt5yUQmmbBY5B8nJxUB5vxceKLEKAm1TYx06pxPl33cXpyMR/LVvTiTA/hD6sjyBpkPqkpM+aAHe7ryPZkmmurlHtl9SXvU3wNCZQpgUSNBzCaknWRgB81zDtEuz+bW0waZlHEBT+lqRglWwGhj8DcZR6m5OuDWIHMxYxWOxKI0ShpLDTPavrUt/kRC8LUFPkr//RwIuVyesrUVOuplv9La/pXTUm5iQb8X26NpJB2+ye4e7KVgD5aSKBeJWCMgVGyV9Aw9WHeBzz1a5ZBjZcOyhsEewywNOr+3b096QBrMfnQLjcIqEa+DdAsaSA0vZpXZfTdRwf7svc4Rfr9fdhGnrBw5YeVZURwLVPj1I8in+VNqs0/hEvTDUO6Pau990OC0IzGKWyGxlnSRInHlCIB617qNnmIy+QbDq7fw+B1CeKCUaxAAmYZGqag6UHZ+Af3AtNJ/vHEUPYO6SVBjVfKNNjSQwI0tyS2N/slo2mbcE+cxlfxz2f2psCDq5xyPfUaqadfoyyNUzAHF1MWtT4cfa7/Csm7EbYfEuKeBwdZ7ixaSKBeJCDRh4D5HVyyF1l7D0grSdR4rIeiYws2aph6KU8T8KPvUorLY7KJcVjVKhWtNiUQoLkD46I26cI8Rf7VED4L866m0TSl3FtcXc6WAc4mPuTnim6Cs/ztapsCtqDphuL3cul64tUvW67RuOi3jvs3ugTkkj1HMN63Bv9AXGAepmklRskW3XINU1jMQfOfTg4l8nX3A/MzS+hG0a9Zt/cP0Cx5aDeaOTWBtlSaMMf0pF7o9Ne3YlCCoKWf08VTVDL1xr40E+yuNrmC2Wp6SR/nbPaHu6MpRUaN83h/ZwL6ok/hJQ9HPK6BJKBJ9snkQvbg/2/vTJ+rOLIsXmjfV4RA7LsxtG3cbYej7e6ZaPfEREzM3ztf50PPREzY0YMNGsALGAxmESAJbU87fX75lD2y3GBAL0v53jsZLj9JSFVZJ6vy5L1577lYmCLLrx+TVrIcxEdKk8aTF0mvdRAneEfCIqcVfPe+tmvQq0Y9jD3M6iK1iQamzm7VpLmHA8bL0bWvtTihF2d/b3WFuSRrc15W56z2VlZEnOx3YA2mbqx4sW51yeAeJo9zUfub5JaO6mWm0DYR7ybN1CPh86dCgD1MCPN/7s5IeH2puKk9TJ5xnv2Qh5nqwjvOSxwBAXbsXf751GhQ/TmgUl+2MHcAlem3Js09HJhAQCJEUlFYYRIIwF4iX99EIFqrYFalpIZgccKd263DWnad83J+gpCYRNjffKaUGNJRWJFj7VLEmhwy+h32XPXpZgRyR2BNKSWkeD2WhOR1BfxM6t2ivBeECZEiSZdqMYgrNhx6r2hdereP9Oo90rv07lhfsDB7lO4FYdrCDBBl/z+TZgZDFAhRBHRsqEsumrbwSbeIZEWlZH51M1icZQTj0Bf2diBrJhsmmr8oMIigiU+PDQdlEkTpW/TymzIzeHjchV9FAO3nm+RgyiVLWsmkjrg4hKhSPsdQJRGy4dBLtV+R6R9NDBafHB38u0uWmB/eO7f6QMCkmcE4RSuvTzUuObApL40vy8LcDCpCd5WWAonh1kktuRf7EgS9dE0szp+0D0RkIXsuBCpgcR7qQ3IvrfWbwdC4C3WMAOLreG4IbLsh63JSVuZPipJdWPv/oJ/kFuYWfgT7DUls/Rx5mAd6i3fkmiVX23mY9feAmTQzHDPyJH+n1ShC6l/eny2WZG3Oaa+TgwVpGRZnuI6Wv3iVkBJDg/Oa3LQoqHwsyb1hTQAIvKcKUspwWNylOkMAwvxOOrJsdUzK0vxei08WgeRghu2FhPcTLUzeI7Y70He+rICfy4cGwjbMgKoMtZcRrJDwHpv11CbNDEceSbuzWomO6kWDMKcWliU8sBrIi/1NXD2pLc64At/UjgxRvBTUJh2FT0QPyN8cV/ACEl+Sqg0t1X5rhkPkLmWMANsKuGSxMCFMlLduzS4FyUoCfroS5UBClLHh/uU95Vr9ep+Pq3A0UbIfTgyEd4Z9TLf6RMCkmfG4dcul865Em3HhXNV+TJcsvakladaqQgo6+6G2X+L+Vy1bWZy6DmkwzyrrxV81CT1XHz5WyaIPDg3K7dQWghj4XTcjsNcIEPTDHmZwyeoTwlyQl6ZLll1cDKbqI+8JB1HoyFMeHOwsPtF7ckFBP2cV6IcXqSMRaae6J5/35wiYNH+OR1bfQZbHpRo0KoEBVq6LsjpZvU4rJWVDryau02oxobRRtXiRgtye9lhXVjaLb7V6JzCI1fIRraA79QsQPCpHNFucVRz8/3IRiNJ4BK8R9MMeJi5ZiiJAmB1yy6ZokGRsfM07SoARAXVEyX6kiiXsYeKStYUZkarfT5NmxmOH5caeIeHop0Z6FUHboujV+UBgWJwLiqpdFZGR85Xa2UNfWKXrv6AeRLj+dyrW2902HSaEd8f7ihEFCoXfyRhTd61xEYjCBaSVECVL0A97mLhky7IwI4FSMQhpvIuyMNnKoBZmG6tPt7pHwKSZ8RBisfGe9Sjg5rxePg50KecUlIOVubQu5SDp3yFKkPp9pC8EIGHxssdZ0UEppQeyOGfUn3GtqHE9Icag/9yMQOkIROEC8jBJKyFKlqCfVHuY228wWpjxZ+el9vNvZ8dCIemo9BP/zZ/1jYBJs87GLxSMVr7kgKy6XkUGko6CZi0RrsHixBRM3HByIfK+Jiv3ua59WwFC/3VnJgjOs8ImJYWVferVfeLb9OnrAIEgjaeAH7RkkcZD6QfhAhZ3uEdTLyYjRLx1WLSn9PxTNPpDRckSKIc71luYEaXG+DRp1tk4HhQhDSrdg6hVGXuyNDeKHzdXijm5S8uwOIGLiQhCJHdzZWO9uK1AC9xgz1fWguLJmPZgbXHW2YNVp92N5b0QX0e5aq+k8SBNSoqhJ/snSeMdlUuWggfEJdjzUqcP10u6bdJ8CTC5/rhT+5scJyTwTGg9uV5YnD9I7o4IwWWRKISWqnh0DPJhkiA4qBqgtFHcV7V7+kJAUEXh/qdUwcUWZ65PUf33i3xhSunF8l5UK0F8PUrjEYhTlqcD9+/hgc5QpYTyXlibA1rYopxlabz6f9Z23oFJcycidfJ9dRXbGkiqTWGr+xSyd0uu2ueKsO0Qo5URdBAtTshzXvtHd7W/SR7ptDRr21tGCyzO8Dv8z80I1BABtiN+1LYABaSph0l5L3Iz2TpAS7bMJ65bicqklPxR5b0Ob3mCSCuxhVnDAc/oVCbNjAbjTbrSJYuOA5KqKAWFyCCFBxXLmkxwm2KF8tIyiUTr8E3O/zq/y3mZnMhHw02G8ME9fU2fWHn3d7YG4jzY3/U6p/PvGIFfRQALc1aBZ5TPo4zeNUXKUkCaepiU9yorUpaOYkmyMKRsHiklSOQRJVt1yZZJ278Km3+hhgiYNGsI5l6cCmGBd+USGtHLywq7TTTGJHJnrhICIZhEUr++EDN7mOSMEpREdRbk/2aVFvORJPdMmnvxZDTmNSlgMClXLJHbpJVcV3kvFokE/ei/5M86qBIpy0Ek+ydHhySP118cVb4y2rKpBeC5vtveImDS3Fv8d331aHGylzgjt+iGJpBWuUNnFJSDahAWYBB615VSWpzkiWJxElG7sPoilBSrKDiJvZ0j2n8lHYXgJcgVEk/Vl10D6hNkiQDi61T9uTe7LKUfWZhT7GGuFNOqO9shtgyLQ1izhNYjdyzP8ilFyV6UYheqXRRa4F10a3wETJoNMsa4ik7KPUSIe5cOCPOBLM4HCpYgLD+sxBPfK1NWCEDSF/PaX9qQMgsBGhTTviTxg0vj/UG3lgCNcqa3xDfs05eGALnAtySmcVNBb5M67ijwDBIlYrWsgJ94s4f6Oov3ZF1SD/O0iBMCtTReRKfxP02aDTLGHQptPyaLblwvdLDmRJpXtd8zr2hacWeIck1tcYbJS2zIdZjQiGRckRuNCEcsUNxXkrAOq3Lxemi2OBvkAUx0G+xhhqAfWZhXlFaChfmdIsWnKquBMBEvKKtRQLpbB0o/vz86HKxMiiug2OXWPAiYNBtsrNlTIZfzsvQuW/WCywBVHmVFCd+rIbqwLJF35P/Y91lVQNKMgjTQq8WF9hut0M/tr0ruef+nwR6+BLdDWglRsl8/ngt7mLhkq+W9EC4o119xRLmXuGPfk8eEr9kSYYHq1lwImDQbbLx5iQ/pheZgEd4i6mKl/kTVSdZebBStL9KrpGA9Rsm9VVm8i+siTQVtPJd1QPYJ1jDlxVrUF/tpG+wBrPHtULFk8tFccUWVdW7OLIW6ruRFlmlhxls6oijZPxwfDuklMUo2/ps/mwcBk2YDjzXk9J7kvFAK6mlvC8E5D+WrJcIVKy+VAMJ2SEOKpq61LDfblAKVJqcWiQKqirwf6C/G1Ec3I7ATgfvKOb4rC3Py8ULxtVz89/TcUpqOPcyy034vjPXKJdtbXJKVObFlYfL+uDUnAibNBh73sd5OVR5BYKBapgjX7LTqYOIu7cR3WoJ7ix0n5heCgZa2LM55RfZWRNxYwybNBn4Ad3FraMn+730JF8itj3ABeZgEs+HiL7tBmH+WNN4h5R6P6n0iD7P8XpR9177eyxAwab4MmQb4OathDhKwzyr5mjp/BOcQzABxIkbARASZpmg/C/JRcBBtURYn9Q1vydX2lVxu7E+xBwvBuzU3AqRHPVKO7xNFXV+VhQlhEgGOlwLhAtZ4P3umEsHF29CltBL2LSnrhYUJYQ6qHmaHzNyyo3UT3aZP+5YImDTfErh6+rMRCUcTFt+nA8uvVwEMVxS2/0Du0j4F/rWXsG7GpcbLoLkIAAAUW0lEQVRkQ2DQU02Cm9MV9WRaknurShAfNmnW0wOVqK+kRn3/dKm4Imk8qpVcVT5mULbS9coQ6Yi3xXYG7wuVSv755EhxQAu60Z52Bf1YGi9i1MyfJs0mGP12BU5wjIk8z6gKAxbnilbuiBEsytrEVRpITT9PtZLnvKzgsSa4LuLy95RrhyUcCvTqc78s4v2aoDB8+d1UfdGp3TJCgCIDCHNMycKkgDT1MCnvVdHPsTBRukpl3ZEeFZwgeuDYxuhTCgnbBmeV8/yO8jCPSemHKFnen1R9yGgo3JXXQMCk+RogNcqv9Ei15IRyzFAuadWquU9u2msKsvhmeTG4aQmySN1wsRGABHE+VUTv+mYlEOmCyPuDiYFiSHVCiQAuO50g9X37/C9HYEkLqNuyLG/oWeR5/Fal5rZL4+EdSdW0hgvPIks68WJ4/pDFQx6PKj0s6FjYpX8zUt2hz1trBEyatUY04/MRwNDZ1hH2MFEMgiQRIZhWYM6aXKYkku8TmTFBpLLy4mod0lySahDutw255fjslUusGrzUHmqGlh0lmfHQNWTXeN7Qkr0v8QvyeK9KPeqOomafSf0HdyzPZ6rnkJJ24stwAC6VSsbl5TgjCxNZPNR+qu9LSspuyGFt+JsyaTb8EP/yBrE0yTnrVRWSTTEkou/fSKKMihEvRKZlCCAwFcXE8OeyNO7OrRTdUnypaBL97eEhiSAMhBX+L3vvnzQKArPSjb0uorwhwpzUs0cBaYJ+yMNMvWBSMHewMFnE4Xol6OePysG8pDQoqpbgkrW3o1GetNreh0mztnjWxdnQyezQ/iaBQWvrL4peyYBprgpFfHGVyfCrTii6m1Qrfc6L+Bh7SkyU65vSFlVE7aJIc1hh/bjGBiW7RxQjARhujYNAkMbTmD9SWgl7mNcUKXtbVXlQreoUW6YSLsC6pEULk719guJYNCK+flmBP1iYyOJZSzZA5f/9AwRMmv8AlGb5EavsUQXfULC6gptUk8r3Iq5b0vlcEnnhHkv9gOAKjiv6We1rrsjS/erxfOjLOQUtndYx1G3SbKRn8omCfO5IuOCbLfH1u0ozieLr8VlIdb/bLUyI8eRwd5DFQ8BgQnVfccmyh+lmBF6GQOo58WXX9c8zQIDJoRqxqn1OEeegIgfbNWk8UoDOgvY6WYmnFnnH4kRyj+vMycp9IvGFln1zxVPy89SHQQUGRY1PT2YZPDS76AIpJURP39Me5l8lXIBLltQSytixQKNST4q23cLkmYY48WBgZVI8+k+nRkK1kh59j6vWzQi8CgGT5qvQaaJ/G1DiNlVS3pfbDPfVdVkBpIQ8175TJ/s+JSy+g6yf5ixk/pBNG9BeV5smsbkDa8Vxuc9G5VJ2q18EHmnfmqAfdGQpIP2TxhgipR5mDBBLdXcQJYSpSwVrkpQSXLEfKFKWVCwszNR9SHVvPm+5CJg0y8U726tRJJoyR1hzQwoQwvp7oijGh9pnoqg1Rb1SNjiZa+Kew8qdEXEqmzPkkWIpUFbMpJlyBNKf+6H2MBEuuCL3O+LrcyhS6XlLLY3HIpCtB4gTRR/2Tc8q9epzSeOd0EKxX8+99zDTj3+jXMGk2Sgjucv7CAnkSjYZljtU81ggrjVNMuNSQnkQLM71ENGYSuQ9BhxBni26bqsoc35lIxQb7tEkS/+mReIntAeFAIJbfSCAJUnADzVVrzycL75CfF3fI5/IWIcD8y9Bw+Uvb3DwnPD8EJWLhXlRFiZFpA8r2AwxAwLN4vOXoBs+ZYMhYNJssAHd7e3EkkcXNNkwyYxoUvlPWX5PpNiCRYA1mLrJEAgWJyXNHi/iVFsKOaQIIDDJmTRTj0Dtzs8eJoT5xY+zwSVLWgn6x+wcppbG0yMcLEyeICJy2cPEJfvv58eKYXkuWCBiYZbwSNcOUJ9pzxEwae75EOTVAdyzrS2tqo7SLnmx7rBSf6p9TX6O1NmsrD19mdRCiHtLUXKPChd3NPHShwMqJYbVgKvW7tq8np3tvUGsglqYFJG+EaJkF4oH+hrCZFyDZyOhhSkjs6BcK7nApJAcH+rS0R1Ik5xMyJIjPmvb++6vjcCrEDBpvgqdJv63Hll07a2E4Fer00+IrL7UftSXmviYiMqyOJnUmIAfSdiddBQCg56LuD+YGDRpZvx8knv7LWQp8YL/U9DPVR2oUGFhsvhJad1BmGv6H1sJeEvGe9uLT48NFx8fGQxBP0TJ0oOUfch4aNy1XSJg0twlgI365+zzKKAwTCyntI9IwAYi67PU49SBmguSewgUpNoPilbAuibbVR1c+7by+wgMQkeX2oYDSkwniAnLxW3vESBNaE7jRNDPDYQLdNxXlOy88n5jPcw4rrXuLXuYuGSrUbKqVKJn5IhKep1R0M8FpZacVgQ2UbIWy6g18s11PpNmc433G98twgdDIieIEfLqkeX5hVIGHj+skmaXyAriTNngQ/VA/rYXxZQszjX1o7NVFrB+dl5J6ee0T5U6AjPl/TXSuSFMRAtuqqzX1wr6+U7i6wT9sKfIXnXKpY0ei7CHybPKIm+8r6P4rTwSpJWcEGGS75uKsBtpDH0vr0bApPlqfJr+X1mV93e2aF8IsfeWkPqxpNnpkVykczrWZVmkFkBgooM4SRuYl7Vb0SRMagqVMFo0E++X63hQFifJ8bY49+aRpbwXEox3ZisqID1XfC237G3tQz/WIoc8zJTCBViXND45SCE5qGfiooTXL6tyzvvj/ZbGAyC3miBg0qwJjI1/Eoirt72t0PxT/E4anUxMVySwPjk1HybL1FYECGOl4OKjkUO6+mKpGJU1cUBSgAR5jGmiRFnGrXwECBKjvNc1keWkLM07SlOiHibjkdq6ixYmC6YOLfIQ6fiD9jDfkRfihOphEggUiwOUj4yv2GgImDQbbUQT3Q/BGwQHBYtTFt0JVYKgnNg9lXIKJcUSXXf7aaPFuS6Lc0YRtU9l2Uxoj3NCpIkwA7U4SV6npdpn3d4ff12VPyTA55lI86bcsV+JNHHJIr7epbGAxFK07dJ4WJcQJ0E/pJWcEml+dmyoOKW9zHbcwnp23YxArRAwadYKySY5D4Yeup0t+9okdN2naMgXxbcqK3ZTkndI7jF5pW4xx4+UgpnKanFdk/WwRBgmlEpQ7ZsjI1OPQTw/e5ikltzQHuZXega+0yKKOqmo7pQhvk7QD/uXPdo6uCg3CLUwCfpBU7kqWhB76k8jUBsETJq1wbFpzoIFh7uLA7HrMZEVUYqPFCE5pwjJfWJNGYJJG33o2DIenktc/tuNpVANhb3OkAO4ZW0m7YRPHhCglNtPIsrvZfFfl3v2rqJm+2TxdetI2XjEojQehInoBWT5L5LGm1DELGkldsmmHIHmPbdJs3nHftd3TjQitS9PS5rss9XhYHHelqbo44XVsP+Y0inGuZk4F7Vvtqw8zhlN3hUFJREcxHxtj9yuh/e1TvBcluYPjLnKe61rLNhzTok9blk0ZBl7LMx+PYPn9fxRRo7AHzSKqyo/KZ++14LGv9SgCJg0G3Rgy7gtrE0mqNP7esJeEpVSyMd7KNLEzkg5bYVzawJdlEBuRdYte5xYmmvSOu18kfrqZaBbH9dAdB3SfKTAnw3hjwcgpY0ZLUzQ4fmjuMAFpRz904mRUA9zqLttizTrAz/3sv4QMGnW35hl02MCLNBWgSxDCojIC6uvX2IDP0xXlOC+HPrKPifWR6AyNkV32eIZ4gSKUhAKNFiaBCVtpi7Jssv+1/ufY+2BfbUG6rrKuK0WT0k/0jjgEmWsa91+Jr6uZ4igtDMS3cC6fE97mUTM4qK1NF6tkff5diJg0tyJiL9/YwRwk/WJKEn7YDKbUPWI/9h8Uvwk0oQwia4M0mmaTBPMp6G/7G+tirBxz8bIyje+Ef/BayMQdYEXFPQzJcKcVSQziyLkFVOMsYY37GHSQQpFD+p5u3igP5T3IuiHfXUIO8W1XxsU/2JTIGDSbIphTnuTIT9O0xUCAzEl5a6S3OdJC1EqwpSChGjROmFiq1VKCOdCkejvDlnPmkIjfWMxhGVJJZolWffIHJKTWeuI2SiNR6Q05ybA57CipJF2vCAr86Q+Ed0g1ahWz1R69HyFekbApFnPo5dZ38mjZALbrwokfzg+HCzPL+7PFn+5Mx3cp8tEcKjV0hohULZdB4ozXZpQgypQDVzAmUGbVXfi4gerHouzOqppugg540XAimRBdkRejM9PjUgabyBUvIFEU4snpLkzn7VeETBp1uvIZdjvqvgA1sC+4qRctaMSG1iStUmQyGPl8pHwHtyn6vtupPfinhqTNa5hJtQ+5Y4ygXZoYtW3bokRqBLlC1l3LIJqr/oTx5jzY2HijkX5iTSn38gtSz4m427x9cQD7dP/AgGT5i8g8Q92iwCkRUBGn/aZziuykf3MKxJ5X9fxDPk79h11kd1YnFggJLZDlqjAjCrVYED7qVgj1p/d7Qi++u9Zk2DhQ1go/qDEg2uWn9eq4ZTAwsRz0K0o2VMSXH9PwuuQ5iFZm1yb58zNCJSNgEmzbMSb4HrsLbVrVoUsKct0WMnmNNRjimIpRFpG4nwbixPCRUqPT8qCHZX+7EFZIQQjUf/TLT0CeBW0PglKPINarCxq8UI1E/Y54bK32V+MAVyMa2xEYjO2RMl+cmSoOKOcTPKDsTLdjMBeIGDS3AvUm+SaTGtMblgKTHY06l9eezxfTMlVS/AIFgVWy5tQXZU0ZWlq4h7RhHpB7jqsD6xbt3IQiKTJouWIhPJXlO4zpaCvlY2NMJ5vS2nRwmQsu2VNnlagz2UVCCBS9qDGmD3zWgcblYOYr9IoCJg0G2UkM7yPaHHKMJDF2RuiHukm0bQkxa8qTYFAkn0iVojzdVsgTf0y7tnR3s7iXWngHpI1G8XaX/c8/r23Q4BxrS50lKMrF/xhkSbKQNM68ADgqH1bQxCX7LoGuFvXIO8S0fXPFFR2Wp+4ZPFeuBmBvUTApLmX6DfRtaPFeU57Ukx7JyTuTc3Fn6RViiBCRUdIG9FkybzI7zA584nbLlogTKjk6Z0c7AzBRpdFmCS2I5/mCbX8B2pE2sMXtde4ojGaknj+cy2G3pTXtgsXYGH26gS4Yz+UhfmO9sSJxmZs9Ti4GYE9R8CkuedD0BwdgDSZ+AjowJU6JgtxVmLrWCi4aVH1CfmWmhj5Pf0Xvmee1D+FoBB+b1lf9yqC6Khy9T5VgWECQw4PqGaiJltPquU/S5RjO6sxeKYKN9efLITgrrfpBRYm4xzF1xnXfz07Jm3jdrn37ZJ9G0z9N2kQMGmmwdVn3YFAtBqxJCBFgoM+PjJYYKk8lLuWAxm8Ci5bSFJ/v0+fkCYBJ1iXnQo26ZNFOSrL45Im1fP7+0KuHm5ZR8zuALykbxlP9qmPqr7qB7IM2etkLJ8trW6NY9VdyzjubBresBjib4h67pMf/6yE108Eebz+QJg9GnP+nefHzQjkgMC+TTTO3IxASQjE/DvyNZdEkkyuP6ik1C0daNU+lLt2UdJsiK/L+Aitr6OlGJHFcVBRsufGqjqjlCQbUxAQZEqupifVkgZwx2WCYo/G6anG8YHycUkt+u8fZ4pJ1Thd1tSypqPqNfgl6eFqx61LWslET1txTHujn5/ZX/xee5jI4g3ict/6M4/vDuD97Z4hYEtzz6BvzgtHi7NTLtYof8ZeJi44SPHo4KoszqrweyRNrI0BVbNgb+u43LsH9HsIGfRqYnXbWwSwAnEH9G9pDlfWeoP6E+k/08rJnVuRiL72q1dUNiw2/oYI2FaRZZvGnQjcYxrT4/I+UOLrkMgTbwSEabKMqPkzFwRsaeYyEk3aj3WCgGRV4pqlUgm5fuxvEVUbGxMoLlgsEoiySyTKHqnVYCJCe/+5rpJseA+IisbqnFLlk7sqGYb1iaDFE6UYxYZLl7EkB3Osv6MYF0ke0R41Qv+43gnq2uJik2YEzZ/ZIGDSzGYo3BEjUP8I4K5F4IBF0D2J9iOhCGmSlxtbhxY8na2tYS90XKRJlRICw0ZEmG5GIHcETJq5j5D7ZwTqCAH2rHESQJwLKki+pMCuZblmK9qnji24Zre8B6j7dMtzgNg+RaXdjEDuCJg0cx8h988IGAEjYASyQcC6Y9kMhTtiBIyAETACuSNg0sx9hNw/I2AEjIARyAYBk2Y2Q+GOGAEjYASMQO4ImDRzHyH3zwgYASNgBLJBwKSZzVC4I0bACBgBI5A7AibN3EfI/TMCRsAIGIFsEDBpZjMU7ogRMAJGwAjkjoBJM/cRcv+MgBEwAkYgGwRMmtkMhTtiBIyAETACuSNg0sx9hNw/I2AEjIARyAYBk2Y2Q+GOGAEjYASMQO4ImDRzHyH3zwgYASNgBLJBwKSZzVC4I0bACBgBI5A7AibN3EfI/TMCRsAIGIFsEDBpZjMU7ogRMAJGwAjkjoBJM/cRcv+MgBEwAkYgGwRMmtkMhTtiBIyAETACuSNg0sx9hNw/I2AEjIARyAYBk2Y2Q+GOGAEjYASMQO4ImDRzHyH3zwgYASNgBLJBwKSZzVC4I0bACBgBI5A7AibN3EfI/TMCRsAIGIFsEDBpZjMU7ogRMAJGwAjkjoBJM/cRcv+MgBEwAkYgGwRMmtkMhTtiBIyAETACuSNg0sx9hNw/I2AEjIARyAYBk2Y2Q+GOGAEjYASMQO4ImDRzHyH3zwgYASNgBLJBwKSZzVC4I0bACBgBI5A7AibN3EfI/TMCRsAIGIFsEDBpZjMU7ogRMAJGwAjkjoBJM/cRcv+MgBEwAkYgGwRMmtkMhTtiBIyAETACuSNg0sx9hNw/I2AEjIARyAYBk2Y2Q+GOGAEjYASMQO4ImDRzHyH3zwgYASNgBLJBwKSZzVC4I0bACBgBI5A7AibN3EfI/TMCRsAIGIFsEDBpZjMU7ogRMAJGwAjkjoBJM/cRcv+MgBEwAkYgGwT+Bi3ewlnpy0RzAAAAAElFTkSuQmCC;" vertex="1" parent="79">
                    <mxGeometry width="36.78" height="30" as="geometry"/>
                </mxCell>
                <mxCell id="81" value="dd" style="group;verticalAlign=top;horizontal=0;align=left;" vertex="1" connectable="0" parent="1">
                    <mxGeometry x="320" y="130" width="160" height="210" as="geometry"/>
                </mxCell>
                <mxCell id="82" value="&amp;nbsp; &amp;nbsp; &amp;nbsp; &amp;nbsp; &amp;nbsp; &amp;nbsp; &amp;nbsp;Subnet / Tier-2" style="rounded=0;whiteSpace=wrap;html=1;fillColor=#dae8fc;strokeColor=#6c8ebf;align=left;verticalAlign=top;" vertex="1" parent="81">
                    <mxGeometry width="160" height="210" as="geometry"/>
                </mxCell>
                <mxCell id="83" value="Route Table" style="shape=image;verticalLabelPosition=bottom;labelBackgroundColor=default;verticalAlign=top;aspect=fixed;imageAspect=0;image=https://www.devopspertise.com/img/blog/title-azure-devops-automated-route-table-creation.png;" vertex="1" parent="81">
                    <mxGeometry x="50" y="40" width="60" height="60" as="geometry"/>
                </mxCell>
                <mxCell id="84" value="Service Endpoints" style="verticalLabelPosition=bottom;html=1;verticalAlign=top;align=center;strokeColor=none;fillColor=#00BEF2;shape=mxgraph.azure.service_endpoint;" vertex="1" parent="81">
                    <mxGeometry x="55" y="150" width="50" height="20" as="geometry"/>
                </mxCell>
                <mxCell id="85" value="" style="shape=image;verticalLabelPosition=bottom;labelBackgroundColor=default;verticalAlign=top;aspect=fixed;imageAspect=0;image=data:image/png,iVBORw0KGgoAAAANSUhEUgAAAc0AAAF4CAYAAAA2QqLbAAAKpmlDQ1BJQ0MgUHJvZmlsZQAASImVlgdUU0kXx+e99JAQIBABKaE36S2AlNBD701UQhJIKCEGgopdWVzBtSAiAoqgSxEF1wLIKioWrAgoYF+QRUH9XCzYUPkecAi7+7Xz3XPmze/cd+c/986ZOecCQCaxRaI0WA6AdGGWOMzHnR4TG0fHjQAMUAA0AAMVNidTxAwJCQCIzc5/tQ99AJqa75hOaf3r//9q8lxeJgcAKAThRG4mJx3hk8h4xhGJswBAlSN+neVZoik+j7CiGEkQ4btTnDzDI1OcOMNfp2MiwjwAQCNV4UlstjgZAJIa4qdnc5IRHdJChC2EXIEQ4al8XdLTM7gIH0HYEIkRITylz0j8k07yXzQTpZpsdrKUZ2qZNrynIFOUxl75fx7H/7b0NMnsHvrIIPHFvmHILIuc2b3UDH8pCxODgmdZwJ2On2a+xDdyljmZHnGzzGV7+kvXpgUFzHKSwJsl1cliRcwyL9MrfJbFGWHSvZLEHsxZZovn9pWkRkr9fB5Lqp/Dj4ie5WxBVNAsZ6aG+8/FeEj9YkmYNH+e0Md9bl9vae3pmX+qV8CSrs3iR/hKa2fP5c8TMuc0M2OkuXF5nl5zMZHSeFGWu3QvUVqINJ6X5iP1Z2aHS9dmIRdybm2I9AxT2H4hswysgA3wAZYgGvnaAJDFW5E1VYRHhmilWJDMz6IzkdfFo7OEHLMFdCsLKyRm6q3OXIV3YdNvEKK1zfkyDiFX+APyJnbO+RKLAGjOA0D5wZxPdz8AlFwAmto5EnH2jA899cEAIqAARaACNIAOMASmSI52wAm4AS/gB4JBBIgFSwAH8EE6EIPlYDXYAPJAAdgBdoNSUAEOglpwFBwHzeAMuACugBugC/SCh2AADIOXYAx8ABMQBOEgMkSFVCBNSA8ygawgBuQCeUEBUBgUCyVAyZAQkkCroU1QAVQIlUKVUB30C3QaugBdg7qh+9AgNAq9hb7AKJgEK8LqsD5sDjNgJuwPR8CL4WR4GZwD58Lb4BK4Cj4CN8EX4BtwLzwAv4THUQAlg6KhtFCmKAbKAxWMikMlocSotah8VDGqCtWAakV1oO6gBlCvUJ/RWDQVTUebop3QvuhINAe9DL0WvRVdiq5FN6Evoe+gB9Fj6O8YMkYNY4JxxLAwMZhkzHJMHqYYU405hbmM6cUMYz5gsVga1gBrj/XFxmJTsKuwW7H7sI3Y89hu7BB2HIfDqeBMcM64YBwbl4XLw+3FHcGdw/XghnGf8DJ4TbwV3hsfhxfiN+KL8Yfxbfge/HP8BEGOoEdwJAQTuISVhO2EQ4RWwm3CMGGCKE80IDoTI4gpxA3EEmID8TLxEfGdjIyMtoyDTKiMQGa9TInMMZmrMoMyn0kKJGOSBymeJCFtI9WQzpPuk96RyWR9shs5jpxF3kauI18kPyF/kqXKmsmyZLmy62TLZJtke2RfUwgUPQqTsoSSQymmnKDcprySI8jpy3nIseXWypXJnZbrlxuXp8pbygfLp8tvlT8sf01+RAGnoK/gpcBVyFU4qHBRYYiKoupQPagc6ibqIepl6rAiVtFAkaWYoligeFSxU3FMSUHJRilKaYVSmdJZpQEaiqZPY9HSaNtpx2l9tC/z1Ocx5/HmbZnXMK9n3kfl+cpuyjzlfOVG5V7lLyp0FS+VVJWdKs0qj1XRqsaqoarLVferXlZ9NV9xvtN8zvz8+cfnP1CD1YzVwtRWqR1Uu6k2rq6h7qMuUt+rflH9lQZNw00jRaNIo01jVJOq6aIp0CzSPKf5gq5EZ9LT6CX0S/QxLTUtXy2JVqVWp9aEtoF2pPZG7UbtxzpEHYZOkk6RTrvOmK6mbqDuat163Qd6BD2GHl9vj16H3kd9A/1o/c36zfojBsoGLIMcg3qDR4ZkQ1fDZYZVhneNsEYMo1SjfUZdxrCxrTHfuMz4tglsYmciMNln0r0As8BhgXBB1YJ+U5Ip0zTbtN500IxmFmC20azZ7LW5rnmc+U7zDvPvFrYWaRaHLB5aKlj6WW60bLV8a2VsxbEqs7prTbb2tl5n3WL9xsbEhmez3+aeLdU20HazbbvtNzt7O7Fdg92ova59gn25fT9DkRHC2Mq46oBxcHdY53DG4bOjnWOW43HHP5xMnVKdDjuNLDRYyFt4aOGQs7Yz27nSecCF7pLgcsBlwFXLle1a5frUTceN61bt9pxpxExhHmG+drdwF7ufcv/o4eixxuO8J8rTxzPfs9NLwSvSq9Tribe2d7J3vfeYj63PKp/zvhhff9+dvv0sdRaHVcca87P3W+N3yZ/kH+5f6v80wDhAHNAaCAf6Be4KfBSkFyQMag4GwazgXcGPQwxCloX8GooNDQktC30WZhm2OqwjnBq+NPxw+IcI94jtEQ8jDSMlke1RlKj4qLqoj9Ge0YXRAzHmMWtibsSqxgpiW+JwcVFx1XHji7wW7V40HG8bnxfft9hg8YrF15aoLklbcnYpZSl76YkETEJ0wuGEr+xgdhV7PJGVWJ44xvHg7OG85Lpxi7ijPGdeIe95knNSYdJIsnPyruRRviu/mP9K4CEoFbxJ8U2pSPmYGpxakzqZFp3WmI5PT0g/LVQQpgovZWhkrMjoFpmI8kQDyxyX7V42JvYXV2dCmYszW7IUkabopsRQ8oNkMNsluyz70/Ko5SdWyK8Qrri50njllpXPc7xzfl6FXsVZ1b5aa/WG1YNrmGsq10JrE9e2r9NZl7tueL3P+toNxA2pG25ttNhYuPH9puhNrbnquetzh37w+aE+TzZPnNe/2WlzxY/oHwU/dm6x3rJ3y/d8bv71AouC4oKvWzlbr/9k+VPJT5PbkrZ1brfbvn8HdodwR99O1521hfKFOYVDuwJ3NRXRi/KL3u9euvtasU1xxR7iHsmegZKAkpa9unt37P1ayi/tLXMvayxXK99S/nEfd1/Pfrf9DRXqFQUVXw4IDtyr9KlsqtKvKj6IPZh98NmhqEMdPzN+rqtWrS6o/lYjrBmoDau9VGdfV3dY7fD2erheUj96JP5I11HPoy0Npg2VjbTGgmPgmOTYi18Sfuk77n+8/QTjRMNJvZPlp6in8pugppVNY8385oGW2Jbu036n21udWk/9avZrzRmtM2Vnlc5ubyO25bZNnss5N35edP7VheQLQ+1L2x9ejLl491Lopc7L/pevXvG+crGD2XHuqvPVM9ccr52+zrjefMPuRtNN25unbtneOtVp19l02/52S5dDV2v3wu62HteeC3c871y5y7p7ozeot7svsu9ef3z/wD3uvZH7afffPMh+MPFw/SPMo/zHco+Ln6g9qfrN6LfGAbuBs4Oegzefhj99OMQZevl75u9fh3OfkZ8VP9d8XjdiNXJm1Hu068WiF8MvRS8nXuX9Q/4f5a8NX5/8w+2Pm2MxY8NvxG8m3259p/Ku5r3N+/bxkPEnH9I/THzM/6TyqfYz43PHl+gvzyeWf8V9Lflm9K31u//3R5Ppk5Mitpg93QqgkAEnJQHwtgYAciwA1C4AiItmeulpg2b6/2kC/4ln+u1pswPgYD8AEasACLgFwN5SpJVF9CnxAIRQEL8TgK2tpWO2753u0afbkiGkZ0EUD/DBv7GZ/v1Pef99BlOqNuDv8z8BOV4D4auVhOQAAAA4ZVhJZk1NACoAAAAIAAGHaQAEAAAAAQAAABoAAAAAAAKgAgAEAAAAAQAAAc2gAwAEAAAAAQAAAXgAAAAAePSecwAAQABJREFUeAHsvWdzJVeWrpfwOPBAee9YZNO7dtOj1vTMKK70TR/0g0b/SCEpFJLuVcTt6Ts9wybZJKtY3nuHgvdez7MPkg1Ws6pRKGTi4Jy1ySygUAeZO9c2717uXU2rq6trWbSQQEggJBASCAmEBP6mBJr/5ifiAyGBkEBIICQQEggJJAkEaMZECAmEBEICIYGQwCYlEKC5SUHFx0ICIYGQQEggJBCgGXMgJBASCAmEBEICm5RAgOYmBRUfCwmEBEICIYGQQIBmzIGQQEggJBASCAlsUgIBmpsUVHwsJBASCAmEBEICAZoxB0ICIYGQQEggJLBJCQRoblJQ8bGQQEggJBASCAkEaMYcCAmEBEICIYGQwCYlEKC5SUHFx0ICIYGQQEggJBCgGXMgJBASCAmEBEICm5RAgOYmBRUfCwmEBEICIYGQQIBmzIGQQEggJBASCAlsUgIBmpsUVHwsJBASCAmEBEICAZoxB0ICIYGQQEggJLBJCQRoblJQ8bGQQEggJBASCAkEaMYcCAmEBEICIYGQwCYlEKC5SUHFx0ICIYGQQEggJBCgGXMgJBASCAmEBEICm5RAgOYmBRUfCwmEBEICIYGQQIBmzIGQQEggJBASCAlsUgIBmpsUVHwsJBASCAmEBEICAZoxB0ICIYGQQEggJLBJCQRoblJQ8bGQQEggJBASCAkEaMYcCAmEBEICIYGQwCYlEKC5SUHFx0ICIYGQQEggJBCgGXMgJBASCAmEBEICm5RAgOYmBRUfCwmEBEICIYGQQIBmzIGQQEggJBASCAlsUgIBmpsUVHwsJBASCAmEBEICAZoxB0ICIYGQQEggJLBJCQRoblJQ8bGQQEggJBASCAkEaMYcCAmEBEICIYGQwCYlEKC5SUHFx0ICIYGQQEggJBCgGXMgJBASCAmEBEICm5RAgOYmBRUfCwmEBEICIYGQQIBmzIGQQEggJBASCAlsUgIBmpsUVHwsJBASCAmEBEICAZoxB0ICIYGQQEggJLBJCQRoblJQ8bGQQEggJBASCAkEaMYcCAmEBEICIYGQwCYlEKC5SUHFx0ICIYGQQEggJBCgGXMgJBASCAmEBEICm5RAgOYmBRUfCwmEBEICIYGQQIBmzIGQQEggJBASCAlsUgIBmpsUVHwsJBASCAmEBEICAZoxB0ICIYGQQEggJLBJCbRu8nPxsZBAIRJYXlnNZpdWsjmupZW1bGl19YfntLc0Zx2tzVlna0v62sbfo4UEQgIhgZ2UQIDmTko/ng1IrmUT80vZ85nFbGZxJV25WHo7WrP+ztZsqKs9a2luy9pa8n+JryGBkEBIYGckEKC5M3Jv2KcuoVkuA5QC5NjcUjYyt5g9BTCfTi8kbXN+sappNiGhrvaWrBfQ3Nvdnu0HOPd0tWVDlfasm583NzUBpH4qWi1LYG1tLVtYXs3muRz7RS6Gn2stjWErY5hbFLQqxLjW8mhG35RAgGbMg1Il4AY6tbCc3Z+Yy757MpXdHp/LhueXs1G0zTV3U/4XCjXENgmKXHsrbdmR7rbsVH8l+/hwX3ZioCtttAGapQ7dlh7mkE4y3s84FE0yzloVnAMenNqam7OejhasCW3Z3h4PRe0xrluScvxSmRII0CxT2g38LLUMTbFP2DwfTMxnV55PZ18+mMhuAprjaJ3TbKStaI9t4iRyEjiX2HAX0Uj60SwPoHE+HVxIQLrMzw+gfR7o6UifU6xN/G60nZeAmqVAuYxv2sORgPlgcj67M8Y4Y1nwml9S61wDIJuyvnXz+6G+juxAb2e2V2sCINqefNnNMa47P6TRgxckEKD5gkDir8VIQHOsWsbF4ensz48n0yY6DICusHkKlD1soJrm8lAfIVAXZhsbcBMb8SS/f3t8PlvOxrKHUwvZr44OJM0kmfMCL4sZtC3cleFMZtg01k+nshsjs9k9xvn2JGO9vMK1mq2AqgKrB5221qasgrO6D//1EID5/t7u7OxQd7afQ9HBvk4OUlvoRPxKSKBACQRoFijcRr+1Wgd7Y/JfuYk+mJzLLj6bzv4DDVONsxPTa1W7ZPMENH+6NVV9oETXTgOc+j8fsgHvwWT7wYGeFFnbiVbyst/+6XvGT7dbAo61TYvC1OJyGt/zmN+/ejiePZhdyu5ML2UdDFKHB6P1wXJ2CLIaCdr4YTfgObewkq3yw5W17myAMXZsm/k3D0fRQgK1IIEAzVoYhTrtg/vo5AImOQDzm8dT2TdPJrPraB7zAGC7m+cm39tNthVYXOWrASRuypcx7w7eas3eVjPZ25NMfZu8XXysAAkImWqQjzkMfYsl4QJa5s3R2ewpgLmIdtnHoUitsYVxz+Fvje8S2PIDQXGV37/M7zzBhPsxhyPTkI6gbR7s7SD4K7aqAoYtbrkFCcRM3ILQ4lc2J4FVNAm1wyeYUy+gYf7+7ng2BYB2gILtIuEmWzLb8vEVAFM/p6bem4BvC3/vRDs5hTkPt2e0HZSA5lbH59n0Yvblw4nsj/fGUsTsouZ3xroXjfGn21/mgaCpj3vagxVA28XvNXFfNU6stdFCAjUhgQDNmhiG+uqEQSBGSo4BkN8DlvowbxEIsoLpTnPsX7bJ13tvf09NxTYBcN6bqqaraPr1p3nKQvpA/FGqBAzweUiA12XGexjgFCy1zeeBXZvpTBpDx5cD0Cj3+xptdR4gNhjszGBXSj3qwfcZLSSwkxKIGbiT0q/TZ5tOMDK7SLDPbPbvD8az//36yLo/q7qJbvW13VQ18ZnJOQYozwDCj9igRzABdsAWpEbT/FLf6FafGr+3GQmMMt4X8GGe54CkZUGTrDmYjsnrtE4UUmOin3O/+5h6xzgczWOOX+Ug1tHaR4pKbFmvI8/47PZLIGbg9su0Ye9o/t0MKQZueN+wgV7E73h7bF5HJKki1WjJN0kN+eF30Tw0BarNTLOhumH3s5nq94oJXe7004/pIclDzP2peQ4xkFQQJStWev0wZpvoVv5ZYbaZ8W1GUx3lQHQJc20rVIr6QPVz7u3uSKkqm7hlfCQksO0SiD1m20XauDdcYLOUDs8AkC/wa30FcC7zM9NJVABf5tXaqsQMIplFE3Fj3d+NNrIWjq+tynKrvydgzjPG4wR8PQQwn3CAMYJWDVPw22rTrNvCpPFQdHkUXmKtvQI0B7MPDzUHaG5VsPF7byyBAM03FmHcQLA0OCf5tIZnskvkYt4AOIcB0ApI2bXNROtuxvmGrBnQJHoDR4ysjVauBFKKCfIf14fN1ynmQR4l+yY90XftQWteUMY0+4A0Izcrx7mVoCLHWiYhg4SihQTKlECAZpnSrtNnzcEX+4RN7drzmeyrRxPZBcyyU+Tb5RpmEa8taKq5GnEpaLt5B2YWIelX31MuWdOKptPBZSVbZhDMmhXwtqOlQCK0Vsf4JoFGMkcZ8CVJwlukGwVoboeU4x6vI4EAzdeRVnz2RxLQh6mmZ27eZQDzAhrmNTTM+9CmdcArampJUc07p4s/DLiM5PeiJP3q+2qe1c+oiVaaRDXAtfUI51f/5ub+daPGObW0nJ5xhbmmv9Ogr340zS7SjiT3jzmwOZnGp95MAgGabya/hv7tMSqUGClpWskf7k9k9yBhNxCoE8DcLk3jZQLOq26qdQxgpqu0VZljXvb5+HkxEtCvjLKZArOK1PTVOLuZVE0A8100zhmAegagFrDPBsFFMYMbd/1JCQRo/qRY4ocvk4CbpNqFhNuPAUxNshIXfI+WaW6dG5v0eGU0NQt5SzXRqW2U9NgyXm33PCNp+Wr9bxb487deONc4jZoeYZ5NonXCJ5R4iVvxme/tqkbUmnok7V60kEBREgjQLEqydXpf8DJFq5qHee7pdPY1eXn3MMdKXFBhsyqDYFvrnxUy1C4FzAPQrPWibebEB3Uq+pp8Lct7merj4aVaqq1YwPLuKR+Xefh8bjm7hDugzXQUtF01zhODFeZh0EPV5GSpk04FaNbJQBb9GskMx0ZlQIYm2esjBv1MZv9G4M8cEZNyi3ZxFdnsA11IvqsKZllLSO2jBuOBns6slzzNqK9ZpPR/+t4WkFb2PQCnpnKngIcax8qW517+9G+//k+1LrRzf32nWjaec1kpZwoAtQ1UmAd8ppWOhI/z9eUbv/G3JRCg+bdlFJ9AAgZ5jJBC8git8jvMsd9BcXaXqiXyv5pWUoZFTD/mAv1wcz7W35l9tL8nOzVQSZUw3CiLheyYBj8lgbZ10BwCrPaj9T8BQE0Lcb44J4rU+aRkdE6M40e/Pj6bdXW2pOjd00OV7DR8xIJ5tJDAdksgZtV2S7RO72dKh/Uvr6zXw/y3h5OYxFazTjbGN01k36zINA3PsUsKkMcAy7872p8dBTxT+ahAzM2KcVs/p5m8rYVamGj9BwDNwY6WbJiBmgU4Eyl/QePibXUFqM/KRjSMximATvO91hALlAdobutQx83WJRCgGVPhlRIwrUQy7qcAplGy0uOpba4CoonYDAAr2gxm7t8yu6Nazdv97dnx/kr23r5uALOSEtx9/nabAV8plPjHHySg3AUwC0i/h+YvWBoUNk1Ua5Gq/w/jzdzw+V6WoLs1kWWdpJ8MVtrJHV3J9lEexbSUaCGB7ZJAgOZ2SbJO72P+3T1MX1dh+vmSoJ8/cUlnlkyybFVuVkU3AXMGv9Ve2Lx/fqgv++Wh3uwUVS8OU2tRP2YZpuGi33G3338/fLA/PzqAnb45G0bbe4Dfu4y5odzUODXVykZk9RtNwxmYPUU/Pj3cF6C52ydXjfU/QLPGBqRWujMD56flvR7qwyRK9gosP0bJGvRD0Coln4rX7gz2ACuJzmzJDna2Zicxyb6PhvnWUFe2hwCgDqImo9WGBPQzD6LRnSJ69eODvalTWiSMsk4Yxh8ebgTSH7TEbeh6rul6K1OhvDTX3qDCDvidAoKWcCNorh1kzkQLCbypBAI031SCdfr7AuZNImRl+vkC7fI69TCXMLnJ8gNeltIEzCWA8zCb8ccHegDMnuzdvT3Zwd7OFAxUSifiIZuSgBp/B6VsDjM2f39sIDuAWfT3t0ezMUz7mtcdx1YgM0XXbuqOr/8hNU5zNHUp3JuezxbIQ5nHjaDZ9lf0KUDz9WUav/HXEgjQ/GuZNPRPZgHGWbTMm5zUvyVC9iL+qevkwj2ZWUp5mEWnlSh8E9j5P1GjWT/xXfLvPj/Yl72Llilg9hF0Eq22JKBf2WuQKNqutq6sj3EzJcQyYU+pefoQcy1DmrROw3e2W+NUGtU+VDXOSYBzebVa11OrifNI4gP9m1opooUEtiqBAM2tSq5Of8+gn/vjc9n3BPx8g1n2Ft/PL60mph9P8mU0QZNHZsfY3D7Y342W2Zud3dOdTGydYZItYwi2/AyBy9xNTbWfctDpI3/za3J5rbGq6dT6m0JmkRqnZmAjdyXzH8Fisrw2n/XQBw+DHzCXAjS3PLzxi0ggQDOmQZKAxOsLmLIeU0j4Kv7LS5hl1TCfstn1sAkWTY2XExeYNmCUbAdko8dJJ/mETe4DojJDw9wdEzVpeyBiL+B5do++5zZ4YpezW1guLB82QU6lVoQi20aNcxof/Bxz+zIWk1merR/8+EBX1oljvsL3QYhR5EjU570DNOtzXF/7rZ7iA7oFSGqOPY+GeQdSbAv+dhNNUYaGKVhKXDDPN58c6M7eY8N9Dx/mz7j2EcQRGuZrD+mO/gKYmcYMnoHsEzROAerbJ5PZt4+nUv3TMjqXa5z2ZRTAXlqdpzLKeCpj9j6HMa/I5SxjJOrrGQGa9TWer/U2iRpPkxlHf8nXL+DDNMfuAlrm5Hw16KeiHa3AltOtqXykklJEPJ5Aw/wNxAUnSSs5RFqJFG3RdpcE1PY6OG21MX80rR/i4GMqyCPmmVHRC9jfq77rv6id2xlVq7RyjdPnqXGakiJJxwg5x2qYR5hbmpJb+V6AtW13H6p3jT/rSQKxG9XTaL7mu7hpPUCjlEv2PIApPd4Tgjbk8jStxBN60c0ts0pcwOYKWB7tqyRfmCY0/WLt5g1E27UScAoJTAbivENAlwD2PXPtKgczq5UYIc2PEmgVlUBkH2SRcq5pqn3Gc7WoCJzvYsk4RQpTPylNgmwJU37XjmV0vCqBAM0GngkGZdzF1/QdxOvn2US+YjNzZ+lAOygLrDTLqoHI4vI+m+o/nxyiUkUX4NlJjl0A5m6fnmpuapzmcX6EOVQ/pwWjh2eXksnUg5sBO2p7RRk17IMuBq0aMhZJgLBMGtUj6r8aHNQHYJoLLB1koOZun3HF9z9As3gZ19wTDMF/inYpccHXRMmeAzCHCfiRVaWpiST0EnqsxqGGaUmpk4Pt2VsA5Qf7e5PJzHSFMJOVMAglP0Jg1Dd9mrH+HYejgz3tcBnPZMMUAhA8fyB5Zx4W1ZzbAugCKq6RtddGZgkKGsue04e3MCNLB1g16xbXh6LeLe5bjgQCNMuRc009xVxMg37OEZjxNUE/59k42lAxLbmkgaqM7SJpmGyUA9iB32Gz+vt1H6Z8sht9TDUluOjMG0lAc6iAdBrWoEFybfcCUNNEtHqpARq9rbZXlMZp5723ffBZmmqvMvc9RNoHa7Oqdcb8e6NhrvtfDtCs+yH+ywu6MUi8flviAgDz/LOp7DE+TKNksZ5lTeub2l9+Y/u/S+wwIKbmsJMUjz7DBvoJtGtvw/SjD7MTzTNafUpAsPJE1mvtTUzvSyvdiTFIy8ItGKfu4V/XApFrnGqF22lxyO/lodCcUZ9lWbEVaPb8twr9Gqcu57GBzuwQJBoshwSw9Tka8VZblUCA5lYltwt/b5IN4jJAeYGAn5SHOcYmxebRw/HbE7ibSdFN0oJZnjkEaH4ENZ55mGcIxDgIgJqfGa3+JaDG2dEEnzBj/mvo7czl1L4xip9zBgahRSZJVSstTha5xmk07SjXyvg8YD2e+vCbbDBVR6lqnGWsiuLeM+68/RII0Nx+mdbcHdUwE5dsysOcya7AKfsIjVOzlAE/qe5hwb1WwzRSsgJYCphvA5Ryyb5NYMg+KmR0R1pJwSNQO7ev+gwzUolaslYCvmyjaHhzuA3uEJwj5Z5NE34T80bYyrVEf74dzft538RSxDMm8G/eWZ1LEbaaaXsx0+6DkcrSYusK8rb3YTveI+5RvgQCNMuXeelPNKXkEpGxFwm6+A5N8xFEBksgWCeAqQmqjLbIDjiHhnmMoJ/PMcd+AGDK9HMIbaOjJUyyZYxBrT1D8LSAuBVIfnmkP82F398aSeQH87gM9HP6GQN3ipqmzn8BVHI/8zjvYiKmMmcief8lpc4G4NJV4zRlJVpIQAkEaNbxPFDDnEabvIGG+T0BP1fRMB9CkzdBcV61y6I1zI3UeBUCfnrYIM8QOfkxYPkz0ksEzN6OIF+v4yn4ylerapxNaJxN2bH+ppQraVS3lVGeEM2qxlnlqpXovRiN0z7YqtG7pKMsLOHzx6+KyVZfq8FKctUOELik3z8H2Ve+WPxjXUsgQLOOh/cBpq4rpJOcx4epSfYpG9EyGqZgqU+njGZaiYEdZwc6EjPMp2iZbw11J5NsaJhljEDtP0MgkgBBSruPmB8GhP05EaxXWXyMdLUV6Xd3OahN+tXKLIL2t+RyypX788P9qV/VXM7m0taO7xyt9iQQoFl7Y/JGPfJErmlL/9A1gPI/7o9XfZhsAvMgmMTrZWmYvkg7O53EBfow//tj/SlK1gCQ8GG+0TDX1S8njZN5ohlUhh5p92y6FdQ2n6N5WiOT81ehGqfg7foRpBfIW3YN3Saq1zQYGYNSIWsjvKkbKrhut5/Vd45W+xII0Kz9MXqtHhrYIMuPVR2kK7tBaa9xzLHuOIKlG0PRzc1NDdMUlpPkXb6zt0pcIJesWkREyRY9Arv3/smHiRnUiOr/dHZflQ8Z18JjAtcETgPKivRxujxy/6UWEv2cl1hLfv8+bgUJOPZDytBGPEBZ1prdO5r12fMAzTobV0HzDkD5r7dHsjuTC9ldLtNKqtR4JSDmujzd3Fo4jx8n501qPMmxJS6IPMw6m3Db+DpqbgKR80bQPD5QoTpKczZGKsrEPNqmqSG4F5oLPPzZB0FZjXOR53n4u0QA3T3WlH5OtU2DgwRW+xmt8SQQoFknYz5vuD4a5l0W9zmo8QTLSYKA0iZkAEMJ75kTF7Ty0Lf2VLITAKUFpAVMw/jNvYsWEtiMBHKN8xgHrd+cGMy68Xdeoc6r1XgWAc6cACHXCjdzz9f5jDO1em/oHjl0zpA7akBdx+1R0mOWSJWyKPq6xhnz+nVEu+s/G6C564ew+gL6X74HLL+4P5bdBjBvEjovlyy1nFPYfhmvyV6WiAu6iZQ1B/O3UONZrUSzrCf42FvKGIX6eIZzReCUcs8o635A00LpM7gaRgnOmQfEyqDcEzgFTeMELlOZ5R58zWNovWrAqTIKCyw0zvqYc5t9iwDNzUqqRj+n2eoRC9mAhQv4Xu7y/Ti1MNUsvTwxFx2wkGuYEhcc7m/LjqMdCJq5DzOqldTo5KnhbuVzVv+35thjlI37/Egf5v3mxGj1gHmuCVVAA9eqc91vtqnlz/d2EiwI4uY2TwLat7HmfPlwAu1zJfEmS7mnFcVApmj1L4EAzV0+xlKPfUdo/LeE6N+CCuwhXLKs8ayDBewSLmMZ6/f5gRqPYInPSBt4Fy5ZC0iXVWJslw9jdP8lEhCHBDC1Tf3hBpJNoWmayzlLasgcGmeV7u4lN9iGH9sHtV4tKcv4Na1Bq6ZrZaAKVVvsk6XPWpuDpGMbxF3ztwjQrPkh+ukOpgRwIgovEiEraGo6MkpWM5Jm2TJOvakWIhuJ+WuH2DjeIXjDPMyPAM59BEz0BDXeTw9e/HTTEhAwPfiZoiRo+v2zw4tEYDfhv5+Hdq+qcUqC0EyIuP++UUvc9INe8UEB0yZZhxmj00TUzi/PJ0KEvZX2FDB0HE1YC0uucW53H1IH4o+akECAZk0Mw+t34gmA+cW98ZSAfW9yLtUGNEpWP091ib/+PV/3Nzx5L7GRHAYwf3G4b51Lthsi7s5UN/F17xefDwm8TAK5xjnkXMNXLifsF+Qgj8MZOwOITa8sJ8g08K2o+S92eiBlmSWzsHVAv3gwnioH/f3xwcQcpOYpcBbVh5fJJ35engQCNMuT9Zaf5AnX5p9uEFYruQFxgXmYV9Awp4iSncdsVIaGmVPj2RcLSFsP8xSpAVYrkXzdkPw+KMeihQS2UwK5xtmFVeME802yd9eBxaMtPrAypX+zyhykr1PQ2m5tL9c49X/ox7cu7V1iCWboh2BuNO1B5r9rQIajHOi3Uw5xr52XQIDmzo/BpnqgKRRcTLUwv3k4DnnBDD7M2QSYbhICpou0jJYH/pwZ6kgJ3+/CIyuX7H42i05O2tFCAkVJwCluRGsfnMUf4wowgvUbgnK+wac/jJ/TQB2hs1ACBDrhevMU6xcDgqTc02XyK0jeLXdmv1wLar7R6ksCAZo1PJ65hqk5KJmg0ChvkSv2NZuE1RhGME2VrWG6IRnR2EGo/UlO/FYsMRH9MEE/QY1Xw5OpTrqm9igQWQBAjdNanAuA1iRR5LAgQIAADR5+fVvhGuc6IJo3agFtzbXy50oTeYz1sKeLuqEECIXGWSeTb/01AjRrfDz1G84TJXhzZDa7RnK39HgPphYhLuBEzb+VpWHyqGyBvWiVjeIsQQ9nyb389FBfSiuxCkRQ49X4RKqz7olXmkvV5s5ANGDgW1cKPJskqnUpBeu4dor0cb4oUgkX5Hv26+esjQ85ULo2ugD4pJm++Avx910pgQDNGhy2XMNMgMkpWgaSy8NT2R9uj0BgvZg9YVPQXGvQT9FRsnlfPLsLmC2cnC3v9c8nB9NmpYYZJtkanER13qVc45Q8XUuHWqdtDmtMUzbLQRPWIA6bhuRYLdO23T7OdNMNf5gzep3DrZfRvJYWE9xbKLLe3FaMn3XD4+PbkiQQoFmSoF/3MYLiFP6Zq2iXBvxcJeDn0TQnaEA0mXvSZvC6d339z7vd6MNUk1TDFDA/PdiXmH5SjUGdOtFCAjsoATVOznLZKcDT2TiIdreyNpE9IWd5geAgwcw1U6a3XTrLf70zmj2bIW+ZyHKDgzTVWvUn2u6WQIBmDY6fQGXQj0ncF6jw8P9efw511zJ5mMuptwY5uAmU0ewLedzJh6lJVg1TajzJtPMIwTL6Ec8ICbxMAq4FgfMU81Ou2gpm2vsTC6lCydICFHgAZyqHV9KasZ8WTXgIa5GR7fo4jfZtaWpjzbzsLeLnu0UCAZo1NFKadDwVy215Dc3yOv6R82iZzwgwWOTntrKo8VK0Lo80rcQoWYN+9GHqP1LDFDCDgL2GJk+DdmWjyVXCA6ZrOtD97vQQjFQdaQ3doxi7hOsSfySNswTriH5N1+wtwPP/uzVCHMI8LFndpGd1JSrAcGns3gkboFlDYydQWf5oeGYh+5KkaavXW4C3apLFBMVJuazDshgtcYF5mNYRNEpWLll9mGUFH9XQ0ERXdpEEzJX87Ykhcibb0TAziN5XUiyAtTGLJnnPxeQR1ziAR5iIh+fGsiccfOUzGiRVZhCNM0Azl9Tu+xqgWQNjpoYpYBqyLhG1WqZReI8og2QIvQtQsExXwadk/ZdyyUqNJ9OPxAWekA22MBIwFnsNTJjowisloO/Q6/hyJZvcb2CQaVLTaY2ZHmKdTDXOMtaTNTitQOS6Pv9sin5QNo+1dGqAovBE/trPaLtLAgGaNTBemmTVMPWD/PvdMao4THEyXkDDZHHTv+SPKamf+i8lX5dLVmo8mX4kLlDDjLSSkgYhHrMtEhgih/OzI/3JTGulFAHsGZHnj6dXqhyx68C5LQ974SYCsu5L169ujHEsRl88mMiecjD+R+qD9mBHHuIQGqD5guB2wV8DNHdwkNQwTcAeoVrCY6jALj2bzq6iYUpcIEWX/2aAg1fRTQ3TFBfLew1xSb5ueS+p8WT6CeKCokcg7r/dEuhImlxLMsladcd6nNdIB5F+z7mudceUKoFto290O/qRr9j8vlZHGWFNu5Qvw5vbDWi+tZ5f6mFUDbSMdb4d79bo9wjQ3MEZoIapqUgNU5YfNUzNOJY7spXpO8w1TOthWqXEaiXV6vRBjbeDUyQevQ0S0KXwDgfAPqjtBKhnxAxYEWicyFZ9H8nPuQ3PedUtBFGfs8BCkwJzAuDWVNxN3+yXV3Oko7xKhDXzbwGaJQ+FJ1vWaap5mQin0TLNwZS78hY0YLOchgVTAbMM4gL7YmtlwXYT9GN5I+thCpxWKwny9ap84s/dK4F2/IbH8M3vRcOzKsp9Dqn3jRdgLUq55xooinIvl1qyGPEXTcT3ORg/Y93v6WzPhohEP0yUr+uvi3/XlBsaZy612vwaoLkD46J2aRV400n+272x7A6VEtQwDYm3lalhGvSjafatPZVkjtUkqynLepgR9LMDkyMeWZgENIH+jPndhWn0/NPJ7NyTqewe625kTq1vtRSN05dT61zheQYGPUHrlXLv85Xe7ChxA/2AqGblaLUrgQDNksYm1zA90Uq+btLzFdh+/ivUeDL/6N/kkFlduH5TYMup8TxhN/EsQ+FPsGB/S51C00oO8X0UkC5wAOLWOyKB1mYsKWicXlpxFjGVCpZTfDUQz/WQr43cF7ndHXVle1n7VsvSFQow0C3AkkhaTMftLS30LUjet1vu23m/AM3tlOYr7sUaSQtUwPzuyWR2CeL1K/g2VtA4dWUY3ZcvqFfcZlv+yc1BDdOghDNpE+nMPiZKVqafQaJm213F0UICdSwBo8F/ThmvlkTS0ZwsPTJuGSykibSMjVGLkmvw/uRC9nsKyk8trmafsh9YIUUfZ2ictTkBy5gbtfnmJfdKDVPz69gc1d6pOP9/XRv+oQcunoSYP/yk2G80AstY0gJav7NXaryh7AgLVS2zlU0kWkig3iWQa5yWGFu1eDXrUxKRKdZFB8sxrckChaAmS3W9zHLtt3HPfP/c2rgrqSJKJ+uymmsaZtoCh2DLtw7Q3LLoNveLVpM32OA5+WHS4klaYLTsTjR9lxxmUy3CswMd2QkI2D/Y35sAcwANsyiT1E68azwzJLAZCeynAsknh/uhtsNJgYZ5d3w+FZWeg0XIYtdFg6d9NA+7m68j5HB+SRS9nNOfYjI+zvrsoVJKpHttZiTL+0yAZsGyNhLWnMtHBBx8/Wgy+xP0eC6KnWhYfrI5+tNDNOFZcsR+c6QvfT1KxGw1am8nehXPDAnsnATMQe7HFGrxaF0n5lPew1xqOkoHRpcyQFONU6uP+dp/gnfaUoDmcapxGkkboLlz8+Onnhyg+VNS2YafqWEug1JPIC24SkK1kbIG/ki+ngcbbMNjNnULNUwOrom44Nhg+3p5r97sXSIJEzUeCzRaSKARJVA1gzanyFVLeBlZ29U+nWXPLf4OBd66xukKKcoSk6ejuF9olXoIaHvAngbE39+/koalC8KRAM/amKEBmgWNgwtADdMF8OXDccgLXATLKWquoEe+9LYCptR4Mv1IvP4xOZhvDXWnKFmrlUQLCTS6BEz1+OBA3w95ybOsVQu+GxykxqklpujmI9rRLGd49rccskfQOm39rNtg5Spa+pu/f4Dm5mW1qU8mDROAkhbvPnR4F6DGk7rrEX8XnsqEKIOPwEtOqFVqvLehxvsA7VIu2X34ciKtZFNDGh9qAAlUNc729KaTgJUH3raWmVTE2rQUD8FNrCfXb5Eapx1ILh1MtLbBzplUnu9tNFDZjCzVZ1+DACGJZ0f+CNDcZrFr0tE3co6T4h8gX79JHtYkLCRpsW3zs/7W7UwrsbzXSYrgfnSgJ5EXfICWeYi/d5APFi0kEBL4sQT0bb5HcJyap8FxHah/t4lHeACDUBPrqQzKPfcKg4OsjvIdRegfE0T4G4C8mecfITjoAOs3QPPH41bm3wI0t0Ha+ig9HXo9o37eYxbYZfIw1TKf8L0LwMVWRrMvrK2kYXoqtR7mmcFKqlYi+bqA2UtNv2ghgZDAX0tALU5TqGtnHtCSuUevoukgHojXWOMSvRetcXp/WcOGlxazSfoxgLWoC03Tg7C0gN1trTB2oXGWtK/8taQa9ycBmtsw9oKUp0K5ZC9CjfUN9FzWxHTRCZgEwZXakobJ4j5J0M87RMl+gh/TepiaZEPDLHUo4mG7VAKy8xznsGkAji4OXR2P8HE+JcJVAoQyNE73jU72D83Ct0lTmxC4WdduJ/LVyg2tJhytXAkEaL6BvNXqPHVarcAC0vcn5rJvAcx/g09WYmgNoGVqmC5uAVyOzU4W+1uQFfw91HhvwyV7EA0zou/eYLDjVxtKAmpzR/oq6VLDFLg68HHOoXmOrS6ldebaF7KKMpV6X4kWjH63IP11ckgrrG3tRAsrVQ5dmYOk3SsjUKmhJsArXjZA8xXC+Vv/BFZm05YYwt/wPRqmicnWwpxjkZXdBMsFTqFrLLSz+D3eJ9hH4gJZfqTGiwLSZY9IPK9eJCBblvma7ZhsDQK6Dmfss9nlFCykJli0sqepVo1SgNbd86e1iVQNyQP5Uda6aWOSIEQrRwIh6TeQsyYb00ieERmr//I/3xr94W5lG02E6Xn/YIUd5YScU+NJXCDbSbSQQEhgaxJwDXlZvmuJA7H+zeH5lZTGJZgWHSGQa5wCp3nfdwlMkgZzKGmZVfID3LDRSpJAgOYWBK1PwwhZTbJfPJpIJX7uYzrxRJi3skBTE5GXmuQnB7oTNd6nB/uyE2iYfZw+i67Jmb9vfA0J1LsEDoBMnx3pTyTvFdwft+CMHSc1xHgGwbOMteZzmthonrL3/Csc1s94vrmkBvmpcUb92+JnYYDmFmRs3pa5XA8wxf77gwkm71jyPXQyoctu4GVi++mAi+s9Fs5v8GFarcTafJqSijYdlf2+8byQwE5JwEC6wUp78iFK8t7EdQnGoAlASyBrLaHqQitbjMA5QhrKgxkBE45cBFLh0GyQX4Bm8bMjQPM1ZLzAAvFU+QCWn6tEx16mtNfjqflsTeemPocSraCahn2s0X3HOGFK7vwexAW5DzOqlbzGwMZHQwKbkIDBNl77e9qzd4kXaCEApwm07GyZTZR3umo0pboNFEWAkN/XwCSvMTTNi+xFPncBEPdAb36pV7RiJBCg+RpynYOPTpPspeGp7PcQF5wn8ViC516OfxtNs69xyy1/VMBcZNEcwK/x2aHeRI93lihZAwM8iUYLCYQEipHAXg6pve2t2QE0T1PKuvB1Xh2dy54DYO1sBGVEsuYk79Noud8ST/GcaH1ZjCysfZYgwADNYsbeuwZobkK2VQ2T6geklFjaS7DUNCvTT5nEBXbV8HPzMKXGO8xp8l0WiJd5mHu62kh4LlHd3YTs4iMhgXqTgPEDXvtYi2+z9lJcK+BpOsoMwCXRegv/BpYmDbCI91ez9KBuxLwpb8/JH70K+xhbQyJjkJxBdiPjGoIAYXtHIEBzE/LUJKuGKWDqw9Qs6wnPaDb+L7UJmDMskoNomB9Djfc5QT+W+TLROQCz1KGIhzW4BASmUxQ+kMO5mbPqCgB2jeCg5+wNbqyVEiw++jgrbEJG9d6AAGEMH6dB9OZznuQg7eEaI3KDj9T2vn6A5ivkaZTsIn4Cw7wtIH0Jajx9mY/wY7axIMomLmBNphPu3s7m7ORAJXHJvruvOzOqLwIAXjGQ8U8hgQIkYIWgvd3tqaj7PPEO7hcLrFFBcx5t06h2CVCK9HFaKFuNdpHNQUKVWcyz/diIeyFnMGfbmId+aDMF+DLMxgWIueZuGaD5iiGRtMDCsN8+mcz+271xynz9xSRbpg9Tk4tmmDmOkG/3t2c/P9QHYGqWleknNMxXDGH8U0igcAkInkasmw/dhntELe8KptI7Ewsp5kGfZ9EbrcCpxtmEgdZyhLIYTWMhs8TZO+wTJ9A6u1SHo72xBIoeyzfuYNk3SFGpAJTk67Jv3B6fzS5ijrVqiew/mmTLyMfyvXPydUFTH0oz3v/jJFn/gsCfsywCATM0zLJnSDwvJPBjCbg296Bx6kM0erV5bTWb56vBORipgDFK9KFxaiTNo19/fIc3/1uucfocD/tjC0vJEibBvP3rxZ1DFfpUViw0zjeTd4DmC/LTLzFGDpSh3H9+PJn9GbBUw/TnmmP5v7QmWOrDbOKhmmO9PqS012mIC0xktiJDtJBASKA2JCAY6SoRwLQK2e4RMGjVowU0P/ePonU9tyej5907JECYI/6hCdBk+2LfqCTSk6Dcc2S23gI012WnVufEMuhHDfMO5pU/PZrMfg/rhv9gWomRsmU0+5I3AVNwfAfigt8dH0h5mMcAzwj6ySUUX0MCtSEBQVPrj5etwpm2G8Cy+tEC4OWqztd2URqn9zUdRY3zGYf/21RmWWX/WsTHusDeZp1QyeiTZlrSfpaEUUd/BGiuD6ZmlfG55aRVnke79HqEhmmVAYGrTJ3OxWVqib6Sk5hj3wIwPz7Qm/wmkq9HHmYdrcB4lbqUgAFCP4MAoQkCBK1Fd4hsfUZ8hGlqgmvRG6/He11JNhmLLqIErPL3DvyuZxZ07XRkQ1iror2+BIoeu9fv0Q79Rp7rdHN0hnqYBP6gYWpKSaApcJbYL0GTIDgmeFMyqahhGmhwHA1TIF1fCyX2KB4VEggJvI4EpNwbwodYITAo+RVZtDNE2EqA0OECRyMsurXzCMsEyk37hOeaRyrVp5qn0bQBmlsbgYYHzRmiyybQMB+gVV6gvJcBP3chX3diacIQoIoypbw4ZGqXi4Blpa05e3eoMzsNSH5KpOwZ8jAHNKsAmOHEf1Fq8feQQO1JwHXqpcb5HhqnwTj+vZOvwwDYmMQo7C9FuXzyPUtobmVfkVRvimdeInWuSpCyhp91JRWmN4gp2uYlEKCJrV8z7BVyML8m8Mci0vodNG0Ufxb88UBpxpkDrHvwOcgj+0uiZOWSPbxez48uRQsJhAR2kQRk5OnEvdLBQdjla0DhHNH4kq3LVd1ewi6TU+4tApI3MRNb79c9zs2/5UBTivzdRSLd8a42LGiqYZpCchNb/0UA8zKkBfcBT0t+GeVW1Anwp0Y8p8bTZHKgtzU7RZTbe+RhVqnx2iPo56eEFj8LCewCCVg4wWsf/kPXsyZSD8bGULjXzHHJ6mOepdR4RbSccs80OslaxkhJuQV4armqmtKyTD7dwfBxbkr8DQua1sG7C+XVV0TI/gca5h14ZVeJcOtk9hYzdV8+HvovZ5nQh/rasl8f6cs+Jq3kXTRNK8Zr1okWEggJ7G4JmOZxCjdLJww9HazpPqxJ30C0foF9qItDugQIRTcf0QEwm/5yS+5somklQHAvtE5ogObmRqDhQHOWk51a5m0A8wKTVhu//swx/JpO3M4SbaCGhZvOJT/kEJdpJR8Alj+DBNp8r244LaOFBEICu18CHn691tY6svk9Kykafxp/zCQn5iXMpkt8lXbPI3Luj9zut/a+Bjdq2VrgecMza9lN9rsVtM9uQN19qA/KPSP0I3bi5dJvuF15bG4xu4dpwoCfLx9PpcolckYmqqviD3s/GgkU21Te66jBAphjPznYSwX2KmBGHuaPRBV/CQnUhQRc10f6Kil61dJ+Uu7pZ7w5Ngt3bZVApWgCBIFZ7uw8l3NW4gUAXco964T2dfQFaL5itjUEaDo5JC2Qj/EOGuY5UkrOo2VeRsucIhxb80hZGqYOeLVLAVOuygECBNQwf415JCdf7+W0Fy0kEBKoPwlILLCntR36y9YUFDSANUnyEkuKyXO9xMZQtMaZfJwoCD5H4gXzODXdaqZ1X5JtbAhtU80z3EN/PQcbAzTxF8ry8wg7/jnSSvRjSjFFXkkCSydMWY05mcjX50HO44Pt2SeU93ofk2we9NPRUvQ5s6w3jeeEBEICL5OAwGUup4BpMQa3IIMRja2YIe+sLMq9pHHybCukyFpUaZ9Oz7ZO6NsQvQ9IaxTtRxKoa9BMPkMmpCHWDwHMi5hkvwc0v+OS08q0kjI1TAEzXSwYnRcG+vwGDdO0kkN8b12+aCGBkED9S0CfofmRXqahSERgRK05nDP4G90n3L8E06J8nLnGqfVrilgPCeZVIJbxsdr2AupdWMPsa/g4k0jSH3W9S+c8sgLmnx5NYJadykaYlJ6ubNU/07eF/6FJ1hOlNe4M9DlDWsnH+A9OU8RWx3sK/y68F/GAkEBIoNYkoDm0eV8T8Q3VakbXSIPTzzkBiHmwF1CLblJzNnGQNw3GyNr21qkUMPQ+e9QpDvWSNESrSqCuQVMfpiZZNUwB82u+5tplM5OxzKavQJOsGqaA+T+dGkqa5glYf8zjihYSCAk0pgRM9fDyLO/+5G5wb3qRNLSllEZZNAGCmqwECG2oERaxHl9YSNqvgUH2ZU9XW4DmhqlZl6BpcM8whewkLjDgR/ICzR5OyHSi2iCAor/VxCLTTycBP8cHOxJQqmFqmh1AwyzK9FL0e8X9QwIhge2VgOkeJzhQa5Ga5pS9l/1heGYhlSnUOlYG4Yq6hACqS+sRwH0J9iIP9aNUTDna/5cKLtv75rvrbnUJmtOA5m0A8xsCfr4BMC+NzCbuRUGT+VBqY/5Dvr6W9ePwfw+z7C8P96W0kqNUL9FP4CSNFhIICYQEjKjtImK1g7QU94UeDtp/eryWPQC8ukui3FOztKqTri2B00P/7NIy1VmWstbmwR/KnjXyaNUVaFp25zknMzXM70gruQBgPkXjXGLwW/Fwl+nMNpxbwHQRHMP0cpa0kk8o7yWnrD4M002ihQRCAiGBXAJVAgQDcNrTwbqVsmKG5OTpIOPkmKc6mPysKAuV9/Uc7/61QmCSxPJrY/OYa+mHZc7Y1OTC9mrUVlegOcFp6Mq6OfYcX+VXdJB7mHVla3QCpsnL+2Ha+GB/d/YLNMwzBP0YJRtBP4263OK9QwJ/WwIVrFKCkukoHvQrmEdVAlQAOlAFyzj85xqnEb2WM1tkQ/P76YWl7NfHBwM0//Yw1vYn9GHmJln9l1chLXjMBJsmEkw/gDlPZTUpqgz6UcPcB2CehaT5PfKdZPoxLyvSSsoaid31nLU1o8SYOD/ZOP0b2hitISSgD7GHy8Ag01FMCdFcal3MtNexrzXxc4ney9A4FwDLcRQSOpLk30+d0EGuPfhcjcsQxN1hi+pLrQ16XWiaT+COvUFisObYryBffwJxgaeiFIlWHl6msbUeplUMjmNi+Tm0eHLJngUw08kxiAtqbf7XTH/kiVpb0xgneG5sAmYrm1KA5kapNML3apr74aAWRAXQQXyeXxCn8e3T6QRg3bqcChaEs651XemYBKxvk43QfH88BVr++thA9snh/pTLmX+m4O7UxO13LWgmBzWDOMsJ7Ba8jd9jjlXDfADzT9ka5o+p8Zqzbib7aXKbPqRaSU6+HtR4NTHfd6QTzg+1yFVAcYU0guXVRa75dPmz1bVlriWuBYDzBdBEw2xuaseXRS4f4NlMEcaW5g6sJ518bWdDa0s/55zfMCf9HRnEHXioPs0e7LHGY6ysdmVdBAhJQPCYSNYZtM5lYjWcWwKbRAVFNLVHgdn9VkVkeX4tu20OKf5VtUw1zv09aJ3EabTpfG2AtmtBU7PFQzTMW6Mz2Pun0DJnCM9ehBkPdg1ORmWOn1tirmH+bKAje5co2U/RMt/Ch6lJNoJ+GmAlvfIVMbER0rG0Mkvy+CiuhBE4Px9gansCddkMnMhTbIqzmPXn2QSXf3QnNcyW5krWzNXZ2ktZqW5M/Acg1T7ChrqX6hRD/LwHyHRrK1rv+FHX4i8lSUAtTnAyFuKz+T7IDpqzq+x737PnWWxCVrN1ZbCwHgmHuS9VnlwzAi6g8Rpk+T573c+PDDQMT+2uA01BUdICiYavoVl+9WA8Ea/LYrFEQqT1MMvyYXrKq+oQmDB4rpRTb+HD/O2xfjTMHsKzo7xXYau4hm+s9qipVY1yCY1yZV2rnFsagxT7cTY++zB7Pns1G527ha9qAtq0UT47k4Dzr0AzaZZdbIpdEGgPom0McMI/SdHgd/h6hM30MMC5h0NiJ1qn9Vchy+CrGoJaabTdLwE1Tjlg1exWCJjYj5m2A4fmA5QE6k8k/6aaoMBWlF9xo8Y5Tx+mSUO58pz8d7IVjLQ91NvJ1ZGqt9R7oOOuA02d0mqXtzHJatv/nhzM0dnlrAn0EizLNBAImBIXmNd0EmYf00oSNR6mWanxokLA7t+wtvIGSytzmLKmAciHbCpXOeA9AhxHcCWMZPNLU+maW37O4W8M7ZOUqFUKoK9RQCAz2OIF8yya5srKIvN6hs/4u8+4zzM2y1tsnL1sUl5DHNj2Zr0dB6nD+j6mslMc4ozS7tpK9+N3algC/ewrspl9gLYne48lxe5iLjVQpyySd614KZcT5UXSmItovC0tI1Rp6snewyUleNZz232gyUDdIg/zq4fjAOZcAk25GU0rKUvD3DghjJZtYUs7NdD5AzWexAVhkt0opcb6XtCcxQz7bOZKdm34v5AqcJFN7S6b3PMfBKE5zStvfuvfX3RNiaEYV5JFY6HKo53+7s/y1qn22XkCV8C73KMV8+3eqsYRoJmLqG6+CpoJOJko3Wig1gEewb84zNW8VrxbKtc4Bc45NM5JNE5dDM+k/SPG5CD+zQDNGplu1np7ODmHhjmXfU2ErCw/lrOxFqah12XGFqbEX8BSM8QH+C/VMj+GuOAEGmYfaSaNFElWI9Njx7ph4M4KfshlgHJs7j4mV67Z63x/JwHl6OxNzK/DAB10ZBsmqSD5IkC+7CX8nJ/Pm99vBFwSEgDkJ2i1y/iZKIE3+W021HUmgWh/56HMS7Ot/tFIXcmluLu/9rLPHIdyb97TExNkb2U6u0+MhzU5pQotYw8SOJ2I5sKPrbvLum9LubeYncRNdZDIX/2gRQUp7dQI7hpNUx/mddJKvgMwdYBbBcDJYbm3DXtRKXIELzGpQa4MSeM7TI6/O9qfHR/oyo6SkOxJbOOGVkqH4iE7JgG92qv4LhcI5nk2fZUi519mj6b+DIBdwkQ7Qb8wuZJG0sSVNpkt9HQjYPrrTLEfN6Ju55eHuUaSn7StuRtu418yJyeyYwOfYLrtYxOV5zgqVfxYcLv3b90dLZjlO5OpVvIDvddTEKybn25Kr0lKRTf3Xfc6gzInV6AuHZ/NFtQ8MR1radu7TkIfoFn0SLxwf1l+nuPw1ulsHuZ1NE3t904JLwdOoCqjaYrVh2nAz9FuyJUxw2rHtx6mPsyoVlLGKNTGM1KQD9rlHEE8o3PXAMyLXNcxxd6Ap/MOgDnKZoLJjKmZT8/86+u8wWZ+x0OcwKzWa/rKGukrY/M3s+aJNrQA/KDLo/g5T6N9nibStp8+yW0aQUKvMw619tlUC5NTmHy1RyBSn6YG5tzqagrEeQJwPmPPVKmQfL2o/TG/bxMHR2NK5Kp9RjrMDfysvZ1t+OtXM6s4HcDHmfq7mclca4L+if7UvKY5wuCfQ7v88+OJ7NLz2ezeFMm1DFBZxaM3ykzAnMGOP9TTmn1ysC/75aHe7CxRsrL/O0GjNY4EllcXSB95ThTs9ezGyP+JFeT/QNucB6AWAC4Dd9i0SjSBOPucglUrhwTbd1JKy8TCXTbQy2idv8reJW2ltYtkeaJrAzTrY652U7hegvd2yN0HKq3ZYQDq9/fGs5uTC7iuqlH9Re9MTnPjSTTTjuIyWxnVp7+SPWWv/qczezmsmU/M3NyqqaXGhqpmQVMNU8C8jIYpNd5NNMxR/JqmlZiHWWY9TMO5wUpC/luyg/gSJCx4bx+FpDHNWmuuk0kbrTEksEiu5cKykbH3AKOraJbf40M8h/XjYTVAB7O94JWDWBlSefG8puYpUcIKwD5FPqhf9S3pgz+waHTtO/g5j9LP0DjLGJ8in+G4eg2gca6tdaaAMQkQ9DFOsYdOsmfmBAi5Zrjd/fG+zvdqkYq1VMj6MYFBTMNsb89U0nRlRFPrrIdWs6CpSVYNU8C8iC9Tpp8lkGsnqPEETGvcHWJifkIi76domXLJHiQ3KQCzHpbB5t9BwBybvZs9mPhzdmf837LHU99hon0GMFXvkQPm5u9YzCfZRxN4L69Osokt0s9pgoVuZxPzv8je3vs/cwDcx2ar2SwOfMWMQLl3bUeV00WkMrHIhlVBq/sG0pdvAc2c8EVgK7IlwwrPV8mQcm95ajH7+uEkwUlL2d9B8h6gWZD0jZI16EcfpiZZNUwBc4pBaGdHKiMqLH81B9+9UPL1A2iYapefA5gfkIu0j8iwPuz20RpDAksr82xGc2wAt7OHE9+QG/dHorm/5O83qr71dZByY3pR8ytbQvnz7YumYn2rS/OC532+X8bvdQitcwhz3jE0zsNldy+eV4AEJEBobZdyjwhp7t+NudYAnWmCg57PLKWCFmqCAluRGqdHMJ8j5Z6sQeaRjqHxakY+AB+3plqtc7uZAKHlX/7lX/5X3rNm2k2ICy4+ncrOez2DGo9TiicnB7t6enZKlNOW0DAt73UMn6WlvayH+Q4+TMt7qWGWCeDlvHE85WUSmFsaxyT7AKD8Bq7j3xMh+3XSMDWDsl8loMxnZg5aL7tX6T9f7xhTGVNdC+tJ/ttVDoMC59HSuxMPLFYC7kuSvcsF2wdYSQgzPGc+Jfsoc6HoaFanWzLZ8o1WOvdvAXSMvVzCl/2A52620NWEeVbzgQO7QPSVeZimlRgla9CPPkxNsmUBVE6Np4bZxsQz4EjQ/ByzrD5MTbKhYRa76Gvp7lVC9RVO7MP4Ly9nj/FfPgY4R+ZupBQS9oCabgK4mxhLDMAkkA3wX566gL/J8k7HyOU8y6m/K+Vx1vSLROc2JQH9m10AZTuHesd7AAvZNEtJ8A4AAEAASURBVCkgT9A2n5M/Kcl7mZR7apzu7TchpBnF5abV7khfR5qTFbIQ8n29KO13U0J7zQ/VhKYpl+xdcnwuoV1+8xjydXyYqfApP/dUZNBVWUJlnuG/rJb3OkMqyWdol/ox3yO1ZB8nJAddU0i0xpDAAnR48/DDPgIor43839mT6e8AnkeYvuaq2qWItFvael9XE1UfpjyiaD0kSrnX3b5nt7xF9HOTEnDP7OBU5x7aC5CqeRrdamqIh6miNc5qN/9SfUdt0718XsJ3gLQHQFcjrmqlu2ch7aimmaJSEeQkAylxgeTrF2H6UctUhGp5+Ulkk/Nkyx/bqGGu8nDT0c/AuPFPJwdTHuYxIr92s0lhy4Jp8F8UMCepRmLAz42R/we/4FM2Gys+7C7BuEm6pszjXFyZYs3dze6Nf4l1Zy5pmeZxps0LR0hZB9TdJcHd1dsElICSzEH6OY/hUuonkPHheulE36YMjVO2NvfWRfb5meXllA3xHJJ3syOs3CJouq+ii6S2G+bejoKmuTyW97pOtZLzkK9fIb9HajxzHl3gZTbNsZb3auEodAYe2eMQFxglK9NPIi5w14nWcBIYnb0DuHyVTLPWwNztzVnsaX+VMmTTiw+y5plmKP8+5GDwmA2shw2sn7UXc323j/PG/lcAJvews7iXfndiCOCaSQQEkiAYXCl3d9HNOedpUxfcCMGeN9jr++6PJd7cM5RQlK9W03IJXXnjV91Z0ERNt2LJ12iYl7B5X+ZqYxATi8Ubv9rr3UCfjzyOFaLONMv+04kBfJjdgGYlRXqpXURrPAkImrdG/xs5wtcxKe1+0HQEncsU2EuguYDWOTp3O4Fmb3YA0Oz1E4030HX8xlLaSYBwdgiSd77vgYJvGE3PcorNaHjtJUCVM8p5ZzDSLBrnKlG1C7AYWUy7BzXTQtayCpVjMn6zwd4R0JxkwKoFpGdTAelLaJrPie5KguV9xKey1PQq+TqmYCbTscH27DSA+fND1TxMw6MNjfYEFK1xJGCKxsziGHmNo0RvXwNUbvL9MwRACbpdPhXy/hskohPC4tfPIWm48fz38NR+ju/rABvpjmwLjTPBSn7TBETM20TOgkb33lIPfvlVImtbCGqbz4YhInCLa8knxzb3b+Nenij32OH1qz7iua0tM8y3ZlIKV1Og5W7I5dyR1WEe5uVn1MIk8EfAvOmJh0VslGzZe5Ia5hI7yAAa5nsw/fwG8nWB0/Je+lMDL7d5Be2C262sLsGk8xQwuUHFhluJVUcO1+amldLnZ1Hicp15WfTadyQuAy1kiAT0XxX1yLjvDktAAoQBiPvPDKEk4GzsJ6/zD3fHCHJbqNbiLGHzVTESm1NlFFxx1pKdBjBncNVpRg7QfGGS6Pwd054NUMr0cx0V/Tm5O6aVyF0oPV5ZLQUhAZievo5g77e81/uQF2j334OGGfUwyxqJ2nuOvLJql3fG/oCP/Sa5ZjOYM6vFLAs6jO+IEKrvsooW/TzlbU4s3EcDGUl9aSOi1tqc0epHAmqc8r8aSXuE1Dn9i2NY+GRaGyYdRF9jvgPnX7f77dU6vXfVwoepFo33KYFBldHmbC/ZCVr29G/uhzxGOPCzGzXV7e7PVu5X6qp4SuTWhaeT2QW0zG+5LGNj9HsnA1nUIL1MKJKvG9F1DHaKX2CO/ZDUEvMwj6BhmoAbrXElsLRqUd3z2ZXh/w0fzARzcykFz9SbRKprzhzpMYjm4dOdv58IHNhas+6mvWxgpW4P9Sbemn0f97d+2My0qGlNOwJI/R6N89nDiR9cZEV33h1WRcnSeuaR3hmf5+A2lj3g6z+e2VMNvuTfy8qeeJ33LWVVeKIxyfUhZAXyyF4h4MfSNbOo5WqXCq+spoapSTZFlOHHPIWGKQH723u6yMPsSHRPZfUlnlNbEpDIwJJfsxAAaJ4VRJyaXvWkYSr1/H30ba5SSkyTtGXOJJ5vb6lG0WYUro5WfxIwRsNLkpbjvJ4kA88gPpiEcm8Uy59ap/tk1ZRazN68UeOU3GaaOpwPJtU8V2Bc68j2ULFFzfNgT2fNHVhLAc1ZBkOz7G18l5cJNb6DDX0Zk4CAmUKRS5yXapgm2R4wBJs8TKnx1DAPYA4Ik2yJA1GDj6oCxzg8nc/QvmbS4SoHlxrs7rZ1yW3R91xYnszGZx/g29xL1Ywj23b/uFFtSkAtToIBSd4/O9SfDZE3+SXa5lNAU5+jykzRdP7JpsdzbAYH6a67QKzLIuD5KdSlFrJuMcS3hlopoGlJLzllpVK6B2COYEfvAS3L9GHmMs83CPkPP9rfm30I+foxTLIDTJhojS0BfZlTAOYIVUzUNjlfNUQTMN285vBtDs9cJCF+L4fIsw3x7o38kmqbFQBJggGtbUfR8NT0LCJt4QyZ2pbXNc6iUkHUOIVENVtZgrRI3gAnRvRzogGfoZrUABpxJ4GatcLEloC+6IljEu05ytTcH5/DAwxRNIBZtoaZv2MHD+4n+OcgoHkaDfNwXyUNTv7v8bVxJSB5wQTmyeGZ69nc4ugPgQj1LhEPkh7255af4Db5ipzNG2gas/X+2vF+6xJw/AUl/Zy6qX5HjvpZwKoFMJ3DIsj/hTf7kMzGgOgUwP0IjfP2xFx2Ga3zEWkx8wQM1UorTNPMaen0majuG/xjbibF3RI9XpkCsC950wRr9NghzLHHMc8ewAkeLSSgBJZWpPd6lFJNzNEUSNTC6rnl7+drzi8/56T/nJy5zxJo5uum1qIX63k8duLdHF+p7GDZIziIVDsmwwLB4jfZr2VoE66Kngu5xmlgkGZa6xffxZ13EdwQTGU0MtPBttPzsTjQ5OWmycc0/0bQfIrwJzgt+NqlqLdKd0PztGSY81FOU+9wmpKL0WCgaCGBXAIraJozi48xTd0EPBpH0/zL+0vfwIU1yLqba5I5pBVb5yeHXADxFdM8wUEDWXYGN9o74wThMBdm0PxMS9E6WIZ3MdGosjUPE5z0JypetQGWh3Gh9YLqbRTL2CkrZT49CkMNlTsBc4QXt2LJMKA5BWjqYN6JJmAaBJRMEOtch9ryo4UEcgmsULB5dmkYv+a9bHGZ8Hs2CTWxXBvLP1evX12a7I+sUUAT0oM1ookl3IvWOBKQ4F2X1QnKIZ5BsTBg0tgTC1qXsXWrRRqA1ElazCixL+eGiYXBrTeGAqa/U9/nTrfCUEN1fo4VqEN5EXXbE4onBP7fkaaoBc7k/IYJIy+ZsyOdiYfWlASqqSZEdMNOIq3c6tpc0rJqqpMldkbAlGfXwChlE63xJCBHrRkFpn24V+5E01SbcETlC2vlOCAqcO50K0wagpSRWKaaWD+tGQEInDtxarcvitrl3wpy9+DT7MDxXVREGI+JtosksAbDxjIgsUSaSQLNrLFBcxXT7NLKHJegufOb1C6aSnXTVVNRjqhpkru+Y6l460qlODJMMOkoVktz/ne6FQaavpiadK7Sq2HulJb5opCTya2G+vNi/+Lv5UoAwxNWiGqCP9+V+/AafJqa5iL+3SU0zaqJtgY7GV0qVAKaSLvwJRpVq3KxE1AlXghQ5vQLnCpfmol3uhUKmjv9cvH8kMBmJKAJyOLMXmqdjd6Ug5qmKThxiGjM2SDxQScxH5K8q+2sairlvzKb/k26QcIFhewETbRMXWw73QoFTU2hHcQvyzjhASFtRzvwzp5Y8svIwCmcyvPUcquFAdjpCRDPVwJV30kVMHdggtbYILg5Vg8RK8mnVGPdi+6UIIEcsHJ3mlhV9sqo7tnw0/JwA0jVMmsAM4vL/vCFZazvwqHsqcWiSqZ9lC34fH7ZH32qVWb/JdJhakPVz/sXX0MCIYGQQK1IoGp9qWp5O7Vn14osXuxHYZqmJ5UK9vABQpa1jbehdapqq/I5CGUPhHZ583/MOXpItZVRypTVQiTWiwMSfy9fAtbYaW5qwSLSynemLhe2LMp/uS08sSoPOEmRies4WuNJQM3O7AeVDNM8nAZlz4QqTvjsarUTMx9qYToWRm7gy/WRKGsy6l54XaWuWyR0WMFrpi17W0rpLghdhosrI7Mw6VeyeVXfaA0vgSbAoa2lg8tSSV2ARQUz0CIHu6WGlI11NNuocNLaTE3NUtLZG1LMNf3S0taNQWU3yX65wj7ZzM7tf2W2XNvVvWcErz7WlhpAzcJAU83OsGWvQz3t2TGuZU4tU1Q80Tat+Ms6xfqcPE90En+mibJvQRFl7s8+6mmah9S6Q7lIZU7CeNZPS6C5STLoDtwJgGZLNxaJbrhw8OtRLitvNbBW864U/rWl2TXRRVJ7JWmbhT8wHlAzEhCoVCWm2aflDB8BOI0DSUpH2b1MIJElQvk+cKSbqxb26VIUPquE/+Jwf/bWUCUJQNV/p3Q8n2s01jMmxPeQyF+HcUIgjdbIEtDsozkSbbO5By2rL33PNNmxebqTo9HS1J5qaqp5q3VGaxwJOOfdn8fQMO/A/fqYfVI3lq6t5F4rURTGwkh1apWTg2DIHsqE1QKLWykr4jCk6M3URrPI6S0okUY5zbSu7UylE6OvtMo+m17MvofXsItBGUTbHGJAojWmBJrQNNkSOE1rou0FMPrJUZxJgFmuQao25J80zdYe0g26aqND0YvSJKD/sgqaSwk0n2CNswlgZbc2gZrnDsI5exAM2cM+XQvlwUoBTU20B7PO7P19PSSprmbXRmZSQWo1vHYEU2ZdTcfexF0B/AalZzrwtbZgezANxYHZCwNGtMaUgJrVUOVkdqj3Q0xTy5ioHq+7EepXHh4i+T+1DjTsnvZBqknsh24yDpH1O+ovf7P77IlXh6ez7ynJJZubAOqeWRZ7mubhBSbkIs99i4or71Pn8z1wYwDgrPtAoI3DYkkXC4pao60JgajqP5xZymaxl1uUu71EB7P2aCfBNEFJ+jab+Eu7kb1sHabIBGhuHLnG+r6tpRNC/yPZvu53somF+ym32LlS7y0HTrXs/o5jWF/2oHUHaNb7uP/U+1m78ov749nNsTnWwHIqQq3GV1bzAGdZsGnMgXvgvf0FFsq3qErVj+JVC0FAyqEUTdNTipvPILbpE5weZgkIegyPoAWhLR82B4DpaC5DKHnwURM7hVPBaNprVCpP9Rww0+W128Jc6/RorGYwUF/nQRbryezRFPWRGqS5UbFPEZ04yLu/RXmogykwqkFev+Ff08DMJ1Pz8LsuUr+SqiIApmW51DLdk8uATM3CzkG8dpRt7CBVsT37cH9PdmqwK9uL60xmonzv3ukBKwU085fsR8VOOZukoSzCyNOHIC48n8lukDPZAaqWAZp5XwRpwdxo3gsjK9kTGPQXZNCHRu3d/b3h48wF1UBf20ix6O88hD9zmnk61DBvrqbphtXVtpfKFh8gg2OAZqVh3r/RX9RScDeez2bfPpzILo3OZNeIOxFIzTiwIHUZjemXLTIR3ZN/NtSVAkfPomGe5qpQIFtlplZaqaBpuDDvnxy6mmpdqGqd+hNNopVbMIEZ0in6VOH9HYY1OuGkmUDjNEjJOm7NgLpMRtbeNNRZZ3S0+peAAUHmJ1bQuPo7j3LCfYc5+ZzowdFE5eUsYNrUXfOddJtU2vpZmyfQNPcBmmGerbuBfuGFpBI1F9OgyEv4MVVgnsxUo2WdD1UfYrETPtcwpVw9hEa5l2AffZjv7evO9hNf0tVGmkmN7b+lgmY+Zl2U5jrJacJBsVD1FFreg+n5bAKtz6Agg4PKap6kKg4K4Hl/iiLE2NJbAE0137dwQuuPNbYyWiNIwIOURAfdBB6czo72/Tp7Ov0dpqpJXn4pHejqUQrObpdApa0vG6wcZ87vZQ0EaNbjWG98p1n23lujs9nlZwT+cF0bn4Wofy3Th+kWXEY+okQ3S2iYXWhTZ8GEDwDMDw/0Zicxy5pe4rystbYjoKkwOlqr4T+CZipSPdwEaEIQDXgl2iYEqbyK1jg1CavdLvM8/atquxdbpzFPUGOR05bBQWqcRgDX2omn1ibTbu9Pda5ROZ4o2r1db2VLQ5y6V0ehXLzKfFiqRpkyJ2wlnuuqD9zmP5nu61GzVrMYYJ73JbOs/sxONE7TTqLVpwSsGGLmwl18l0bJfvd4KrszSSogbjIBU4Wh6H031zDbwIL+zpbsxEBn8mF+fqgvO9LfWdPusR0BzXwq6t88zelCMJKBZYJBGyHMeRRTqYBZlj3d/niq6qQf0i48QuMcg9C9RVMtHdEZfSr1Uyt/tHqXgAFBg11HCT7ozIZnvsoetLZmC5AD6U5wYjo3d3vzVXwfNeu+jpOYZX9Gus1bHGZ7OES28fN6eMvdPkrF9F/AlNTlPIB5AbPsdTRMlYUOLGwqEGU0554+zH7cYO9i0fsY7VKz7LGBCmlPtb3P7ihodqKSH+qz0GlLNipYErF1DXPBJBpnKgPj6HkkphV98tEB3c6EUeMcA7wfkNS7h8ClzvVJNAjxvK1Nv6xIGq1uJdACC45+vW5yFoe6jhHufiDTQDu7NJOsIA7/bp0B68spjZ3fy4TU33kCU/SvMM2eJodZt0lomfU4uZcIdJRT9gkFK67gvzwPI9otNEwJDMxkEDSLbjlNn3EiXTzvAPSqguYnB3uzo2iY+3tqP09+R0EzHyCrobyN47enA3/SnTH8nKvZOKchq3XbPP2UtUnlGqfPfAqF1J9wls9wCrOpcR7u60yVW9IP4o86lUDVt+lBal/3J+QX/y/Zw8lvsnvjX2CunS5vMhYkXY+hAqbg397Sku3rOUmU4q85KBzgZ7V9yi9IJA1x2+eA4xV8l5cBzAt8vQmRgVWfOtnsyspc0OWlD1M+8vcAy59xfUC2wnE0TONHdkOrCdDUb3isvwITS2f2GNPoAzgPXdhzFopGj3fzKqvlGqce13G036frNFLd2N7thQPrZRBTmf0q6/3jOWpfjjRlsbgGO89mqwPtBEhwQp++SqT1Av+GM2FdZStxam7L0OSAKfK3Ugqt0kZ6VeVYdrj/fX6CWTZAc1vkXEs3MTvAffSp1KFol5pkZUN7Zq48+1h7wRpmvlace26iArRRsmqXssRpkt0NGmY+pjUBmmmLQpBE/Gdvc/KwncPePvuAyFpMtcUbDXJx/Pirg9vBwyUv/hYfwKKjzs90Ykse3EeAULT6lkAXJlrb9OKHMKQ8zJ7PXCGI4g4pUmNOBfeAXdf0J3W29iXmI/MyBytnOQA6l3dqpe06Ee6qDj+ZXEiKiGkll6AwfYgFzRQ/sxTKOvi7d8r0cwJLnZcpJW+Tdih1qel9u6nVBmgyeJpDPdu/DwuEwNmByVaO2rwI6vrBvlTZylFrSITBSbfRgMcBcIdXc4a+zQDNUodjRx7W07EXt8FeDkqWtFtBO+siaGIS18FYmgu7ETU9+7W3DGLZ+TWm5/+RA+A7bJ6RYrIjE6yEh2q5++LuWMrDvMCeOr20nPyXlkQsoznfBMxJ0lmsVvIPxwezdwHN04BmL3Eju63VXI89+WAJzY5jrv3dqaHsKvZ3c4ms67ZTzTDsbtByFj/rRQpYy1frJDBVRn5EU1Ki1bcEZAg62PsegWJzmGhnmaPt+IMec6gbB3Cq/sFaloDapQdPK7gMwvhzoOcT3uejRBkoqUG0+pKAJlkDfp5yfYdJ9jJ7qMQFmkrdz1RSim4+Sx+mB8vjaJcH0Co/P9SbWH72sm+2ldGJAl6yBkFTC2gToNlJRNdQ1oPqPoGmt5OgaepLFwNsTulFT2qApaZbzRtqnAGaBczMGrulkbQdrbgOmAvLKxbmhZsTM9fs4niyagqctdwETA76zNdB/EkfEkPw36VqLjIARbRsLY/c1vqmD/MhGua5R5PJ1XUFejyDftQtJZApY7qKlwb9qAgdh0/2t2iYkq+fIX2v17z3AM2tDe6LvyVgOqDm6rSgyp8ZIhiHzSk5sgnKkWC9erIvY9irvXPQnWxJu2TnGTE1BvDUVGvotABq5G+Ya6vyqsc/ZcjxGug8TJrUhwDQPIc7NwRyOKHam18e/cHHyXSomfYXDbOX1K4D2b6u90ke/4wo8PeZr4ejZmbNjNT2dMSAtVGsco/RMC8RIWvQzwO+FzAlYBcw3c+KbDlxgXujUbIvUuNJFCMB+25tNadp5oJUg3NwTfMQlLrROP9IyZrnaJ2twKrAWXZr45nW3lxkAl7BTDtMX0xGWWUynqCfAZplj0j5z5Ni7mi/JNK9XANEn+7NHk9+TaDQKKBqZGD5fXrVE3MNU8A83v/32ZG+z4lW/JxoxXcx1Xa+6lfj33ahBMzDvMGB/s8PIF/n62UuiQtyDbMMqPKgJnGBeZimlRglK9f4W1xmSuxWs2w+HWoWNJN2xw5k8dFmQpJn4KV9xgnKItbjkA9oKvXA5CSopgjkr1Tc11zjTJR79GcJv8F1zB5ulGaUDkCA0MkJytqhtcTKX5xEGu/O1tz0WlszHYp6sGiaHuBW4aadX35G8vgwQUOrKWVK6YihBR/sfxgEAfLFVmkbws2xB5D8CLD/BSbZD0gxOUHaVOOUPntRJvX490SNhxVODfMKkf5qmEbJWhPTOViahsmzEjUee6DEBeZhmlZilGy9KBU1C5r5xPZk0gdwnhgwanEVjbM5+wo7/ej8LOwlBmA4JcptArXOdHfG2+MSzcOZy88slOrk8Gqxuna0upWAdHN7uk8R5d1DGbEB5uhBwvr/yPVv2fLyAsBZBUsBtcwZ6jzcCJ4Szx/u/WUK+jnS/ymH0COJW7ZuB6ZBX2wSwLwKWF4BLC88r+ZhmnnQyj5V1hx0zuvDlEtWlh8viQvMw9xtaSWvmkY1D5qaab0IuuJr1dcpN+0I2qaTwquZgSpd42Qn1HZvsdbn9KWChikt4M8IpbYE2iCWL4npQ+N81fTbvf9mCTEvo2q9+qjDqcVheXWKUncj2dySNQln8H1OJ61UMMtbDqJbPe9tBMX8vt5Ti0trUzdzroIZzCoR3QT8/IqKEf9ITubb2RDFtTsB+2j1IwHLe1mt5A5lDc8/JeiHSNn7aJsSFxiomIJ+tjrRNikm90HnoYE9ViuRfF0uWc2yMv3sJuKCzbxyzYNm/hI6jgep5m0E4KcMhieoK4RRX+USNFMR6/zDJX11o1LjdMLcJ4F4mvQDI2vlDjo9VGGjInF3l1BDlSSyunuMtHMViAKaKKl1Zs8/wVV7nDD/G5Ag3MWNcIvrMhaSyaR5CnbuX1WAezMN1FO98y4HUO/bRq5lb8dxCNhPZHu7T7NZAZSVM6ybM5hj96Q0mbobgAZ/IethmpJXZfqZoVrJfKIfdT8sywqX+zCth2l5rw/JtZd8XS7Z3UKN9zrTaPeAJtqbplqvD/avphONAHUN8+gqEWMG5DSxg1Q3JP8svlVP9lWNU9Lj6wBnO6etXuzG+jYFzHbyVZIv1F0tWt1JQNDsICiovaUnkbwf7f85VoZz2YO2c/iXKvi9R5KPcxliBHPn4JMCOJ2tmPRFvS206q85nzieQaMl9V0rV2erOZhnActPOOF/Rj7c3+HC6EQDqDAHw12wBVHX7K+YTeB8GmbfsR6muZhWK0nk6wBmGcQFOT2em657nFGy1sO0vNduo8Z7nYHeNaCZv5QsPTqYNXtK6m7dy1sA50NMEot8b3mvsrcHt69Ug46vJhT/K1G+krwv0J9TmCeGOIGZlxStviXgzHPzsJBzK2A11H00OzLwYTY5/xjqvWeUvntKoBCm22XNtyNooOR4bqG1an4FqDtbh/Dx70v+1L6O/clErA+zr+No+pkmWgOVysnK28KLxK9sWQLuMzeNjsWPKeWo9TBTeS8O7WYblNEkLjAo8ggxHG+hYapdWkDaepi1Xt7rTeSz63Zy/YV7MXv2drRlc9jymwEm/Zr3iBSb5/RVFtvFRqGrcXYwTwXOZ5z8bqFxaofrR9Psor/6OgM0N0qs/r6vRnBXSd77K0cyr+XV9yB6/w3E/4/JNb7KgepSNjZ3O11LkCOsrG0RNJs60Wz3EHh2Agq8s/j73yfQ52cpMKnSNpA03/qTcLzRRglYsUTiAqNkr4zBmEZchaW9yijvlfdDwDR3XR7uXx3uT/EcJ0m9U0mo57brQDMfDLCIkkbt2TtrvdlzCkZPkTspi/802uciA2lQRlknrrxPftXxLuX8+Nxi9h0nwAVr2AHseqBM6u1u37Ui9/WivYYECAPDIqJfZwj/drXA8/6eM/icRpinT0g4H+bAJ7/yNCbcZa6VdGk9cb60YFJtZiOsarCa+rtSuktn6yDRiNT7JEfUvNG+jkNweO4HLC0gXd8b1muIvy4/+oCAH9NKLrC3mIf5CPBcKlFZMOhnCQ3TPfYY1HiHe9uzj4iQPQPTz36UGYMf673t2h1cQJT814GyhNgy16XmGWjuVtLfy6xCvnGSWMja5N0RJrP+hmEc9fa1D63zEBpCgOZGadX39/oa2xjz1o4Oxt1cybeBQvzvAOQiQLm0MptMtuNzj9j4jLZd4GdsgiuUHuO/9pY25lIb88cUJk38AGXHEIFH/eQCD6af6dMUnH1Ws2WCdDBFq1sJ3Bmby77C/SNpwfdc7n1a17RyldE8zmnRmyYi8xhRsv9wdCAV2LDIhntbSd0o41Vf+oxdC5p5EI6jdATw/PhgH2w9zUyi1ewxplq/LjKwZWuc9svpK0uQp7JRWIPOY0JZ4+fv7zMhPkMzaE1a50tHJf6hLiRQNdmuexQBtdzXbgBFKxrhCpphM4DY3tKLqXaR+bLE/FjGrAtVBqf5FgpEW/OyGQ4sfZOVtr6UF9qGr7Lqr8zvWBfiipd4iQQsDDEM2fqw9TDRMAXMpGGymcDkqCeIq1jQdC9jS0u0ofLISuTyMRpmKu/V08FBzrlabB9eIp7Sf7xrQXOjpGTPt8SM/k4LR7spPWSCzVACR3OpwFl2c/6YJzUNc9A5ottGyC2V+7FCH40s01QbrXEl0NxM0bk1D0+wSFFlZA0WIZFSTZTpm76vHsCcvEbIOo+r4KlWSUy2H4rWABIwZkMN8/vHU+wlU8mHmfLTeXf5XcuYCU5JiQsquAvOsH99TsDPewd6SK3rSlkCu5V8fSvTpy52bs0CXqeHVpNP09ygiiXFsP+rcc4R5iV7kLmdZbU8R2oJbdf6dfch+L7QPpWt4a+yT5psTUmxr/lny+pbPGdnJVAFQ7REpiPn80SSsLM9iqfXogQkLjAP8z7VSs6TUvLnx5PZA6xokxzE1TBLo8bjWVLj7e1uzY7ixzRP3rQSlRU1zkYjcKkL0Mwn/B7yhD453Je0TlNTzGW6g9N8dHExI/geTTT/ZHlf1XIr9MVc0pskIWuu9XTYxSR00lXaOgM0yxuOeFJIYNdIQKYfiQvOAZYXSC25Rh6mVUz0YXr+L0MF0CQr+Xo3+9U7EK7/nP1VAoPjgxUsJPrSd404t62jdQWaucap5rbAKU2NboFBn1hEs2PgDZHOQyWK9gHkI2RfwEh8VlX/prmlBynA6iQ0j9NUFDXONswejXZiy2UUX0MCIYG/SEAfpm6dB2iY17CYff90Ors7NZ+NcOA24KdMajw1TPcq6xtLvv4RbD/S4g3WeVrJX0bjr7+rK9DMX2+gsy17Hye11UY8DUl4IPmBlcvVQPU1lt0Ea59tu87pUW7IMQBUB7oE7+Y6VYLkPckn/ggJNLIErOJ0CXPsZQDTPMyraJj6MDuJhygrPkO6Un2Y+3tg+dnfTYmvnpSHeaS/kvbVRh6fugRNNbeudllT0OYoJZZo9pgAankGW2hy2BHKPZ9OPyRAsDCsUbQWaTUyTXpAo8/UNsPH2chLMt69USWghik4yvZzCbBUw7wF089TDthqmGUQF7g/sT0m8vV2rF9HiJT9EAVEDdMUv3onLtjM3KtL0Mxf3HI0RneZcGuSuL4AJ+AjImulWTcwqHydsxqQZEqdScp/uDeBY58Ug9QRClkDpGrH0UICIYHGkoBpJUbJWuJLH6Ym2VlIWwTMsohacmq8o5hgz+C3/Hi9gLQmWZWRaOzf9SyEFFG7pxUuRAirQaVOQPJ7as09xTewAk4Z5G98v3hVlo/T57TxQBIOsieA9x0o9xZx7ndjppVkudlkeGwwVV/oTkB6Pc+IeLeQQO1JQOJ1gxb1Yf75wUQyyV7GhTO2UPVhFq1hql3a/JPtKe09x/Bh/gbigo8AzcNEzPbj8opWlUBdg2Y+yGBRIhHW9NlG7skaE0Mf5+OZJUiOV5JjfScEoX/CU6Tm2i8eTmSzmGY+OrCSnSQPSr9sV1Du5UMYX0MCdSsBzbEPAcxvycOUGu8haSUCqbEXZblqcg3zBHvPW5Q1tFqJ1HjGWpRRMWU3De5OYEXp8tG0YW23Q9jnLdWV/Jn87PHccjaHuil48ePSm8YOn/2MRfKEawZTTCc/MB2lA82zgQPUSh+LeGBIYKck8BTQlHzd8l6XR2eyCWIvUsAiB+qyWk6+bsWSfzwxmJ2CeP1IXyVF95fYjbJe942e0xCgqUlUk6cvewDb/Hs4tvVqytB/h7JiU0xS01PKJkD4wSRMP0xJkav2HM5/yZAlRbYZAaxvNlpIICRQPxLQHKuGabUSA34uEin7iIPzvNR4vGa62LeKbIkaLz2gCfL1DsgL2int1ZMAcx/fV9gQIw3ur0egIUBz42vvAzS1z7cLRqiX0kJ9R6TaGHlRO0mAoBlmFPaPP81PJPOMxazVOPdBSB+guXEE4/uQwO6XgOZX62GqYWqSvYSGOWOpQ14t5WGW8Iqey62Q0sJe8w45mH93pD87hWn2xEA1eDIA86cHoeFA09QOr0OYIZZXevAjrmGiRcvkZ3MAp4VcNdWWSbmnxumZUm5aT5pqnBeJnvPn75IfVQE8TZ+x3z9opz89nvHTkEBIoIYlMI8LZoxARMsYmlZiHqbk6wKm2mfiki1DwwQxq9R4beRitlNAujsBZ8oXR6EIwHz5JGo40MxFIWei2pxJvAKWxaKvSHO3sJBo73aCck/fgWkxCywsTTYj+FwNbDuAqaRPQnpZg+xstJBASGBXSsAUkpsjs9lFqpVYyMEC0mp7aphlka+bNSBxQQ8H8XcI9vkYk6wuq6NkGaT0vNhjXjm3GhY0NXl6eboTiNTmCFVLvsRFJraXIOZkLku7S2kmPE+N08CgafowAFj2EkV7kpypkwOAO32uTuyY2a+c2fGPIYEakoAa5iSVjm6Thyn5+ndPJrO7k1Djwf7jQblM8nWtVkNdLdkpImXNw/z8UG92sKczka/XkMhqtisNC5r5iPRSmunkIH4EJlLOs3iNk+B1fAxlTOS8Hxu/CtSJcB5T7VUCBKYx3fwComTNxiYZ7yWstjlUzo0ii+9DAjUtAQFT0oLzT6vk6zcm5rJ52MrMwXQpl3EE5iyeyNeHOlpg+OnNPgUsz0LCfpgo2Yib2Pz0aXjQrFLuqXVSognVUoFINiBPrVqolykqZWqcarb2w0LWj4iwe4LPQ014gMlulG3Skvl3/Q5l5XFtfkrFJ0MCIYFcAlYlMU5C9q8rEKucQ8u8g4b5lDXdAVoWTVxgP3JqPAN+euC3Pgwd3gfQ4n12sC8zMFI/ZrTNS6DhQTMXlSbPQ0ymZCIFjAagszvPyfAqfk5BU9L3shM/PH2qXfr1Bv2YJDXms0NL/KwayGSFlKDcy0cwvoYEak8CppRcYx+5TMCPPsxbkBjMQahiPnbZ1HjH2N8+wxxrtRKvRI2Huyfa60kgQHNdXppn97S2J35FidMFzTHMojeY5CucFrFspBObHy/Lx5lrnJ4U1Thv0xcX2kkmv6XEDAwy6pfultandXHFl5BASOAVEsip8YyEv4B2+T2geZ1qJTn5umToRbacGs9nNKUDfxN+y47sl4f7s3dh+9nb3UZwYVDjbWUMAjRfkJqAOUgxazXOzw4upX+1cvp9fBCaWgStnTibqXGKjlLu/eHeWAog0IlvgFA1OGgnevWC8OKvIYGQQJJATo13GS3zInmYDwjss4JJmdR4RsmaHXAc4oLjBP1okvWrwYWmr0XbmgQCNF+Qm5qbhAJetkMA6L8/GEfTs+LA2nrFgRd+qeC/5hqnwPkIf8jd8bnsObleXTB2uAAEcmn3ooUEQgK1IQG5ZL+8N57yMM8DmlPkgOu/LJPHNdXEJC7i5EBn9s+nBlPQj2klFrKItnUJhPReIbv+Smt2fK2STRIuLpm6YCXV1fTCCkAlb6zqX7lNU6za8Aglzr6CTWSBlfE+J0jDxyuU7ukM8Cx3QOJpIYF1CWiSfULVIoN+cvJ1iQsM6DOtxD2j6KZZVvJ1t6bj8G0fRcv8hICf47D8DFbak1un6D7U+/0DNF8xwlYa6eFU5gSsMOP/DChZ+3IU0oFqjbtX/HJB/1SN4s0SaH75cDnx5hqFpw/W5OgAzYIEH7cNCfwNCRhpb3mvb6lY9J3EBVLjme/N75VJjSf5uu6l42iYvz02kL0Nq9jxpGEG08/fGMJN/XOA5ivEpKnW4DKjzJyEmjtM+egBPHXwT5B7VbbGqanWA6ssIvMUBb3HIlXjnCHn66MDvdmZ9aLbEr1HCwmEBIqXwCJWKAtIG/vw7ePJ7FvYfu6jbQqYiTyFw6z7R5FN8nX3pzY2pJPUv7TE1+eH+lLQj0Uqutmz3M+ivbkEAjQ3IUMDbQ7CVWvrxI9ozuSfHk5mw/gVO4AwgbPslmuclhH6hug8zUDSAg7i45QiMECz7BGJ5zWqBAzwuQPTjwWkJV+XGs+fuUa1/pSxPXCGTtR4nS0tKZ3kHyjvdQzt0pKIFVw2wSW7fbMzQHMTsqxqnAYIQbnHSjBZeRy/piW8pqDBmsVk68Io+jS5sas/aJxE9HqiXeDrZdiDugH4U2ibgqa+zyBA2Ci1+D4ksH0SUMMcZ/0bKSvbj+TrFpA2n9r9oAxGMX2YRsmaZz6Ei+Ywh3tzMN8jrUS+at1LAZjbN+beKUDzNeQpEO1r7sDkIc1dc3aQXKcvOF0aVm5QEBhVevM06+I0l1S2kSdUT/gtp8x9sHxokjFSbif6Vbog4oEhgZIlME1E7CXWXLVaCQQGEJAYDCSzmFtBGduBgClX9X72ImnxrIcpNZ61MT3sx9rf/kkRoPkaMs01zgPdRs5iqiUHZIQamBPzRNei7c2wiPLFoiZYRvM5ei85cCa6vTFOuRaQPYZfw1Pn4V7qcmJSThUUSupTGe8dzwgJ7JQE5mH00bpk0I/WHSsS3SUlbWxhKeVhpqCfgteaGiZLPqWwDHa2ZKfJ134f7VJOWQEz0kqKmx0BmluQrexBhm97lvzlkVVyJduy74mW+zNBANbhzKnvtnDrN/6VJaIBruFXkT/357B/aJo5kApZA5w74Xx94zeKG4QEaksCYxyUb6FVXgMwNcnempxLh2Yj6sty0eQa5qHe9ipYEgT49t6uxCUb8QzFzpcAzS3INy9knZh4MIGo0ZkbdYM8zhVAaxXA8hS4sZWhd/oMo3vvcgL20jTTD8m7LQEngO7PylrY6cHxR0igTiSgD9MAH6Nkz3FAVsO8uoEar0zyda1e3e3NKT/7l0f6ycXspdxXe9aLHzNasRIICb+BfAWfHpzvB7jHx5z0DPu+TlmxG+RnzZICkjf9jmU0QXPjsyRj+K93RrMJgpY+ZVEdAtwF+tA4yxiNeEa9ScC0EqNkrYd5gTgGTbKCaDVn29VXfPNwbh7mkf6O7ENITd7b152dHqpk/UTMawGLVrwEAjTfQMaaPq00IhAZqXq4pz37z00j2QOo7qbXQdOlpNZZ9JLy/i8+4874fHaLy3D0A/g5+uirWjLdjRYSCAm8pgSGCbL7/vFUcsNcQ8McIeWsk/VUhoaZd3WFbxZdz+w1ppWYlx0+zFw65XwN0NwGOevz149gXTop7ZzYV/B13EHTm1pPR9mGx7z2LQRRz56PAfE/QvI+xiKX5P0wQUJG+GniiRYSCAm8WgIPKNbwlLSS85hjzcO01q6xAwb8lBEmYNCPe4rkBacI+DHIT3Os69hDu9WOopUngQDNbZC14GR6hxrnpywk2Tj6+LvV2mcAzZ1q9svrHtqmfJhPySFL5Af4PbpIRQmNc6dGJp67myRwF5PsN6SWXSTw5zKulwmi5OWS1SxbRtNSJQOYGuY7pJP8p9NDibhA0FTT9dAerTwJBGhug6xzogERSh+nZtu3mdxTpH8MjbRlD9H0NOWU3fK1ZHDQCs4Qk7C/fjSR/K1n9nQlcA+Ns+xRieftBglUqfEWM4tIX0DDFDAt1jBPkF8T4CVQFZ1WJlh66as8ChXeflws+jFl+hnSh4maaypZtHIlEKC5zfK29I/+zbcAJdl5Bpncf7y3uiOg+eKrCdz/cX881eT03/ZR9iw0zhelFH8PCWSJYeseGuaFJ5PZOdLJLo/NJCawNTQ+D5plGUQFTcv+vQvLz6+Ikj2ND1MuWRmAIgp+Z2ZqgOY2y10tswWVcy/+zS7LdHEQnCcoyAmueVSidxeCwTkeEj0nFn1izV9R+j8Zg3x2f4dV29cA9+6kcQr0XmX1Je9TfA0J1JIE5iEp0fevS+PcU8jXSS25z7qV41kNU8AsuiSgUfjG3luxSO3S6Fij8y3I0E9OuIfx0DB3btYEaBYke4NsOBCmkjwusl7yJdXyBE0d+oaNU3QsESEU1IWX3lZuzHOcoJ8S0PA/0BcBvgJrUEuzcB8tJNC4EpDZ6yZpY99SOSgnX19kwerD1CRbhobJkkw+zH7W5LuklPzd0X4KSVejZN1X7Ee0nZNAgGZBsq9qbi0kHDclQFKrHOUEOwbB83MYRcYIErJ5omwCQF0HZWl5apwP8W9qrj1KMIFmWk0+R/jeRWlEYFl9UQbRQgI7LQF9mHLJ3kfDvEIO5vfPquW9nrNGDPgpgxpPDVPAbGUN9lVaAMpKMsu+v683VS4KarydniXV5zetWlY8WmESsJ6e1wS8lNa+vI2f5D/uj2XfcJK1MokApulWoCrbR+EzBcqDAOavjg5kvzs1lHI5LX8WYeyFTYm4cQ1K4BmHyAuQFlx+Pp2IC66QWiJxgWs0rU36XPRB0ghZLVBGxf4a/+UHBP28hQ/z1GBXyq/Wjxlt5yUQmmbBY5B8nJxUB5vxceKLEKAm1TYx06pxPl33cXpyMR/LVvTiTA/hD6sjyBpkPqkpM+aAHe7ryPZkmmurlHtl9SXvU3wNCZQpgUSNBzCaknWRgB81zDtEuz+bW0waZlHEBT+lqRglWwGhj8DcZR6m5OuDWIHMxYxWOxKI0ShpLDTPavrUt/kRC8LUFPkr//RwIuVyesrUVOuplv9La/pXTUm5iQb8X26NpJB2+ye4e7KVgD5aSKBeJWCMgVGyV9Aw9WHeBzz1a5ZBjZcOyhsEewywNOr+3b096QBrMfnQLjcIqEa+DdAsaSA0vZpXZfTdRwf7svc4Rfr9fdhGnrBw5YeVZURwLVPj1I8in+VNqs0/hEvTDUO6Pau990OC0IzGKWyGxlnSRInHlCIB617qNnmIy+QbDq7fw+B1CeKCUaxAAmYZGqag6UHZ+Af3AtNJ/vHEUPYO6SVBjVfKNNjSQwI0tyS2N/slo2mbcE+cxlfxz2f2psCDq5xyPfUaqadfoyyNUzAHF1MWtT4cfa7/Csm7EbYfEuKeBwdZ7ixaSKBeJCDRh4D5HVyyF1l7D0grSdR4rIeiYws2aph6KU8T8KPvUorLY7KJcVjVKhWtNiUQoLkD46I26cI8Rf7VED4L866m0TSl3FtcXc6WAc4mPuTnim6Cs/ztapsCtqDphuL3cul64tUvW67RuOi3jvs3ugTkkj1HMN63Bv9AXGAepmklRskW3XINU1jMQfOfTg4l8nX3A/MzS+hG0a9Zt/cP0Cx5aDeaOTWBtlSaMMf0pF7o9Ne3YlCCoKWf08VTVDL1xr40E+yuNrmC2Wp6SR/nbPaHu6MpRUaN83h/ZwL6ok/hJQ9HPK6BJKBJ9snkQvbg/2/vTJ+rOLIsXmjfV4RA7LsxtG3cbYej7e6ZaPfEREzM3ztf50PPREzY0YMNGsALGAxmESAJbU87fX75lD2y3GBAL0v53jsZLj9JSFVZJ6vy5L1577lYmCLLrx+TVrIcxEdKk8aTF0mvdRAneEfCIqcVfPe+tmvQq0Y9jD3M6iK1iQamzm7VpLmHA8bL0bWvtTihF2d/b3WFuSRrc15W56z2VlZEnOx3YA2mbqx4sW51yeAeJo9zUfub5JaO6mWm0DYR7ybN1CPh86dCgD1MCPN/7s5IeH2puKk9TJ5xnv2Qh5nqwjvOSxwBAXbsXf751GhQ/TmgUl+2MHcAlem3Js09HJhAQCJEUlFYYRIIwF4iX99EIFqrYFalpIZgccKd263DWnad83J+gpCYRNjffKaUGNJRWJFj7VLEmhwy+h32XPXpZgRyR2BNKSWkeD2WhOR1BfxM6t2ivBeECZEiSZdqMYgrNhx6r2hdereP9Oo90rv07lhfsDB7lO4FYdrCDBBl/z+TZgZDFAhRBHRsqEsumrbwSbeIZEWlZH51M1icZQTj0Bf2diBrJhsmmr8oMIigiU+PDQdlEkTpW/TymzIzeHjchV9FAO3nm+RgyiVLWsmkjrg4hKhSPsdQJRGy4dBLtV+R6R9NDBafHB38u0uWmB/eO7f6QMCkmcE4RSuvTzUuObApL40vy8LcDCpCd5WWAonh1kktuRf7EgS9dE0szp+0D0RkIXsuBCpgcR7qQ3IvrfWbwdC4C3WMAOLreG4IbLsh63JSVuZPipJdWPv/oJ/kFuYWfgT7DUls/Rx5mAd6i3fkmiVX23mY9feAmTQzHDPyJH+n1ShC6l/eny2WZG3Oaa+TgwVpGRZnuI6Wv3iVkBJDg/Oa3LQoqHwsyb1hTQAIvKcKUspwWNylOkMAwvxOOrJsdUzK0vxei08WgeRghu2FhPcTLUzeI7Y70He+rICfy4cGwjbMgKoMtZcRrJDwHpv11CbNDEceSbuzWomO6kWDMKcWliU8sBrIi/1NXD2pLc64At/UjgxRvBTUJh2FT0QPyN8cV/ACEl+Sqg0t1X5rhkPkLmWMANsKuGSxMCFMlLduzS4FyUoCfroS5UBClLHh/uU95Vr9ep+Pq3A0UbIfTgyEd4Z9TLf6RMCkmfG4dcul865Em3HhXNV+TJcsvakladaqQgo6+6G2X+L+Vy1bWZy6DmkwzyrrxV81CT1XHz5WyaIPDg3K7dQWghj4XTcjsNcIEPTDHmZwyeoTwlyQl6ZLll1cDKbqI+8JB1HoyFMeHOwsPtF7ckFBP2cV6IcXqSMRaae6J5/35wiYNH+OR1bfQZbHpRo0KoEBVq6LsjpZvU4rJWVDryau02oxobRRtXiRgtye9lhXVjaLb7V6JzCI1fIRraA79QsQPCpHNFucVRz8/3IRiNJ4BK8R9MMeJi5ZiiJAmB1yy6ZokGRsfM07SoARAXVEyX6kiiXsYeKStYUZkarfT5NmxmOH5caeIeHop0Z6FUHboujV+UBgWJwLiqpdFZGR85Xa2UNfWKXrv6AeRLj+dyrW2902HSaEd8f7ihEFCoXfyRhTd61xEYjCBaSVECVL0A97mLhky7IwI4FSMQhpvIuyMNnKoBZmG6tPt7pHwKSZ8RBisfGe9Sjg5rxePg50KecUlIOVubQu5SDp3yFKkPp9pC8EIGHxssdZ0UEppQeyOGfUn3GtqHE9Icag/9yMQOkIROEC8jBJKyFKlqCfVHuY228wWpjxZ+el9vNvZ8dCIemo9BP/zZ/1jYBJs87GLxSMVr7kgKy6XkUGko6CZi0RrsHixBRM3HByIfK+Jiv3ua59WwFC/3VnJgjOs8ImJYWVferVfeLb9OnrAIEgjaeAH7RkkcZD6QfhAhZ3uEdTLyYjRLx1WLSn9PxTNPpDRckSKIc71luYEaXG+DRp1tk4HhQhDSrdg6hVGXuyNDeKHzdXijm5S8uwOIGLiQhCJHdzZWO9uK1AC9xgz1fWguLJmPZgbXHW2YNVp92N5b0QX0e5aq+k8SBNSoqhJ/snSeMdlUuWggfEJdjzUqcP10u6bdJ8CTC5/rhT+5scJyTwTGg9uV5YnD9I7o4IwWWRKISWqnh0DPJhkiA4qBqgtFHcV7V7+kJAUEXh/qdUwcUWZ65PUf33i3xhSunF8l5UK0F8PUrjEYhTlqcD9+/hgc5QpYTyXlibA1rYopxlabz6f9Z23oFJcycidfJ9dRXbGkiqTWGr+xSyd0uu2ueKsO0Qo5URdBAtTshzXvtHd7W/SR7ptDRr21tGCyzO8Dv8z80I1BABtiN+1LYABaSph0l5L3Iz2TpAS7bMJ65bicqklPxR5b0Ob3mCSCuxhVnDAc/oVCbNjAbjTbrSJYuOA5KqKAWFyCCFBxXLmkxwm2KF8tIyiUTr8E3O/zq/y3mZnMhHw02G8ME9fU2fWHn3d7YG4jzY3/U6p/PvGIFfRQALc1aBZ5TPo4zeNUXKUkCaepiU9yorUpaOYkmyMKRsHiklSOQRJVt1yZZJ278Km3+hhgiYNGsI5l6cCmGBd+USGtHLywq7TTTGJHJnrhICIZhEUr++EDN7mOSMEpREdRbk/2aVFvORJPdMmnvxZDTmNSlgMClXLJHbpJVcV3kvFokE/ei/5M86qBIpy0Ek+ydHhySP118cVb4y2rKpBeC5vtveImDS3Fv8d331aHGylzgjt+iGJpBWuUNnFJSDahAWYBB615VSWpzkiWJxElG7sPoilBSrKDiJvZ0j2n8lHYXgJcgVEk/Vl10D6hNkiQDi61T9uTe7LKUfWZhT7GGuFNOqO9shtgyLQ1izhNYjdyzP8ilFyV6UYheqXRRa4F10a3wETJoNMsa4ik7KPUSIe5cOCPOBLM4HCpYgLD+sxBPfK1NWCEDSF/PaX9qQMgsBGhTTviTxg0vj/UG3lgCNcqa3xDfs05eGALnAtySmcVNBb5M67ijwDBIlYrWsgJ94s4f6Oov3ZF1SD/O0iBMCtTReRKfxP02aDTLGHQptPyaLblwvdLDmRJpXtd8zr2hacWeIck1tcYbJS2zIdZjQiGRckRuNCEcsUNxXkrAOq3Lxemi2OBvkAUx0G+xhhqAfWZhXlFaChfmdIsWnKquBMBEvKKtRQLpbB0o/vz86HKxMiiug2OXWPAiYNBtsrNlTIZfzsvQuW/WCywBVHmVFCd+rIbqwLJF35P/Y91lVQNKMgjTQq8WF9hut0M/tr0ruef+nwR6+BLdDWglRsl8/ngt7mLhkq+W9EC4o119xRLmXuGPfk8eEr9kSYYHq1lwImDQbbLx5iQ/pheZgEd4i6mKl/kTVSdZebBStL9KrpGA9Rsm9VVm8i+siTQVtPJd1QPYJ1jDlxVrUF/tpG+wBrPHtULFk8tFccUWVdW7OLIW6ruRFlmlhxls6oijZPxwfDuklMUo2/ps/mwcBk2YDjzXk9J7kvFAK6mlvC8E5D+WrJcIVKy+VAMJ2SEOKpq61LDfblAKVJqcWiQKqirwf6C/G1Ec3I7ATgfvKOb4rC3Py8ULxtVz89/TcUpqOPcyy034vjPXKJdtbXJKVObFlYfL+uDUnAibNBh73sd5OVR5BYKBapgjX7LTqYOIu7cR3WoJ7ix0n5heCgZa2LM55RfZWRNxYwybNBn4Ad3FraMn+730JF8itj3ABeZgEs+HiL7tBmH+WNN4h5R6P6n0iD7P8XpR9177eyxAwab4MmQb4OathDhKwzyr5mjp/BOcQzABxIkbARASZpmg/C/JRcBBtURYn9Q1vydX2lVxu7E+xBwvBuzU3AqRHPVKO7xNFXV+VhQlhEgGOlwLhAtZ4P3umEsHF29CltBL2LSnrhYUJYQ6qHmaHzNyyo3UT3aZP+5YImDTfErh6+rMRCUcTFt+nA8uvVwEMVxS2/0Du0j4F/rWXsG7GpcbLoLkIAAAUW0lEQVRkQ2DQU02Cm9MV9WRaknurShAfNmnW0wOVqK+kRn3/dKm4Imk8qpVcVT5mULbS9coQ6Yi3xXYG7wuVSv755EhxQAu60Z52Bf1YGi9i1MyfJs0mGP12BU5wjIk8z6gKAxbnilbuiBEsytrEVRpITT9PtZLnvKzgsSa4LuLy95RrhyUcCvTqc78s4v2aoDB8+d1UfdGp3TJCgCIDCHNMycKkgDT1MCnvVdHPsTBRukpl3ZEeFZwgeuDYxuhTCgnbBmeV8/yO8jCPSemHKFnen1R9yGgo3JXXQMCk+RogNcqv9Ei15IRyzFAuadWquU9u2msKsvhmeTG4aQmySN1wsRGABHE+VUTv+mYlEOmCyPuDiYFiSHVCiQAuO50g9X37/C9HYEkLqNuyLG/oWeR5/Fal5rZL4+EdSdW0hgvPIks68WJ4/pDFQx6PKj0s6FjYpX8zUt2hz1trBEyatUY04/MRwNDZ1hH2MFEMgiQRIZhWYM6aXKYkku8TmTFBpLLy4mod0lySahDutw255fjslUusGrzUHmqGlh0lmfHQNWTXeN7Qkr0v8QvyeK9KPeqOomafSf0HdyzPZ6rnkJJ24stwAC6VSsbl5TgjCxNZPNR+qu9LSspuyGFt+JsyaTb8EP/yBrE0yTnrVRWSTTEkou/fSKKMihEvRKZlCCAwFcXE8OeyNO7OrRTdUnypaBL97eEhiSAMhBX+L3vvnzQKArPSjb0uorwhwpzUs0cBaYJ+yMNMvWBSMHewMFnE4Xol6OePysG8pDQoqpbgkrW3o1GetNreh0mztnjWxdnQyezQ/iaBQWvrL4peyYBprgpFfHGVyfCrTii6m1Qrfc6L+Bh7SkyU65vSFlVE7aJIc1hh/bjGBiW7RxQjARhujYNAkMbTmD9SWgl7mNcUKXtbVXlQreoUW6YSLsC6pEULk719guJYNCK+flmBP1iYyOJZSzZA5f/9AwRMmv8AlGb5EavsUQXfULC6gptUk8r3Iq5b0vlcEnnhHkv9gOAKjiv6We1rrsjS/erxfOjLOQUtndYx1G3SbKRn8omCfO5IuOCbLfH1u0ozieLr8VlIdb/bLUyI8eRwd5DFQ8BgQnVfccmyh+lmBF6GQOo58WXX9c8zQIDJoRqxqn1OEeegIgfbNWk8UoDOgvY6WYmnFnnH4kRyj+vMycp9IvGFln1zxVPy89SHQQUGRY1PT2YZPDS76AIpJURP39Me5l8lXIBLltQSytixQKNST4q23cLkmYY48WBgZVI8+k+nRkK1kh59j6vWzQi8CgGT5qvQaaJ/G1DiNlVS3pfbDPfVdVkBpIQ8175TJ/s+JSy+g6yf5ixk/pBNG9BeV5smsbkDa8Vxuc9G5VJ2q18EHmnfmqAfdGQpIP2TxhgipR5mDBBLdXcQJYSpSwVrkpQSXLEfKFKWVCwszNR9SHVvPm+5CJg0y8U726tRJJoyR1hzQwoQwvp7oijGh9pnoqg1Rb1SNjiZa+Kew8qdEXEqmzPkkWIpUFbMpJlyBNKf+6H2MBEuuCL3O+LrcyhS6XlLLY3HIpCtB4gTRR/2Tc8q9epzSeOd0EKxX8+99zDTj3+jXMGk2Sgjucv7CAnkSjYZljtU81ggrjVNMuNSQnkQLM71ENGYSuQ9BhxBni26bqsoc35lIxQb7tEkS/+mReIntAeFAIJbfSCAJUnADzVVrzycL75CfF3fI5/IWIcD8y9Bw+Uvb3DwnPD8EJWLhXlRFiZFpA8r2AwxAwLN4vOXoBs+ZYMhYNJssAHd7e3EkkcXNNkwyYxoUvlPWX5PpNiCRYA1mLrJEAgWJyXNHi/iVFsKOaQIIDDJmTRTj0Dtzs8eJoT5xY+zwSVLWgn6x+wcppbG0yMcLEyeICJy2cPEJfvv58eKYXkuWCBiYZbwSNcOUJ9pzxEwae75EOTVAdyzrS2tqo7SLnmx7rBSf6p9TX6O1NmsrD19mdRCiHtLUXKPChd3NPHShwMqJYbVgKvW7tq8np3tvUGsglqYFJG+EaJkF4oH+hrCZFyDZyOhhSkjs6BcK7nApJAcH+rS0R1Ik5xMyJIjPmvb++6vjcCrEDBpvgqdJv63Hll07a2E4Fer00+IrL7UftSXmviYiMqyOJnUmIAfSdiddBQCg56LuD+YGDRpZvx8knv7LWQp8YL/U9DPVR2oUGFhsvhJad1BmGv6H1sJeEvGe9uLT48NFx8fGQxBP0TJ0oOUfch4aNy1XSJg0twlgI365+zzKKAwTCyntI9IwAYi67PU49SBmguSewgUpNoPilbAuibbVR1c+7by+wgMQkeX2oYDSkwniAnLxW3vESBNaE7jRNDPDYQLdNxXlOy88n5jPcw4rrXuLXuYuGSrUbKqVKJn5IhKep1R0M8FpZacVgQ2UbIWy6g18s11PpNmc433G98twgdDIieIEfLqkeX5hVIGHj+skmaXyAriTNngQ/VA/rYXxZQszjX1o7NVFrB+dl5J6ee0T5U6AjPl/TXSuSFMRAtuqqzX1wr6+U7i6wT9sKfIXnXKpY0ei7CHybPKIm+8r6P4rTwSpJWcEGGS75uKsBtpDH0vr0bApPlqfJr+X1mV93e2aF8IsfeWkPqxpNnpkVykczrWZVmkFkBgooM4SRuYl7Vb0SRMagqVMFo0E++X63hQFifJ8bY49+aRpbwXEox3ZisqID1XfC237G3tQz/WIoc8zJTCBViXND45SCE5qGfiooTXL6tyzvvj/ZbGAyC3miBg0qwJjI1/Eoirt72t0PxT/E4anUxMVySwPjk1HybL1FYECGOl4OKjkUO6+mKpGJU1cUBSgAR5jGmiRFnGrXwECBKjvNc1keWkLM07SlOiHibjkdq6ixYmC6YOLfIQ6fiD9jDfkRfihOphEggUiwOUj4yv2GgImDQbbUQT3Q/BGwQHBYtTFt0JVYKgnNg9lXIKJcUSXXf7aaPFuS6Lc0YRtU9l2Uxoj3NCpIkwA7U4SV6npdpn3d4ff12VPyTA55lI86bcsV+JNHHJIr7epbGAxFK07dJ4WJcQJ0E/pJWcEml+dmyoOKW9zHbcwnp23YxArRAwadYKySY5D4Yeup0t+9okdN2naMgXxbcqK3ZTkndI7jF5pW4xx4+UgpnKanFdk/WwRBgmlEpQ7ZsjI1OPQTw/e5ikltzQHuZXega+0yKKOqmo7pQhvk7QD/uXPdo6uCg3CLUwCfpBU7kqWhB76k8jUBsETJq1wbFpzoIFh7uLA7HrMZEVUYqPFCE5pwjJfWJNGYJJG33o2DIenktc/tuNpVANhb3OkAO4ZW0m7YRPHhCglNtPIsrvZfFfl3v2rqJm+2TxdetI2XjEojQehInoBWT5L5LGm1DELGkldsmmHIHmPbdJs3nHftd3TjQitS9PS5rss9XhYHHelqbo44XVsP+Y0inGuZk4F7Vvtqw8zhlN3hUFJREcxHxtj9yuh/e1TvBcluYPjLnKe61rLNhzTok9blk0ZBl7LMx+PYPn9fxRRo7AHzSKqyo/KZ++14LGv9SgCJg0G3Rgy7gtrE0mqNP7esJeEpVSyMd7KNLEzkg5bYVzawJdlEBuRdYte5xYmmvSOu18kfrqZaBbH9dAdB3SfKTAnw3hjwcgpY0ZLUzQ4fmjuMAFpRz904mRUA9zqLttizTrAz/3sv4QMGnW35hl02MCLNBWgSxDCojIC6uvX2IDP0xXlOC+HPrKPifWR6AyNkV32eIZ4gSKUhAKNFiaBCVtpi7Jssv+1/ufY+2BfbUG6rrKuK0WT0k/0jjgEmWsa91+Jr6uZ4igtDMS3cC6fE97mUTM4qK1NF6tkff5diJg0tyJiL9/YwRwk/WJKEn7YDKbUPWI/9h8Uvwk0oQwia4M0mmaTBPMp6G/7G+tirBxz8bIyje+Ef/BayMQdYEXFPQzJcKcVSQziyLkFVOMsYY37GHSQQpFD+p5u3igP5T3IuiHfXUIO8W1XxsU/2JTIGDSbIphTnuTIT9O0xUCAzEl5a6S3OdJC1EqwpSChGjROmFiq1VKCOdCkejvDlnPmkIjfWMxhGVJJZolWffIHJKTWeuI2SiNR6Q05ybA57CipJF2vCAr86Q+Ed0g1ahWz1R69HyFekbApFnPo5dZ38mjZALbrwokfzg+HCzPL+7PFn+5Mx3cp8tEcKjV0hohULZdB4ozXZpQgypQDVzAmUGbVXfi4gerHouzOqppugg540XAimRBdkRejM9PjUgabyBUvIFEU4snpLkzn7VeETBp1uvIZdjvqvgA1sC+4qRctaMSG1iStUmQyGPl8pHwHtyn6vtupPfinhqTNa5hJtQ+5Y4ygXZoYtW3bokRqBLlC1l3LIJqr/oTx5jzY2HijkX5iTSn38gtSz4m427x9cQD7dP/AgGT5i8g8Q92iwCkRUBGn/aZziuykf3MKxJ5X9fxDPk79h11kd1YnFggJLZDlqjAjCrVYED7qVgj1p/d7Qi++u9Zk2DhQ1go/qDEg2uWn9eq4ZTAwsRz0K0o2VMSXH9PwuuQ5iFZm1yb58zNCJSNgEmzbMSb4HrsLbVrVoUsKct0WMnmNNRjimIpRFpG4nwbixPCRUqPT8qCHZX+7EFZIQQjUf/TLT0CeBW0PglKPINarCxq8UI1E/Y54bK32V+MAVyMa2xEYjO2RMl+cmSoOKOcTPKDsTLdjMBeIGDS3AvUm+SaTGtMblgKTHY06l9eezxfTMlVS/AIFgVWy5tQXZU0ZWlq4h7RhHpB7jqsD6xbt3IQiKTJouWIhPJXlO4zpaCvlY2NMJ5vS2nRwmQsu2VNnlagz2UVCCBS9qDGmD3zWgcblYOYr9IoCJg0G2UkM7yPaHHKMJDF2RuiHukm0bQkxa8qTYFAkn0iVojzdVsgTf0y7tnR3s7iXWngHpI1G8XaX/c8/r23Q4BxrS50lKMrF/xhkSbKQNM68ADgqH1bQxCX7LoGuFvXIO8S0fXPFFR2Wp+4ZPFeuBmBvUTApLmX6DfRtaPFeU57Ukx7JyTuTc3Fn6RViiBCRUdIG9FkybzI7zA584nbLlogTKjk6Z0c7AzBRpdFmCS2I5/mCbX8B2pE2sMXtde4ojGaknj+cy2G3pTXtgsXYGH26gS4Yz+UhfmO9sSJxmZs9Ti4GYE9R8CkuedD0BwdgDSZ+AjowJU6JgtxVmLrWCi4aVH1CfmWmhj5Pf0Xvmee1D+FoBB+b1lf9yqC6Khy9T5VgWECQw4PqGaiJltPquU/S5RjO6sxeKYKN9efLITgrrfpBRYm4xzF1xnXfz07Jm3jdrn37ZJ9G0z9N2kQMGmmwdVn3YFAtBqxJCBFgoM+PjJYYKk8lLuWAxm8Ci5bSFJ/v0+fkCYBJ1iXnQo26ZNFOSrL45Im1fP7+0KuHm5ZR8zuALykbxlP9qmPqr7qB7IM2etkLJ8trW6NY9VdyzjubBresBjib4h67pMf/6yE108Eebz+QJg9GnP+nefHzQjkgMC+TTTO3IxASQjE/DvyNZdEkkyuP6ik1C0daNU+lLt2UdJsiK/L+Aitr6OlGJHFcVBRsufGqjqjlCQbUxAQZEqupifVkgZwx2WCYo/G6anG8YHycUkt+u8fZ4pJ1Thd1tSypqPqNfgl6eFqx61LWslET1txTHujn5/ZX/xee5jI4g3ict/6M4/vDuD97Z4hYEtzz6BvzgtHi7NTLtYof8ZeJi44SPHo4KoszqrweyRNrI0BVbNgb+u43LsH9HsIGfRqYnXbWwSwAnEH9G9pDlfWeoP6E+k/08rJnVuRiL72q1dUNiw2/oYI2FaRZZvGnQjcYxrT4/I+UOLrkMgTbwSEabKMqPkzFwRsaeYyEk3aj3WCgGRV4pqlUgm5fuxvEVUbGxMoLlgsEoiySyTKHqnVYCJCe/+5rpJseA+IisbqnFLlk7sqGYb1iaDFE6UYxYZLl7EkB3Osv6MYF0ke0R41Qv+43gnq2uJik2YEzZ/ZIGDSzGYo3BEjUP8I4K5F4IBF0D2J9iOhCGmSlxtbhxY8na2tYS90XKRJlRICw0ZEmG5GIHcETJq5j5D7ZwTqCAH2rHESQJwLKki+pMCuZblmK9qnji24Zre8B6j7dMtzgNg+RaXdjEDuCJg0cx8h988IGAEjYASyQcC6Y9kMhTtiBIyAETACuSNg0sx9hNw/I2AEjIARyAYBk2Y2Q+GOGAEjYASMQO4ImDRzHyH3zwgYASNgBLJBwKSZzVC4I0bACBgBI5A7AibN3EfI/TMCRsAIGIFsEDBpZjMU7ogRMAJGwAjkjoBJM/cRcv+MgBEwAkYgGwRMmtkMhTtiBIyAETACuSNg0sx9hNw/I2AEjIARyAYBk2Y2Q+GOGAEjYASMQO4ImDRzHyH3zwgYASNgBLJBwKSZzVC4I0bACBgBI5A7AibN3EfI/TMCRsAIGIFsEDBpZjMU7ogRMAJGwAjkjoBJM/cRcv+MgBEwAkYgGwRMmtkMhTtiBIyAETACuSNg0sx9hNw/I2AEjIARyAYBk2Y2Q+GOGAEjYASMQO4ImDRzHyH3zwgYASNgBLJBwKSZzVC4I0bACBgBI5A7AibN3EfI/TMCRsAIGIFsEDBpZjMU7ogRMAJGwAjkjoBJM/cRcv+MgBEwAkYgGwRMmtkMhTtiBIyAETACuSNg0sx9hNw/I2AEjIARyAYBk2Y2Q+GOGAEjYASMQO4ImDRzHyH3zwgYASNgBLJBwKSZzVC4I0bACBgBI5A7AibN3EfI/TMCRsAIGIFsEDBpZjMU7ogRMAJGwAjkjoBJM/cRcv+MgBEwAkYgGwRMmtkMhTtiBIyAETACuSNg0sx9hNw/I2AEjIARyAYBk2Y2Q+GOGAEjYASMQO4ImDRzHyH3zwgYASNgBLJBwKSZzVC4I0bACBgBI5A7AibN3EfI/TMCRsAIGIFsEDBpZjMU7ogRMAJGwAjkjoBJM/cRcv+MgBEwAkYgGwT+Bi3ewlnpy0RzAAAAAElFTkSuQmCC;" vertex="1" parent="81">
                    <mxGeometry width="36.78" height="30" as="geometry"/>
                </mxCell>
                <mxCell id="86" value="dd" style="group;verticalAlign=top;horizontal=0;align=left;" vertex="1" connectable="0" parent="1">
                    <mxGeometry x="520" y="130" width="160" height="210" as="geometry"/>
                </mxCell>
                <mxCell id="87" value="&amp;nbsp; &amp;nbsp; &amp;nbsp; &amp;nbsp; &amp;nbsp; &amp;nbsp; &amp;nbsp;Subnet / Tier-3" style="rounded=0;whiteSpace=wrap;html=1;fillColor=#dae8fc;strokeColor=#6c8ebf;align=left;verticalAlign=top;" vertex="1" parent="86">
                    <mxGeometry width="160" height="210" as="geometry"/>
                </mxCell>
                <mxCell id="88" value="Route Table" style="shape=image;verticalLabelPosition=bottom;labelBackgroundColor=default;verticalAlign=top;aspect=fixed;imageAspect=0;image=https://www.devopspertise.com/img/blog/title-azure-devops-automated-route-table-creation.png;" vertex="1" parent="86">
                    <mxGeometry x="50" y="40" width="60" height="60" as="geometry"/>
                </mxCell>
                <mxCell id="89" value="Service Endpoints" style="verticalLabelPosition=bottom;html=1;verticalAlign=top;align=center;strokeColor=none;fillColor=#00BEF2;shape=mxgraph.azure.service_endpoint;" vertex="1" parent="86">
                    <mxGeometry x="55" y="150" width="50" height="20" as="geometry"/>
                </mxCell>
                <mxCell id="90" value="" style="shape=image;verticalLabelPosition=bottom;labelBackgroundColor=default;verticalAlign=top;aspect=fixed;imageAspect=0;image=data:image/png,iVBORw0KGgoAAAANSUhEUgAAAc0AAAF4CAYAAAA2QqLbAAAKpmlDQ1BJQ0MgUHJvZmlsZQAASImVlgdUU0kXx+e99JAQIBABKaE36S2AlNBD701UQhJIKCEGgopdWVzBtSAiAoqgSxEF1wLIKioWrAgoYF+QRUH9XCzYUPkecAi7+7Xz3XPmze/cd+c/986ZOecCQCaxRaI0WA6AdGGWOMzHnR4TG0fHjQAMUAA0AAMVNidTxAwJCQCIzc5/tQ99AJqa75hOaf3r//9q8lxeJgcAKAThRG4mJx3hk8h4xhGJswBAlSN+neVZoik+j7CiGEkQ4btTnDzDI1OcOMNfp2MiwjwAQCNV4UlstjgZAJIa4qdnc5IRHdJChC2EXIEQ4al8XdLTM7gIH0HYEIkRITylz0j8k07yXzQTpZpsdrKUZ2qZNrynIFOUxl75fx7H/7b0NMnsHvrIIPHFvmHILIuc2b3UDH8pCxODgmdZwJ2On2a+xDdyljmZHnGzzGV7+kvXpgUFzHKSwJsl1cliRcwyL9MrfJbFGWHSvZLEHsxZZovn9pWkRkr9fB5Lqp/Dj4ie5WxBVNAsZ6aG+8/FeEj9YkmYNH+e0Md9bl9vae3pmX+qV8CSrs3iR/hKa2fP5c8TMuc0M2OkuXF5nl5zMZHSeFGWu3QvUVqINJ6X5iP1Z2aHS9dmIRdybm2I9AxT2H4hswysgA3wAZYgGvnaAJDFW5E1VYRHhmilWJDMz6IzkdfFo7OEHLMFdCsLKyRm6q3OXIV3YdNvEKK1zfkyDiFX+APyJnbO+RKLAGjOA0D5wZxPdz8AlFwAmto5EnH2jA899cEAIqAARaACNIAOMASmSI52wAm4AS/gB4JBBIgFSwAH8EE6EIPlYDXYAPJAAdgBdoNSUAEOglpwFBwHzeAMuACugBugC/SCh2AADIOXYAx8ABMQBOEgMkSFVCBNSA8ygawgBuQCeUEBUBgUCyVAyZAQkkCroU1QAVQIlUKVUB30C3QaugBdg7qh+9AgNAq9hb7AKJgEK8LqsD5sDjNgJuwPR8CL4WR4GZwD58Lb4BK4Cj4CN8EX4BtwLzwAv4THUQAlg6KhtFCmKAbKAxWMikMlocSotah8VDGqCtWAakV1oO6gBlCvUJ/RWDQVTUebop3QvuhINAe9DL0WvRVdiq5FN6Evoe+gB9Fj6O8YMkYNY4JxxLAwMZhkzHJMHqYYU405hbmM6cUMYz5gsVga1gBrj/XFxmJTsKuwW7H7sI3Y89hu7BB2HIfDqeBMcM64YBwbl4XLw+3FHcGdw/XghnGf8DJ4TbwV3hsfhxfiN+KL8Yfxbfge/HP8BEGOoEdwJAQTuISVhO2EQ4RWwm3CMGGCKE80IDoTI4gpxA3EEmID8TLxEfGdjIyMtoyDTKiMQGa9TInMMZmrMoMyn0kKJGOSBymeJCFtI9WQzpPuk96RyWR9shs5jpxF3kauI18kPyF/kqXKmsmyZLmy62TLZJtke2RfUwgUPQqTsoSSQymmnKDcprySI8jpy3nIseXWypXJnZbrlxuXp8pbygfLp8tvlT8sf01+RAGnoK/gpcBVyFU4qHBRYYiKoupQPagc6ibqIepl6rAiVtFAkaWYoligeFSxU3FMSUHJRilKaYVSmdJZpQEaiqZPY9HSaNtpx2l9tC/z1Ocx5/HmbZnXMK9n3kfl+cpuyjzlfOVG5V7lLyp0FS+VVJWdKs0qj1XRqsaqoarLVferXlZ9NV9xvtN8zvz8+cfnP1CD1YzVwtRWqR1Uu6k2rq6h7qMuUt+rflH9lQZNw00jRaNIo01jVJOq6aIp0CzSPKf5gq5EZ9LT6CX0S/QxLTUtXy2JVqVWp9aEtoF2pPZG7UbtxzpEHYZOkk6RTrvOmK6mbqDuat163Qd6BD2GHl9vj16H3kd9A/1o/c36zfojBsoGLIMcg3qDR4ZkQ1fDZYZVhneNsEYMo1SjfUZdxrCxrTHfuMz4tglsYmciMNln0r0As8BhgXBB1YJ+U5Ip0zTbtN500IxmFmC20azZ7LW5rnmc+U7zDvPvFrYWaRaHLB5aKlj6WW60bLV8a2VsxbEqs7prTbb2tl5n3WL9xsbEhmez3+aeLdU20HazbbvtNzt7O7Fdg92ova59gn25fT9DkRHC2Mq46oBxcHdY53DG4bOjnWOW43HHP5xMnVKdDjuNLDRYyFt4aOGQs7Yz27nSecCF7pLgcsBlwFXLle1a5frUTceN61bt9pxpxExhHmG+drdwF7ufcv/o4eixxuO8J8rTxzPfs9NLwSvSq9Tribe2d7J3vfeYj63PKp/zvhhff9+dvv0sdRaHVcca87P3W+N3yZ/kH+5f6v80wDhAHNAaCAf6Be4KfBSkFyQMag4GwazgXcGPQwxCloX8GooNDQktC30WZhm2OqwjnBq+NPxw+IcI94jtEQ8jDSMlke1RlKj4qLqoj9Ge0YXRAzHmMWtibsSqxgpiW+JwcVFx1XHji7wW7V40HG8bnxfft9hg8YrF15aoLklbcnYpZSl76YkETEJ0wuGEr+xgdhV7PJGVWJ44xvHg7OG85Lpxi7ijPGdeIe95knNSYdJIsnPyruRRviu/mP9K4CEoFbxJ8U2pSPmYGpxakzqZFp3WmI5PT0g/LVQQpgovZWhkrMjoFpmI8kQDyxyX7V42JvYXV2dCmYszW7IUkabopsRQ8oNkMNsluyz70/Ko5SdWyK8Qrri50njllpXPc7xzfl6FXsVZ1b5aa/WG1YNrmGsq10JrE9e2r9NZl7tueL3P+toNxA2pG25ttNhYuPH9puhNrbnquetzh37w+aE+TzZPnNe/2WlzxY/oHwU/dm6x3rJ3y/d8bv71AouC4oKvWzlbr/9k+VPJT5PbkrZ1brfbvn8HdodwR99O1521hfKFOYVDuwJ3NRXRi/KL3u9euvtasU1xxR7iHsmegZKAkpa9unt37P1ayi/tLXMvayxXK99S/nEfd1/Pfrf9DRXqFQUVXw4IDtyr9KlsqtKvKj6IPZh98NmhqEMdPzN+rqtWrS6o/lYjrBmoDau9VGdfV3dY7fD2erheUj96JP5I11HPoy0Npg2VjbTGgmPgmOTYi18Sfuk77n+8/QTjRMNJvZPlp6in8pugppVNY8385oGW2Jbu036n21udWk/9avZrzRmtM2Vnlc5ubyO25bZNnss5N35edP7VheQLQ+1L2x9ejLl491Lopc7L/pevXvG+crGD2XHuqvPVM9ccr52+zrjefMPuRtNN25unbtneOtVp19l02/52S5dDV2v3wu62HteeC3c871y5y7p7ozeot7svsu9ef3z/wD3uvZH7afffPMh+MPFw/SPMo/zHco+Ln6g9qfrN6LfGAbuBs4Oegzefhj99OMQZevl75u9fh3OfkZ8VP9d8XjdiNXJm1Hu068WiF8MvRS8nXuX9Q/4f5a8NX5/8w+2Pm2MxY8NvxG8m3259p/Ku5r3N+/bxkPEnH9I/THzM/6TyqfYz43PHl+gvzyeWf8V9Lflm9K31u//3R5Ppk5Mitpg93QqgkAEnJQHwtgYAciwA1C4AiItmeulpg2b6/2kC/4ln+u1pswPgYD8AEasACLgFwN5SpJVF9CnxAIRQEL8TgK2tpWO2753u0afbkiGkZ0EUD/DBv7GZ/v1Pef99BlOqNuDv8z8BOV4D4auVhOQAAAA4ZVhJZk1NACoAAAAIAAGHaQAEAAAAAQAAABoAAAAAAAKgAgAEAAAAAQAAAc2gAwAEAAAAAQAAAXgAAAAAePSecwAAQABJREFUeAHsvWdzJVeWrpfwOPBAee9YZNO7dtOj1vTMKK70TR/0g0b/SCEpFJLuVcTt6Ts9wybZJKtY3nuHgvdez7MPkg1Ws6pRKGTi4Jy1ySygUAeZO9c2717uXU2rq6trWbSQQEggJBASCAmEBP6mBJr/5ifiAyGBkEBIICQQEggJJAkEaMZECAmEBEICIYGQwCYlEKC5SUHFx0ICIYGQQEggJBCgGXMgJBASCAmEBEICm5RAgOYmBRUfCwmEBEICIYGQQIBmzIGQQEggJBASCAlsUgIBmpsUVHwsJBASCAmEBEICAZoxB0ICIYGQQEggJLBJCQRoblJQ8bGQQEggJBASCAkEaMYcCAmEBEICIYGQwCYlEKC5SUHFx0ICIYGQQEggJBCgGXMgJBASCAmEBEICm5RAgOYmBRUfCwmEBEICIYGQQIBmzIGQQEggJBASCAlsUgIBmpsUVHwsJBASCAmEBEICAZoxB0ICIYGQQEggJLBJCQRoblJQ8bGQQEggJBASCAkEaMYcCAmEBEICIYGQwCYlEKC5SUHFx0ICIYGQQEggJBCgGXMgJBASCAmEBEICm5RAgOYmBRUfCwmEBEICIYGQQIBmzIGQQEggJBASCAlsUgIBmpsUVHwsJBASCAmEBEICAZoxB0ICIYGQQEggJLBJCQRoblJQ8bGQQEggJBASCAkEaMYcCAmEBEICIYGQwCYlEKC5SUHFx0ICIYGQQEggJBCgGXMgJBASCAmEBEICm5RAgOYmBRUfCwmEBEICIYGQQIBmzIGQQEggJBASCAlsUgIBmpsUVHwsJBASCAmEBEICAZoxB0ICIYGQQEggJLBJCQRoblJQ8bGQQEggJBASCAkEaMYcCAmEBEICIYGQwCYlEKC5SUHFx0ICIYGQQEggJBCgGXMgJBASCAmEBEICm5RAgOYmBRUfCwmEBEICIYGQQIBmzIGQQEggJBASCAlsUgIBmpsUVHwsJBASCAmEBEICAZoxB0ICIYGQQEggJLBJCQRoblJQ8bGQQEggJBASCAkEaMYcCAmEBEICIYGQwCYlEKC5SUHFx0ICIYGQQEggJBCgGXMgJBASCAmEBEICm5RAgOYmBRUfCwmEBEICIYGQQIBmzIGQQEggJBASCAlsUgIBmpsUVHwsJBASCAmEBEICAZoxB0ICIYGQQEggJLBJCbRu8nPxsZBAIRJYXlnNZpdWsjmupZW1bGl19YfntLc0Zx2tzVlna0v62sbfo4UEQgIhgZ2UQIDmTko/ng1IrmUT80vZ85nFbGZxJV25WHo7WrP+ztZsqKs9a2luy9pa8n+JryGBkEBIYGckEKC5M3Jv2KcuoVkuA5QC5NjcUjYyt5g9BTCfTi8kbXN+sappNiGhrvaWrBfQ3Nvdnu0HOPd0tWVDlfasm583NzUBpH4qWi1LYG1tLVtYXs3muRz7RS6Gn2stjWErY5hbFLQqxLjW8mhG35RAgGbMg1Il4AY6tbCc3Z+Yy757MpXdHp/LhueXs1G0zTV3U/4XCjXENgmKXHsrbdmR7rbsVH8l+/hwX3ZioCtttAGapQ7dlh7mkE4y3s84FE0yzloVnAMenNqam7OejhasCW3Z3h4PRe0xrluScvxSmRII0CxT2g38LLUMTbFP2DwfTMxnV55PZ18+mMhuAprjaJ3TbKStaI9t4iRyEjiX2HAX0Uj60SwPoHE+HVxIQLrMzw+gfR7o6UifU6xN/G60nZeAmqVAuYxv2sORgPlgcj67M8Y4Y1nwml9S61wDIJuyvnXz+6G+juxAb2e2V2sCINqefNnNMa47P6TRgxckEKD5gkDir8VIQHOsWsbF4ensz48n0yY6DICusHkKlD1soJrm8lAfIVAXZhsbcBMb8SS/f3t8PlvOxrKHUwvZr44OJM0kmfMCL4sZtC3cleFMZtg01k+nshsjs9k9xvn2JGO9vMK1mq2AqgKrB5221qasgrO6D//1EID5/t7u7OxQd7afQ9HBvk4OUlvoRPxKSKBACQRoFijcRr+1Wgd7Y/JfuYk+mJzLLj6bzv4DDVONsxPTa1W7ZPMENH+6NVV9oETXTgOc+j8fsgHvwWT7wYGeFFnbiVbyst/+6XvGT7dbAo61TYvC1OJyGt/zmN+/ejiePZhdyu5ML2UdDFKHB6P1wXJ2CLIaCdr4YTfgObewkq3yw5W17myAMXZsm/k3D0fRQgK1IIEAzVoYhTrtg/vo5AImOQDzm8dT2TdPJrPraB7zAGC7m+cm39tNthVYXOWrASRuypcx7w7eas3eVjPZ25NMfZu8XXysAAkImWqQjzkMfYsl4QJa5s3R2ewpgLmIdtnHoUitsYVxz+Fvje8S2PIDQXGV37/M7zzBhPsxhyPTkI6gbR7s7SD4K7aqAoYtbrkFCcRM3ILQ4lc2J4FVNAm1wyeYUy+gYf7+7ng2BYB2gILtIuEmWzLb8vEVAFM/p6bem4BvC3/vRDs5hTkPt2e0HZSA5lbH59n0Yvblw4nsj/fGUsTsouZ3xroXjfGn21/mgaCpj3vagxVA28XvNXFfNU6stdFCAjUhgQDNmhiG+uqEQSBGSo4BkN8DlvowbxEIsoLpTnPsX7bJ13tvf09NxTYBcN6bqqaraPr1p3nKQvpA/FGqBAzweUiA12XGexjgFCy1zeeBXZvpTBpDx5cD0Cj3+xptdR4gNhjszGBXSj3qwfcZLSSwkxKIGbiT0q/TZ5tOMDK7SLDPbPbvD8az//36yLo/q7qJbvW13VQ18ZnJOQYozwDCj9igRzABdsAWpEbT/FLf6FafGr+3GQmMMt4X8GGe54CkZUGTrDmYjsnrtE4UUmOin3O/+5h6xzgczWOOX+Ug1tHaR4pKbFmvI8/47PZLIGbg9su0Ye9o/t0MKQZueN+wgV7E73h7bF5HJKki1WjJN0kN+eF30Tw0BarNTLOhumH3s5nq94oJXe7004/pIclDzP2peQ4xkFQQJStWev0wZpvoVv5ZYbaZ8W1GUx3lQHQJc20rVIr6QPVz7u3uSKkqm7hlfCQksO0SiD1m20XauDdcYLOUDs8AkC/wa30FcC7zM9NJVABf5tXaqsQMIplFE3Fj3d+NNrIWjq+tynKrvydgzjPG4wR8PQQwn3CAMYJWDVPw22rTrNvCpPFQdHkUXmKtvQI0B7MPDzUHaG5VsPF7byyBAM03FmHcQLA0OCf5tIZnskvkYt4AOIcB0ApI2bXNROtuxvmGrBnQJHoDR4ysjVauBFKKCfIf14fN1ynmQR4l+yY90XftQWteUMY0+4A0Izcrx7mVoCLHWiYhg4SihQTKlECAZpnSrtNnzcEX+4RN7drzmeyrRxPZBcyyU+Tb5RpmEa8taKq5GnEpaLt5B2YWIelX31MuWdOKptPBZSVbZhDMmhXwtqOlQCK0Vsf4JoFGMkcZ8CVJwlukGwVoboeU4x6vI4EAzdeRVnz2RxLQh6mmZ27eZQDzAhrmNTTM+9CmdcArampJUc07p4s/DLiM5PeiJP3q+2qe1c+oiVaaRDXAtfUI51f/5ub+daPGObW0nJ5xhbmmv9Ogr340zS7SjiT3jzmwOZnGp95MAgGabya/hv7tMSqUGClpWskf7k9k9yBhNxCoE8DcLk3jZQLOq26qdQxgpqu0VZljXvb5+HkxEtCvjLKZArOK1PTVOLuZVE0A8100zhmAegagFrDPBsFFMYMbd/1JCQRo/qRY4ocvk4CbpNqFhNuPAUxNshIXfI+WaW6dG5v0eGU0NQt5SzXRqW2U9NgyXm33PCNp+Wr9bxb487deONc4jZoeYZ5NonXCJ5R4iVvxme/tqkbUmnok7V60kEBREgjQLEqydXpf8DJFq5qHee7pdPY1eXn3MMdKXFBhsyqDYFvrnxUy1C4FzAPQrPWibebEB3Uq+pp8Lct7merj4aVaqq1YwPLuKR+Xefh8bjm7hDugzXQUtF01zhODFeZh0EPV5GSpk04FaNbJQBb9GskMx0ZlQIYm2esjBv1MZv9G4M8cEZNyi3ZxFdnsA11IvqsKZllLSO2jBuOBns6slzzNqK9ZpPR/+t4WkFb2PQCnpnKngIcax8qW517+9G+//k+1LrRzf32nWjaec1kpZwoAtQ1UmAd8ppWOhI/z9eUbv/G3JRCg+bdlFJ9AAgZ5jJBC8git8jvMsd9BcXaXqiXyv5pWUoZFTD/mAv1wcz7W35l9tL8nOzVQSZUw3CiLheyYBj8lgbZ10BwCrPaj9T8BQE0Lcb44J4rU+aRkdE6M40e/Pj6bdXW2pOjd00OV7DR8xIJ5tJDAdksgZtV2S7RO72dKh/Uvr6zXw/y3h5OYxFazTjbGN01k36zINA3PsUsKkMcAy7872p8dBTxT+ahAzM2KcVs/p5m8rYVamGj9BwDNwY6WbJiBmgU4Eyl/QePibXUFqM/KRjSMximATvO91hALlAdobutQx83WJRCgGVPhlRIwrUQy7qcAplGy0uOpba4CoonYDAAr2gxm7t8yu6Nazdv97dnx/kr23r5uALOSEtx9/nabAV8plPjHHySg3AUwC0i/h+YvWBoUNk1Ua5Gq/w/jzdzw+V6WoLs1kWWdpJ8MVtrJHV3J9lEexbSUaCGB7ZJAgOZ2SbJO72P+3T1MX1dh+vmSoJ8/cUlnlkyybFVuVkU3AXMGv9Ve2Lx/fqgv++Wh3uwUVS8OU2tRP2YZpuGi33G3338/fLA/PzqAnb45G0bbe4Dfu4y5odzUODXVykZk9RtNwxmYPUU/Pj3cF6C52ydXjfU/QLPGBqRWujMD56flvR7qwyRK9gosP0bJGvRD0Coln4rX7gz2ACuJzmzJDna2Zicxyb6PhvnWUFe2hwCgDqImo9WGBPQzD6LRnSJ69eODvalTWiSMsk4Yxh8ebgTSH7TEbeh6rul6K1OhvDTX3qDCDvidAoKWcCNorh1kzkQLCbypBAI031SCdfr7AuZNImRl+vkC7fI69TCXMLnJ8gNeltIEzCWA8zCb8ccHegDMnuzdvT3Zwd7OFAxUSifiIZuSgBp/B6VsDjM2f39sIDuAWfT3t0ezMUz7mtcdx1YgM0XXbuqOr/8hNU5zNHUp3JuezxbIQ5nHjaDZ9lf0KUDz9WUav/HXEgjQ/GuZNPRPZgHGWbTMm5zUvyVC9iL+qevkwj2ZWUp5mEWnlSh8E9j5P1GjWT/xXfLvPj/Yl72Llilg9hF0Eq22JKBf2WuQKNqutq6sj3EzJcQyYU+pefoQcy1DmrROw3e2W+NUGtU+VDXOSYBzebVa11OrifNI4gP9m1opooUEtiqBAM2tSq5Of8+gn/vjc9n3BPx8g1n2Ft/PL60mph9P8mU0QZNHZsfY3D7Y342W2Zud3dOdTGydYZItYwi2/AyBy9xNTbWfctDpI3/za3J5rbGq6dT6m0JmkRqnZmAjdyXzH8Fisrw2n/XQBw+DHzCXAjS3PLzxi0ggQDOmQZKAxOsLmLIeU0j4Kv7LS5hl1TCfstn1sAkWTY2XExeYNmCUbAdko8dJJ/mETe4DojJDw9wdEzVpeyBiL+B5do++5zZ4YpezW1guLB82QU6lVoQi20aNcxof/Bxz+zIWk1merR/8+EBX1oljvsL3QYhR5EjU570DNOtzXF/7rZ7iA7oFSGqOPY+GeQdSbAv+dhNNUYaGKVhKXDDPN58c6M7eY8N9Dx/mz7j2EcQRGuZrD+mO/gKYmcYMnoHsEzROAerbJ5PZt4+nUv3TMjqXa5z2ZRTAXlqdpzLKeCpj9j6HMa/I5SxjJOrrGQGa9TWer/U2iRpPkxlHf8nXL+DDNMfuAlrm5Hw16KeiHa3AltOtqXykklJEPJ5Aw/wNxAUnSSs5RFqJFG3RdpcE1PY6OG21MX80rR/i4GMqyCPmmVHRC9jfq77rv6id2xlVq7RyjdPnqXGakiJJxwg5x2qYR5hbmpJb+V6AtW13H6p3jT/rSQKxG9XTaL7mu7hpPUCjlEv2PIApPd4Tgjbk8jStxBN60c0ts0pcwOYKWB7tqyRfmCY0/WLt5g1E27UScAoJTAbivENAlwD2PXPtKgczq5UYIc2PEmgVlUBkH2SRcq5pqn3Gc7WoCJzvYsk4RQpTPylNgmwJU37XjmV0vCqBAM0GngkGZdzF1/QdxOvn2US+YjNzZ+lAOygLrDTLqoHI4vI+m+o/nxyiUkUX4NlJjl0A5m6fnmpuapzmcX6EOVQ/pwWjh2eXksnUg5sBO2p7RRk17IMuBq0aMhZJgLBMGtUj6r8aHNQHYJoLLB1koOZun3HF9z9As3gZ19wTDMF/inYpccHXRMmeAzCHCfiRVaWpiST0EnqsxqGGaUmpk4Pt2VsA5Qf7e5PJzHSFMJOVMAglP0Jg1Dd9mrH+HYejgz3tcBnPZMMUAhA8fyB5Zx4W1ZzbAugCKq6RtddGZgkKGsue04e3MCNLB1g16xbXh6LeLe5bjgQCNMuRc009xVxMg37OEZjxNUE/59k42lAxLbmkgaqM7SJpmGyUA9iB32Gz+vt1H6Z8sht9TDUluOjMG0lAc6iAdBrWoEFybfcCUNNEtHqpARq9rbZXlMZp5723ffBZmmqvMvc9RNoHa7Oqdcb8e6NhrvtfDtCs+yH+ywu6MUi8flviAgDz/LOp7DE+TKNksZ5lTeub2l9+Y/u/S+wwIKbmsJMUjz7DBvoJtGtvw/SjD7MTzTNafUpAsPJE1mvtTUzvSyvdiTFIy8ItGKfu4V/XApFrnGqF22lxyO/lodCcUZ9lWbEVaPb8twr9Gqcu57GBzuwQJBoshwSw9Tka8VZblUCA5lYltwt/b5IN4jJAeYGAn5SHOcYmxebRw/HbE7ibSdFN0oJZnjkEaH4ENZ55mGcIxDgIgJqfGa3+JaDG2dEEnzBj/mvo7czl1L4xip9zBgahRSZJVSstTha5xmk07SjXyvg8YD2e+vCbbDBVR6lqnGWsiuLeM+68/RII0Nx+mdbcHdUwE5dsysOcya7AKfsIjVOzlAE/qe5hwb1WwzRSsgJYCphvA5Ryyb5NYMg+KmR0R1pJwSNQO7ev+gwzUolaslYCvmyjaHhzuA3uEJwj5Z5NE34T80bYyrVEf74dzft538RSxDMm8G/eWZ1LEbaaaXsx0+6DkcrSYusK8rb3YTveI+5RvgQCNMuXeelPNKXkEpGxFwm6+A5N8xFEBksgWCeAqQmqjLbIDjiHhnmMoJ/PMcd+AGDK9HMIbaOjJUyyZYxBrT1D8LSAuBVIfnmkP82F398aSeQH87gM9HP6GQN3ipqmzn8BVHI/8zjvYiKmMmcief8lpc4G4NJV4zRlJVpIQAkEaNbxPFDDnEabvIGG+T0BP1fRMB9CkzdBcV61y6I1zI3UeBUCfnrYIM8QOfkxYPkz0ksEzN6OIF+v4yn4ylerapxNaJxN2bH+ppQraVS3lVGeEM2qxlnlqpXovRiN0z7YqtG7pKMsLOHzx6+KyVZfq8FKctUOELik3z8H2Ve+WPxjXUsgQLOOh/cBpq4rpJOcx4epSfYpG9EyGqZgqU+njGZaiYEdZwc6EjPMp2iZbw11J5NsaJhljEDtP0MgkgBBSruPmB8GhP05EaxXWXyMdLUV6Xd3OahN+tXKLIL2t+RyypX788P9qV/VXM7m0taO7xyt9iQQoFl7Y/JGPfJErmlL/9A1gPI/7o9XfZhsAvMgmMTrZWmYvkg7O53EBfow//tj/SlK1gCQ8GG+0TDX1S8njZN5ohlUhh5p92y6FdQ2n6N5WiOT81ehGqfg7foRpBfIW3YN3Saq1zQYGYNSIWsjvKkbKrhut5/Vd45W+xII0Kz9MXqtHhrYIMuPVR2kK7tBaa9xzLHuOIKlG0PRzc1NDdMUlpPkXb6zt0pcIJesWkREyRY9Arv3/smHiRnUiOr/dHZflQ8Z18JjAtcETgPKivRxujxy/6UWEv2cl1hLfv8+bgUJOPZDytBGPEBZ1prdO5r12fMAzTobV0HzDkD5r7dHsjuTC9ldLtNKqtR4JSDmujzd3Fo4jx8n501qPMmxJS6IPMw6m3Db+DpqbgKR80bQPD5QoTpKczZGKsrEPNqmqSG4F5oLPPzZB0FZjXOR53n4u0QA3T3WlH5OtU2DgwRW+xmt8SQQoFknYz5vuD4a5l0W9zmo8QTLSYKA0iZkAEMJ75kTF7Ty0Lf2VLITAKUFpAVMw/jNvYsWEtiMBHKN8xgHrd+cGMy68Xdeoc6r1XgWAc6cACHXCjdzz9f5jDO1em/oHjl0zpA7akBdx+1R0mOWSJWyKPq6xhnz+nVEu+s/G6C564ew+gL6X74HLL+4P5bdBjBvEjovlyy1nFPYfhmvyV6WiAu6iZQ1B/O3UONZrUSzrCf42FvKGIX6eIZzReCUcs8o635A00LpM7gaRgnOmQfEyqDcEzgFTeMELlOZ5R58zWNovWrAqTIKCyw0zvqYc5t9iwDNzUqqRj+n2eoRC9mAhQv4Xu7y/Ti1MNUsvTwxFx2wkGuYEhcc7m/LjqMdCJq5DzOqldTo5KnhbuVzVv+35thjlI37/Egf5v3mxGj1gHmuCVVAA9eqc91vtqnlz/d2EiwI4uY2TwLat7HmfPlwAu1zJfEmS7mnFcVApmj1L4EAzV0+xlKPfUdo/LeE6N+CCuwhXLKs8ayDBewSLmMZ6/f5gRqPYInPSBt4Fy5ZC0iXVWJslw9jdP8lEhCHBDC1Tf3hBpJNoWmayzlLasgcGmeV7u4lN9iGH9sHtV4tKcv4Na1Bq6ZrZaAKVVvsk6XPWpuDpGMbxF3ztwjQrPkh+ukOpgRwIgovEiEraGo6MkpWM5Jm2TJOvakWIhuJ+WuH2DjeIXjDPMyPAM59BEz0BDXeTw9e/HTTEhAwPfiZoiRo+v2zw4tEYDfhv5+Hdq+qcUqC0EyIuP++UUvc9INe8UEB0yZZhxmj00TUzi/PJ0KEvZX2FDB0HE1YC0uucW53H1IH4o+akECAZk0Mw+t34gmA+cW98ZSAfW9yLtUGNEpWP091ib/+PV/3Nzx5L7GRHAYwf3G4b51Lthsi7s5UN/F17xefDwm8TAK5xjnkXMNXLifsF+Qgj8MZOwOITa8sJ8g08K2o+S92eiBlmSWzsHVAv3gwnioH/f3xwcQcpOYpcBbVh5fJJ35engQCNMuT9Zaf5AnX5p9uEFYruQFxgXmYV9Awp4iSncdsVIaGmVPj2RcLSFsP8xSpAVYrkXzdkPw+KMeihQS2UwK5xtmFVeME802yd9eBxaMtPrAypX+zyhykr1PQ2m5tL9c49X/ox7cu7V1iCWboh2BuNO1B5r9rQIajHOi3Uw5xr52XQIDmzo/BpnqgKRRcTLUwv3k4DnnBDD7M2QSYbhICpou0jJYH/pwZ6kgJ3+/CIyuX7H42i05O2tFCAkVJwCluRGsfnMUf4wowgvUbgnK+wac/jJ/TQB2hs1ACBDrhevMU6xcDgqTc02XyK0jeLXdmv1wLar7R6ksCAZo1PJ65hqk5KJmg0ChvkSv2NZuE1RhGME2VrWG6IRnR2EGo/UlO/FYsMRH9MEE/QY1Xw5OpTrqm9igQWQBAjdNanAuA1iRR5LAgQIAADR5+fVvhGuc6IJo3agFtzbXy50oTeYz1sKeLuqEECIXGWSeTb/01AjRrfDz1G84TJXhzZDa7RnK39HgPphYhLuBEzb+VpWHyqGyBvWiVjeIsQQ9nyb389FBfSiuxCkRQ49X4RKqz7olXmkvV5s5ANGDgW1cKPJskqnUpBeu4dor0cb4oUgkX5Hv26+esjQ85ULo2ugD4pJm++Avx910pgQDNGhy2XMNMgMkpWgaSy8NT2R9uj0BgvZg9YVPQXGvQT9FRsnlfPLsLmC2cnC3v9c8nB9NmpYYZJtkanER13qVc45Q8XUuHWqdtDmtMUzbLQRPWIA6bhuRYLdO23T7OdNMNf5gzep3DrZfRvJYWE9xbKLLe3FaMn3XD4+PbkiQQoFmSoF/3MYLiFP6Zq2iXBvxcJeDn0TQnaEA0mXvSZvC6d339z7vd6MNUk1TDFDA/PdiXmH5SjUGdOtFCAjsoATVOznLZKcDT2TiIdreyNpE9IWd5geAgwcw1U6a3XTrLf70zmj2bIW+ZyHKDgzTVWvUn2u6WQIBmDY6fQGXQj0ncF6jw8P9efw511zJ5mMuptwY5uAmU0ewLedzJh6lJVg1TajzJtPMIwTL6Ec8ICbxMAq4FgfMU81Ou2gpm2vsTC6lCydICFHgAZyqHV9KasZ8WTXgIa5GR7fo4jfZtaWpjzbzsLeLnu0UCAZo1NFKadDwVy215Dc3yOv6R82iZzwgwWOTntrKo8VK0Lo80rcQoWYN+9GHqP1LDFDCDgL2GJk+DdmWjyVXCA6ZrOtD97vQQjFQdaQ3doxi7hOsSfySNswTriH5N1+wtwPP/uzVCHMI8LFndpGd1JSrAcGns3gkboFlDYydQWf5oeGYh+5KkaavXW4C3apLFBMVJuazDshgtcYF5mNYRNEpWLll9mGUFH9XQ0ERXdpEEzJX87Ykhcibb0TAziN5XUiyAtTGLJnnPxeQR1ziAR5iIh+fGsiccfOUzGiRVZhCNM0Azl9Tu+xqgWQNjpoYpYBqyLhG1WqZReI8og2QIvQtQsExXwadk/ZdyyUqNJ9OPxAWekA22MBIwFnsNTJjowisloO/Q6/hyJZvcb2CQaVLTaY2ZHmKdTDXOMtaTNTitQOS6Pv9sin5QNo+1dGqAovBE/trPaLtLAgGaNTBemmTVMPWD/PvdMao4THEyXkDDZHHTv+SPKamf+i8lX5dLVmo8mX4kLlDDjLSSkgYhHrMtEhgih/OzI/3JTGulFAHsGZHnj6dXqhyx68C5LQ974SYCsu5L169ujHEsRl88mMiecjD+R+qD9mBHHuIQGqD5guB2wV8DNHdwkNQwTcAeoVrCY6jALj2bzq6iYUpcIEWX/2aAg1fRTQ3TFBfLew1xSb5ueS+p8WT6CeKCokcg7r/dEuhImlxLMsladcd6nNdIB5F+z7mudceUKoFto290O/qRr9j8vlZHGWFNu5Qvw5vbDWi+tZ5f6mFUDbSMdb4d79bo9wjQ3MEZoIapqUgNU5YfNUzNOJY7spXpO8w1TOthWqXEaiXV6vRBjbeDUyQevQ0S0KXwDgfAPqjtBKhnxAxYEWicyFZ9H8nPuQ3PedUtBFGfs8BCkwJzAuDWVNxN3+yXV3Oko7xKhDXzbwGaJQ+FJ1vWaap5mQin0TLNwZS78hY0YLOchgVTAbMM4gL7YmtlwXYT9GN5I+thCpxWKwny9ap84s/dK4F2/IbH8M3vRcOzKsp9Dqn3jRdgLUq55xooinIvl1qyGPEXTcT3ORg/Y93v6WzPhohEP0yUr+uvi3/XlBsaZy612vwaoLkD46J2aRV400n+272x7A6VEtQwDYm3lalhGvSjafatPZVkjtUkqynLepgR9LMDkyMeWZgENIH+jPndhWn0/NPJ7NyTqewe625kTq1vtRSN05dT61zheQYGPUHrlXLv85Xe7ChxA/2AqGblaLUrgQDNksYm1zA90Uq+btLzFdh+/ivUeDL/6N/kkFlduH5TYMup8TxhN/EsQ+FPsGB/S51C00oO8X0UkC5wAOLWOyKB1mYsKWicXlpxFjGVCpZTfDUQz/WQr43cF7ndHXVle1n7VsvSFQow0C3AkkhaTMftLS30LUjet1vu23m/AM3tlOYr7sUaSQtUwPzuyWR2CeL1K/g2VtA4dWUY3ZcvqFfcZlv+yc1BDdOghDNpE+nMPiZKVqafQaJm213F0UICdSwBo8F/ThmvlkTS0ZwsPTJuGSykibSMjVGLkmvw/uRC9nsKyk8trmafsh9YIUUfZ2ictTkBy5gbtfnmJfdKDVPz69gc1d6pOP9/XRv+oQcunoSYP/yk2G80AstY0gJav7NXaryh7AgLVS2zlU0kWkig3iWQa5yWGFu1eDXrUxKRKdZFB8sxrckChaAmS3W9zHLtt3HPfP/c2rgrqSJKJ+uymmsaZtoCh2DLtw7Q3LLoNveLVpM32OA5+WHS4klaYLTsTjR9lxxmUy3CswMd2QkI2D/Y35sAcwANsyiT1E68azwzJLAZCeynAsknh/uhtsNJgYZ5d3w+FZWeg0XIYtdFg6d9NA+7m68j5HB+SRS9nNOfYjI+zvrsoVJKpHttZiTL+0yAZsGyNhLWnMtHBBx8/Wgy+xP0eC6KnWhYfrI5+tNDNOFZcsR+c6QvfT1KxGw1am8nehXPDAnsnATMQe7HFGrxaF0n5lPew1xqOkoHRpcyQFONU6uP+dp/gnfaUoDmcapxGkkboLlz8+Onnhyg+VNS2YafqWEug1JPIC24SkK1kbIG/ki+ngcbbMNjNnULNUwOrom44Nhg+3p5r97sXSIJEzUeCzRaSKARJVA1gzanyFVLeBlZ29U+nWXPLf4OBd66xukKKcoSk6ejuF9olXoIaHvAngbE39+/koalC8KRAM/amKEBmgWNgwtADdMF8OXDccgLXATLKWquoEe+9LYCptR4Mv1IvP4xOZhvDXWnKFmrlUQLCTS6BEz1+OBA3w95ybOsVQu+GxykxqklpujmI9rRLGd49rccskfQOm39rNtg5Spa+pu/f4Dm5mW1qU8mDROAkhbvPnR4F6DGk7rrEX8XnsqEKIOPwEtOqFVqvLehxvsA7VIu2X34ciKtZFNDGh9qAAlUNc729KaTgJUH3raWmVTE2rQUD8FNrCfXb5Eapx1ILh1MtLbBzplUnu9tNFDZjCzVZ1+DACGJZ0f+CNDcZrFr0tE3co6T4h8gX79JHtYkLCRpsW3zs/7W7UwrsbzXSYrgfnSgJ5EXfICWeYi/d5APFi0kEBL4sQT0bb5HcJyap8FxHah/t4lHeACDUBPrqQzKPfcKg4OsjvIdRegfE0T4G4C8mecfITjoAOs3QPPH41bm3wI0t0Ha+ig9HXo9o37eYxbYZfIw1TKf8L0LwMVWRrMvrK2kYXoqtR7mmcFKqlYi+bqA2UtNv2ghgZDAX0tALU5TqGtnHtCSuUevoukgHojXWOMSvRetcXp/WcOGlxazSfoxgLWoC03Tg7C0gN1trTB2oXGWtK/8taQa9ycBmtsw9oKUp0K5ZC9CjfUN9FzWxHTRCZgEwZXakobJ4j5J0M87RMl+gh/TepiaZEPDLHUo4mG7VAKy8xznsGkAji4OXR2P8HE+JcJVAoQyNE73jU72D83Ct0lTmxC4WdduJ/LVyg2tJhytXAkEaL6BvNXqPHVarcAC0vcn5rJvAcx/g09WYmgNoGVqmC5uAVyOzU4W+1uQFfw91HhvwyV7EA0zou/eYLDjVxtKAmpzR/oq6VLDFLg68HHOoXmOrS6ldebaF7KKMpV6X4kWjH63IP11ckgrrG3tRAsrVQ5dmYOk3SsjUKmhJsArXjZA8xXC+Vv/BFZm05YYwt/wPRqmicnWwpxjkZXdBMsFTqFrLLSz+D3eJ9hH4gJZfqTGiwLSZY9IPK9eJCBblvma7ZhsDQK6Dmfss9nlFCykJli0sqepVo1SgNbd86e1iVQNyQP5Uda6aWOSIEQrRwIh6TeQsyYb00ieERmr//I/3xr94W5lG02E6Xn/YIUd5YScU+NJXCDbSbSQQEhgaxJwDXlZvmuJA7H+zeH5lZTGJZgWHSGQa5wCp3nfdwlMkgZzKGmZVfID3LDRSpJAgOYWBK1PwwhZTbJfPJpIJX7uYzrxRJi3skBTE5GXmuQnB7oTNd6nB/uyE2iYfZw+i67Jmb9vfA0J1LsEDoBMnx3pTyTvFdwft+CMHSc1xHgGwbOMteZzmthonrL3/Csc1s94vrmkBvmpcUb92+JnYYDmFmRs3pa5XA8wxf77gwkm71jyPXQyoctu4GVi++mAi+s9Fs5v8GFarcTafJqSijYdlf2+8byQwE5JwEC6wUp78iFK8t7EdQnGoAlASyBrLaHqQitbjMA5QhrKgxkBE45cBFLh0GyQX4Bm8bMjQPM1ZLzAAvFU+QCWn6tEx16mtNfjqflsTeemPocSraCahn2s0X3HOGFK7vwexAW5DzOqlbzGwMZHQwKbkIDBNl77e9qzd4kXaCEApwm07GyZTZR3umo0pboNFEWAkN/XwCSvMTTNi+xFPncBEPdAb36pV7RiJBCg+RpynYOPTpPspeGp7PcQF5wn8ViC516OfxtNs69xyy1/VMBcZNEcwK/x2aHeRI93lihZAwM8iUYLCYQEipHAXg6pve2t2QE0T1PKuvB1Xh2dy54DYO1sBGVEsuYk79Noud8ST/GcaH1ZjCysfZYgwADNYsbeuwZobkK2VQ2T6geklFjaS7DUNCvTT5nEBXbV8HPzMKXGO8xp8l0WiJd5mHu62kh4LlHd3YTs4iMhgXqTgPEDXvtYi2+z9lJcK+BpOsoMwCXRegv/BpYmDbCI91ez9KBuxLwpb8/JH70K+xhbQyJjkJxBdiPjGoIAYXtHIEBzE/LUJKuGKWDqw9Qs6wnPaDb+L7UJmDMskoNomB9Djfc5QT+W+TLROQCz1KGIhzW4BASmUxQ+kMO5mbPqCgB2jeCg5+wNbqyVEiw++jgrbEJG9d6AAGEMH6dB9OZznuQg7eEaI3KDj9T2vn6A5ivkaZTsIn4Cw7wtIH0Jajx9mY/wY7axIMomLmBNphPu3s7m7ORAJXHJvruvOzOqLwIAXjGQ8U8hgQIkYIWgvd3tqaj7PPEO7hcLrFFBcx5t06h2CVCK9HFaKFuNdpHNQUKVWcyz/diIeyFnMGfbmId+aDMF+DLMxgWIueZuGaD5iiGRtMDCsN8+mcz+271xynz9xSRbpg9Tk4tmmDmOkG/3t2c/P9QHYGqWleknNMxXDGH8U0igcAkInkasmw/dhntELe8KptI7Ewsp5kGfZ9EbrcCpxtmEgdZyhLIYTWMhs8TZO+wTJ9A6u1SHo72xBIoeyzfuYNk3SFGpAJTk67Jv3B6fzS5ijrVqiew/mmTLyMfyvXPydUFTH0oz3v/jJFn/gsCfsywCATM0zLJnSDwvJPBjCbg296Bx6kM0erV5bTWb56vBORipgDFK9KFxaiTNo19/fIc3/1uucfocD/tjC0vJEibBvP3rxZ1DFfpUViw0zjeTd4DmC/LTLzFGDpSh3H9+PJn9GbBUw/TnmmP5v7QmWOrDbOKhmmO9PqS012mIC0xktiJDtJBASKA2JCAY6SoRwLQK2e4RMGjVowU0P/ePonU9tyej5907JECYI/6hCdBk+2LfqCTSk6Dcc2S23gI012WnVufEMuhHDfMO5pU/PZrMfg/rhv9gWomRsmU0+5I3AVNwfAfigt8dH0h5mMcAzwj6ySUUX0MCtSEBQVPrj5etwpm2G8Cy+tEC4OWqztd2URqn9zUdRY3zGYf/21RmWWX/WsTHusDeZp1QyeiTZlrSfpaEUUd/BGiuD6ZmlfG55aRVnke79HqEhmmVAYGrTJ3OxWVqib6Sk5hj3wIwPz7Qm/wmkq9HHmYdrcB4lbqUgAFCP4MAoQkCBK1Fd4hsfUZ8hGlqgmvRG6/He11JNhmLLqIErPL3DvyuZxZ07XRkQ1iror2+BIoeu9fv0Q79Rp7rdHN0hnqYBP6gYWpKSaApcJbYL0GTIDgmeFMyqahhGmhwHA1TIF1fCyX2KB4VEggJvI4EpNwbwodYITAo+RVZtDNE2EqA0OECRyMsurXzCMsEyk37hOeaRyrVp5qn0bQBmlsbgYYHzRmiyybQMB+gVV6gvJcBP3chX3diacIQoIoypbw4ZGqXi4Blpa05e3eoMzsNSH5KpOwZ8jAHNKsAmOHEf1Fq8feQQO1JwHXqpcb5HhqnwTj+vZOvwwDYmMQo7C9FuXzyPUtobmVfkVRvimdeInWuSpCyhp91JRWmN4gp2uYlEKCJrV8z7BVyML8m8Mci0vodNG0Ufxb88UBpxpkDrHvwOcgj+0uiZOWSPbxez48uRQsJhAR2kQRk5OnEvdLBQdjla0DhHNH4kq3LVd1ewi6TU+4tApI3MRNb79c9zs2/5UBTivzdRSLd8a42LGiqYZpCchNb/0UA8zKkBfcBT0t+GeVW1Anwp0Y8p8bTZHKgtzU7RZTbe+RhVqnx2iPo56eEFj8LCewCCVg4wWsf/kPXsyZSD8bGULjXzHHJ6mOepdR4RbSccs80OslaxkhJuQV4armqmtKyTD7dwfBxbkr8DQua1sG7C+XVV0TI/gca5h14ZVeJcOtk9hYzdV8+HvovZ5nQh/rasl8f6cs+Jq3kXTRNK8Zr1okWEggJ7G4JmOZxCjdLJww9HazpPqxJ30C0foF9qItDugQIRTcf0QEwm/5yS+5somklQHAvtE5ogObmRqDhQHOWk51a5m0A8wKTVhu//swx/JpO3M4SbaCGhZvOJT/kEJdpJR8Alj+DBNp8r244LaOFBEICu18CHn691tY6svk9Kykafxp/zCQn5iXMpkt8lXbPI3Luj9zut/a+Bjdq2VrgecMza9lN9rsVtM9uQN19qA/KPSP0I3bi5dJvuF15bG4xu4dpwoCfLx9PpcolckYmqqviD3s/GgkU21Te66jBAphjPznYSwX2KmBGHuaPRBV/CQnUhQRc10f6Kil61dJ+Uu7pZ7w5Ngt3bZVApWgCBIFZ7uw8l3NW4gUAXco964T2dfQFaL5itjUEaDo5JC2Qj/EOGuY5UkrOo2VeRsucIhxb80hZGqYOeLVLAVOuygECBNQwf415JCdf7+W0Fy0kEBKoPwlILLCntR36y9YUFDSANUnyEkuKyXO9xMZQtMaZfJwoCD5H4gXzODXdaqZ1X5JtbAhtU80z3EN/PQcbAzTxF8ry8wg7/jnSSvRjSjFFXkkCSydMWY05mcjX50HO44Pt2SeU93ofk2we9NPRUvQ5s6w3jeeEBEICL5OAwGUup4BpMQa3IIMRja2YIe+sLMq9pHHybCukyFpUaZ9Oz7ZO6NsQvQ9IaxTtRxKoa9BMPkMmpCHWDwHMi5hkvwc0v+OS08q0kjI1TAEzXSwYnRcG+vwGDdO0kkN8b12+aCGBkED9S0CfofmRXqahSERgRK05nDP4G90n3L8E06J8nLnGqfVrilgPCeZVIJbxsdr2AupdWMPsa/g4k0jSH3W9S+c8sgLmnx5NYJadykaYlJ6ubNU/07eF/6FJ1hOlNe4M9DlDWsnH+A9OU8RWx3sK/y68F/GAkEBIoNYkoDm0eV8T8Q3VakbXSIPTzzkBiHmwF1CLblJzNnGQNw3GyNr21qkUMPQ+e9QpDvWSNESrSqCuQVMfpiZZNUwB82u+5tplM5OxzKavQJOsGqaA+T+dGkqa5glYf8zjihYSCAk0pgRM9fDyLO/+5G5wb3qRNLSllEZZNAGCmqwECG2oERaxHl9YSNqvgUH2ZU9XW4DmhqlZl6BpcM8whewkLjDgR/ICzR5OyHSi2iCAor/VxCLTTycBP8cHOxJQqmFqmh1AwyzK9FL0e8X9QwIhge2VgOkeJzhQa5Ga5pS9l/1heGYhlSnUOlYG4Yq6hACqS+sRwH0J9iIP9aNUTDna/5cKLtv75rvrbnUJmtOA5m0A8xsCfr4BMC+NzCbuRUGT+VBqY/5Dvr6W9ePwfw+z7C8P96W0kqNUL9FP4CSNFhIICYQEjKjtImK1g7QU94UeDtp/eryWPQC8ukui3FOztKqTri2B00P/7NIy1VmWstbmwR/KnjXyaNUVaFp25zknMzXM70gruQBgPkXjXGLwW/Fwl+nMNpxbwHQRHMP0cpa0kk8o7yWnrD4M002ihQRCAiGBXAJVAgQDcNrTwbqVsmKG5OTpIOPkmKc6mPysKAuV9/Uc7/61QmCSxPJrY/OYa+mHZc7Y1OTC9mrUVlegOcFp6Mq6OfYcX+VXdJB7mHVla3QCpsnL+2Ha+GB/d/YLNMwzBP0YJRtBP4263OK9QwJ/WwIVrFKCkukoHvQrmEdVAlQAOlAFyzj85xqnEb2WM1tkQ/P76YWl7NfHBwM0//Yw1vYn9GHmJln9l1chLXjMBJsmEkw/gDlPZTUpqgz6UcPcB2CehaT5PfKdZPoxLyvSSsoaid31nLU1o8SYOD/ZOP0b2hitISSgD7GHy8Ag01FMCdFcal3MtNexrzXxc4ney9A4FwDLcRQSOpLk30+d0EGuPfhcjcsQxN1hi+pLrQ16XWiaT+COvUFisObYryBffwJxgaeiFIlWHl6msbUeplUMjmNi+Tm0eHLJngUw08kxiAtqbf7XTH/kiVpb0xgneG5sAmYrm1KA5kapNML3apr74aAWRAXQQXyeXxCn8e3T6QRg3bqcChaEs651XemYBKxvk43QfH88BVr++thA9snh/pTLmX+m4O7UxO13LWgmBzWDOMsJ7Ba8jd9jjlXDfADzT9ka5o+p8Zqzbib7aXKbPqRaSU6+HtR4NTHfd6QTzg+1yFVAcYU0guXVRa75dPmz1bVlriWuBYDzBdBEw2xuaseXRS4f4NlMEcaW5g6sJ518bWdDa0s/55zfMCf9HRnEHXioPs0e7LHGY6ysdmVdBAhJQPCYSNYZtM5lYjWcWwKbRAVFNLVHgdn9VkVkeX4tu20OKf5VtUw1zv09aJ3EabTpfG2AtmtBU7PFQzTMW6Mz2Pun0DJnCM9ehBkPdg1ORmWOn1tirmH+bKAje5co2U/RMt/Ch6lJNoJ+GmAlvfIVMbER0rG0Mkvy+CiuhBE4Px9gansCddkMnMhTbIqzmPXn2QSXf3QnNcyW5krWzNXZ2ktZqW5M/Acg1T7ChrqX6hRD/LwHyHRrK1rv+FHX4i8lSUAtTnAyFuKz+T7IDpqzq+x737PnWWxCVrN1ZbCwHgmHuS9VnlwzAi6g8Rpk+T573c+PDDQMT+2uA01BUdICiYavoVl+9WA8Ea/LYrFEQqT1MMvyYXrKq+oQmDB4rpRTb+HD/O2xfjTMHsKzo7xXYau4hm+s9qipVY1yCY1yZV2rnFsagxT7cTY++zB7Pns1G527ha9qAtq0UT47k4Dzr0AzaZZdbIpdEGgPom0McMI/SdHgd/h6hM30MMC5h0NiJ1qn9Vchy+CrGoJaabTdLwE1Tjlg1exWCJjYj5m2A4fmA5QE6k8k/6aaoMBWlF9xo8Y5Tx+mSUO58pz8d7IVjLQ91NvJ1ZGqt9R7oOOuA02d0mqXtzHJatv/nhzM0dnlrAn0EizLNBAImBIXmNd0EmYf00oSNR6mWanxokLA7t+wtvIGSytzmLKmAciHbCpXOeA9AhxHcCWMZPNLU+maW37O4W8M7ZOUqFUKoK9RQCAz2OIF8yya5srKIvN6hs/4u8+4zzM2y1tsnL1sUl5DHNj2Zr0dB6nD+j6mslMc4ozS7tpK9+N3algC/ewrspl9gLYne48lxe5iLjVQpyySd614KZcT5UXSmItovC0tI1Rp6snewyUleNZz232gyUDdIg/zq4fjAOZcAk25GU0rKUvD3DghjJZtYUs7NdD5AzWexAVhkt0opcb6XtCcxQz7bOZKdm34v5AqcJFN7S6b3PMfBKE5zStvfuvfX3RNiaEYV5JFY6HKo53+7s/y1qn22XkCV8C73KMV8+3eqsYRoJmLqG6+CpoJOJko3Wig1gEewb84zNW8VrxbKtc4Bc45NM5JNE5dDM+k/SPG5CD+zQDNGplu1np7ODmHhjmXfU2ErCw/lrOxFqah12XGFqbEX8BSM8QH+C/VMj+GuOAEGmYfaSaNFElWI9Njx7ph4M4KfshlgHJs7j4mV67Z63x/JwHl6OxNzK/DAB10ZBsmqSD5IkC+7CX8nJ/Pm99vBFwSEgDkJ2i1y/iZKIE3+W021HUmgWh/56HMS7Ot/tFIXcmluLu/9rLPHIdyb97TExNkb2U6u0+MhzU5pQotYw8SOJ2I5sKPrbvLum9LubeYncRNdZDIX/2gRQUp7dQI7hpNUx/mddJKvgMwdYBbBcDJYbm3DXtRKXIELzGpQa4MSeM7TI6/O9qfHR/oyo6SkOxJbOOGVkqH4iE7JgG92qv4LhcI5nk2fZUi519mj6b+DIBdwkQ7Qb8wuZJG0sSVNpkt9HQjYPrrTLEfN6Ju55eHuUaSn7StuRtu418yJyeyYwOfYLrtYxOV5zgqVfxYcLv3b90dLZjlO5OpVvIDvddTEKybn25Kr0lKRTf3Xfc6gzInV6AuHZ/NFtQ8MR1radu7TkIfoFn0SLxwf1l+nuPw1ulsHuZ1NE3t904JLwdOoCqjaYrVh2nAz9FuyJUxw2rHtx6mPsyoVlLGKNTGM1KQD9rlHEE8o3PXAMyLXNcxxd6Ap/MOgDnKZoLJjKmZT8/86+u8wWZ+x0OcwKzWa/rKGukrY/M3s+aJNrQA/KDLo/g5T6N9nibStp8+yW0aQUKvMw619tlUC5NTmHy1RyBSn6YG5tzqagrEeQJwPmPPVKmQfL2o/TG/bxMHR2NK5Kp9RjrMDfysvZ1t+OtXM6s4HcDHmfq7mclca4L+if7UvKY5wuCfQ7v88+OJ7NLz2ezeFMm1DFBZxaM3ykzAnMGOP9TTmn1ysC/75aHe7CxRsrL/O0GjNY4EllcXSB95ThTs9ezGyP+JFeT/QNucB6AWAC4Dd9i0SjSBOPucglUrhwTbd1JKy8TCXTbQy2idv8reJW2ltYtkeaJrAzTrY652U7hegvd2yN0HKq3ZYQDq9/fGs5uTC7iuqlH9Re9MTnPjSTTTjuIyWxnVp7+SPWWv/qczezmsmU/M3NyqqaXGhqpmQVMNU8C8jIYpNd5NNMxR/JqmlZiHWWY9TMO5wUpC/luyg/gSJCx4bx+FpDHNWmuuk0kbrTEksEiu5cKykbH3AKOraJbf40M8h/XjYTVAB7O94JWDWBlSefG8puYpUcIKwD5FPqhf9S3pgz+waHTtO/g5j9LP0DjLGJ8in+G4eg2gca6tdaaAMQkQ9DFOsYdOsmfmBAi5Zrjd/fG+zvdqkYq1VMj6MYFBTMNsb89U0nRlRFPrrIdWs6CpSVYNU8C8iC9Tpp8lkGsnqPEETGvcHWJifkIi76domXLJHiQ3KQCzHpbB5t9BwBybvZs9mPhzdmf837LHU99hon0GMFXvkQPm5u9YzCfZRxN4L69Osokt0s9pgoVuZxPzv8je3vs/cwDcx2ar2SwOfMWMQLl3bUeV00WkMrHIhlVBq/sG0pdvAc2c8EVgK7IlwwrPV8mQcm95ajH7+uEkwUlL2d9B8h6gWZD0jZI16EcfpiZZNUwBc4pBaGdHKiMqLH81B9+9UPL1A2iYapefA5gfkIu0j8iwPuz20RpDAksr82xGc2wAt7OHE9+QG/dHorm/5O83qr71dZByY3pR8ytbQvnz7YumYn2rS/OC532+X8bvdQitcwhz3jE0zsNldy+eV4AEJEBobZdyjwhp7t+NudYAnWmCg57PLKWCFmqCAluRGqdHMJ8j5Z6sQeaRjqHxakY+AB+3plqtc7uZAKHlX/7lX/5X3rNm2k2ICy4+ncrOez2DGo9TiicnB7t6enZKlNOW0DAt73UMn6WlvayH+Q4+TMt7qWGWCeDlvHE85WUSmFsaxyT7AKD8Bq7j3xMh+3XSMDWDsl8loMxnZg5aL7tX6T9f7xhTGVNdC+tJ/ttVDoMC59HSuxMPLFYC7kuSvcsF2wdYSQgzPGc+Jfsoc6HoaFanWzLZ8o1WOvdvAXSMvVzCl/2A52620NWEeVbzgQO7QPSVeZimlRgla9CPPkxNsmUBVE6Np4bZxsQz4EjQ/ByzrD5MTbKhYRa76Gvp7lVC9RVO7MP4Ly9nj/FfPgY4R+ZupBQS9oCabgK4mxhLDMAkkA3wX566gL/J8k7HyOU8y6m/K+Vx1vSLROc2JQH9m10AZTuHesd7AAvZNEtJ8A4AAEAASURBVCkgT9A2n5M/Kcl7mZR7apzu7TchpBnF5abV7khfR5qTFbIQ8n29KO13U0J7zQ/VhKYpl+xdcnwuoV1+8xjydXyYqfApP/dUZNBVWUJlnuG/rJb3OkMqyWdol/ox3yO1ZB8nJAddU0i0xpDAAnR48/DDPgIor43839mT6e8AnkeYvuaq2qWItFvael9XE1UfpjyiaD0kSrnX3b5nt7xF9HOTEnDP7OBU5x7aC5CqeRrdamqIh6miNc5qN/9SfUdt0718XsJ3gLQHQFcjrmqlu2ch7aimmaJSEeQkAylxgeTrF2H6UctUhGp5+Ulkk/Nkyx/bqGGu8nDT0c/AuPFPJwdTHuYxIr92s0lhy4Jp8F8UMCepRmLAz42R/we/4FM2Gys+7C7BuEm6pszjXFyZYs3dze6Nf4l1Zy5pmeZxps0LR0hZB9TdJcHd1dsElICSzEH6OY/hUuonkPHheulE36YMjVO2NvfWRfb5meXllA3xHJJ3syOs3CJouq+ii6S2G+bejoKmuTyW97pOtZLzkK9fIb9HajxzHl3gZTbNsZb3auEodAYe2eMQFxglK9NPIi5w14nWcBIYnb0DuHyVTLPWwNztzVnsaX+VMmTTiw+y5plmKP8+5GDwmA2shw2sn7UXc323j/PG/lcAJvews7iXfndiCOCaSQQEkiAYXCl3d9HNOedpUxfcCMGeN9jr++6PJd7cM5RQlK9W03IJXXnjV91Z0ERNt2LJ12iYl7B5X+ZqYxATi8Ubv9rr3UCfjzyOFaLONMv+04kBfJjdgGYlRXqpXURrPAkImrdG/xs5wtcxKe1+0HQEncsU2EuguYDWOTp3O4Fmb3YA0Oz1E4030HX8xlLaSYBwdgiSd77vgYJvGE3PcorNaHjtJUCVM8p5ZzDSLBrnKlG1C7AYWUy7BzXTQtayCpVjMn6zwd4R0JxkwKoFpGdTAelLaJrPie5KguV9xKey1PQq+TqmYCbTscH27DSA+fND1TxMw6MNjfYEFK1xJGCKxsziGHmNo0RvXwNUbvL9MwRACbpdPhXy/hskohPC4tfPIWm48fz38NR+ju/rABvpjmwLjTPBSn7TBETM20TOgkb33lIPfvlVImtbCGqbz4YhInCLa8knxzb3b+Nenij32OH1qz7iua0tM8y3ZlIKV1Og5W7I5dyR1WEe5uVn1MIk8EfAvOmJh0VslGzZe5Ia5hI7yAAa5nsw/fwG8nWB0/Je+lMDL7d5Be2C262sLsGk8xQwuUHFhluJVUcO1+amldLnZ1Hicp15WfTadyQuAy1kiAT0XxX1yLjvDktAAoQBiPvPDKEk4GzsJ6/zD3fHCHJbqNbiLGHzVTESm1NlFFxx1pKdBjBncNVpRg7QfGGS6Pwd054NUMr0cx0V/Tm5O6aVyF0oPV5ZLQUhAZievo5g77e81/uQF2j334OGGfUwyxqJ2nuOvLJql3fG/oCP/Sa5ZjOYM6vFLAs6jO+IEKrvsooW/TzlbU4s3EcDGUl9aSOi1tqc0epHAmqc8r8aSXuE1Dn9i2NY+GRaGyYdRF9jvgPnX7f77dU6vXfVwoepFo33KYFBldHmbC/ZCVr29G/uhzxGOPCzGzXV7e7PVu5X6qp4SuTWhaeT2QW0zG+5LGNj9HsnA1nUIL1MKJKvG9F1DHaKX2CO/ZDUEvMwj6BhmoAbrXElsLRqUd3z2ZXh/w0fzARzcykFz9SbRKprzhzpMYjm4dOdv58IHNhas+6mvWxgpW4P9Sbemn0f97d+2My0qGlNOwJI/R6N89nDiR9cZEV33h1WRcnSeuaR3hmf5+A2lj3g6z+e2VMNvuTfy8qeeJ33LWVVeKIxyfUhZAXyyF4h4MfSNbOo5WqXCq+spoapSTZFlOHHPIWGKQH723u6yMPsSHRPZfUlnlNbEpDIwJJfsxAAaJ4VRJyaXvWkYSr1/H30ba5SSkyTtGXOJJ5vb6lG0WYUro5WfxIwRsNLkpbjvJ4kA88gPpiEcm8Uy59ap/tk1ZRazN68UeOU3GaaOpwPJtU8V2Bc68j2ULFFzfNgT2fNHVhLAc1ZBkOz7G18l5cJNb6DDX0Zk4CAmUKRS5yXapgm2R4wBJs8TKnx1DAPYA4Ik2yJA1GDj6oCxzg8nc/QvmbS4SoHlxrs7rZ1yW3R91xYnszGZx/g29xL1Ywj23b/uFFtSkAtToIBSd4/O9SfDZE3+SXa5lNAU5+jykzRdP7JpsdzbAYH6a67QKzLIuD5KdSlFrJuMcS3hlopoGlJLzllpVK6B2COYEfvAS3L9GHmMs83CPkPP9rfm30I+foxTLIDTJhojS0BfZlTAOYIVUzUNjlfNUQTMN285vBtDs9cJCF+L4fIsw3x7o38kmqbFQBJggGtbUfR8NT0LCJt4QyZ2pbXNc6iUkHUOIVENVtZgrRI3gAnRvRzogGfoZrUABpxJ4GatcLEloC+6IljEu05ytTcH5/DAwxRNIBZtoaZv2MHD+4n+OcgoHkaDfNwXyUNTv7v8bVxJSB5wQTmyeGZ69nc4ugPgQj1LhEPkh7255af4Db5ipzNG2gas/X+2vF+6xJw/AUl/Zy6qX5HjvpZwKoFMJ3DIsj/hTf7kMzGgOgUwP0IjfP2xFx2Ga3zEWkx8wQM1UorTNPMaen0majuG/xjbibF3RI9XpkCsC950wRr9NghzLHHMc8ewAkeLSSgBJZWpPd6lFJNzNEUSNTC6rnl7+drzi8/56T/nJy5zxJo5uum1qIX63k8duLdHF+p7GDZIziIVDsmwwLB4jfZr2VoE66Kngu5xmlgkGZa6xffxZ13EdwQTGU0MtPBttPzsTjQ5OWmycc0/0bQfIrwJzgt+NqlqLdKd0PztGSY81FOU+9wmpKL0WCgaCGBXAIraJozi48xTd0EPBpH0/zL+0vfwIU1yLqba5I5pBVb5yeHXADxFdM8wUEDWXYGN9o74wThMBdm0PxMS9E6WIZ3MdGosjUPE5z0JypetQGWh3Gh9YLqbRTL2CkrZT49CkMNlTsBc4QXt2LJMKA5BWjqYN6JJmAaBJRMEOtch9ryo4UEcgmsULB5dmkYv+a9bHGZ8Hs2CTWxXBvLP1evX12a7I+sUUAT0oM1ookl3IvWOBKQ4F2X1QnKIZ5BsTBg0tgTC1qXsXWrRRqA1ElazCixL+eGiYXBrTeGAqa/U9/nTrfCUEN1fo4VqEN5EXXbE4onBP7fkaaoBc7k/IYJIy+ZsyOdiYfWlASqqSZEdMNOIq3c6tpc0rJqqpMldkbAlGfXwChlE63xJCBHrRkFpn24V+5E01SbcETlC2vlOCAqcO50K0wagpSRWKaaWD+tGQEInDtxarcvitrl3wpy9+DT7MDxXVREGI+JtosksAbDxjIgsUSaSQLNrLFBcxXT7NLKHJegufOb1C6aSnXTVVNRjqhpkru+Y6l460qlODJMMOkoVktz/ne6FQaavpiadK7Sq2HulJb5opCTya2G+vNi/+Lv5UoAwxNWiGqCP9+V+/AafJqa5iL+3SU0zaqJtgY7GV0qVAKaSLvwJRpVq3KxE1AlXghQ5vQLnCpfmol3uhUKmjv9cvH8kMBmJKAJyOLMXmqdjd6Ug5qmKThxiGjM2SDxQScxH5K8q+2sairlvzKb/k26QcIFhewETbRMXWw73QoFTU2hHcQvyzjhASFtRzvwzp5Y8svIwCmcyvPUcquFAdjpCRDPVwJV30kVMHdggtbYILg5Vg8RK8mnVGPdi+6UIIEcsHJ3mlhV9sqo7tnw0/JwA0jVMmsAM4vL/vCFZazvwqHsqcWiSqZ9lC34fH7ZH32qVWb/JdJhakPVz/sXX0MCIYGQQK1IoGp9qWp5O7Vn14osXuxHYZqmJ5UK9vABQpa1jbehdapqq/I5CGUPhHZ583/MOXpItZVRypTVQiTWiwMSfy9fAtbYaW5qwSLSynemLhe2LMp/uS08sSoPOEmRies4WuNJQM3O7AeVDNM8nAZlz4QqTvjsarUTMx9qYToWRm7gy/WRKGsy6l54XaWuWyR0WMFrpi17W0rpLghdhosrI7Mw6VeyeVXfaA0vgSbAoa2lg8tSSV2ARQUz0CIHu6WGlI11NNuocNLaTE3NUtLZG1LMNf3S0taNQWU3yX65wj7ZzM7tf2W2XNvVvWcErz7WlhpAzcJAU83OsGWvQz3t2TGuZU4tU1Q80Tat+Ms6xfqcPE90En+mibJvQRFl7s8+6mmah9S6Q7lIZU7CeNZPS6C5STLoDtwJgGZLNxaJbrhw8OtRLitvNbBW864U/rWl2TXRRVJ7JWmbhT8wHlAzEhCoVCWm2aflDB8BOI0DSUpH2b1MIJElQvk+cKSbqxb26VIUPquE/+Jwf/bWUCUJQNV/p3Q8n2s01jMmxPeQyF+HcUIgjdbIEtDsozkSbbO5By2rL33PNNmxebqTo9HS1J5qaqp5q3VGaxwJOOfdn8fQMO/A/fqYfVI3lq6t5F4rURTGwkh1apWTg2DIHsqE1QKLWykr4jCk6M3URrPI6S0okUY5zbSu7UylE6OvtMo+m17MvofXsItBGUTbHGJAojWmBJrQNNkSOE1rou0FMPrJUZxJgFmuQao25J80zdYe0g26aqND0YvSJKD/sgqaSwk0n2CNswlgZbc2gZrnDsI5exAM2cM+XQvlwUoBTU20B7PO7P19PSSprmbXRmZSQWo1vHYEU2ZdTcfexF0B/AalZzrwtbZgezANxYHZCwNGtMaUgJrVUOVkdqj3Q0xTy5ioHq+7EepXHh4i+T+1DjTsnvZBqknsh24yDpH1O+ovf7P77IlXh6ez7ynJJZubAOqeWRZ7mubhBSbkIs99i4or71Pn8z1wYwDgrPtAoI3DYkkXC4pao60JgajqP5xZymaxl1uUu71EB7P2aCfBNEFJ+jab+Eu7kb1sHabIBGhuHLnG+r6tpRNC/yPZvu53somF+ym32LlS7y0HTrXs/o5jWF/2oHUHaNb7uP/U+1m78ov749nNsTnWwHIqQq3GV1bzAGdZsGnMgXvgvf0FFsq3qErVj+JVC0FAyqEUTdNTipvPILbpE5weZgkIegyPoAWhLR82B4DpaC5DKHnwURM7hVPBaNprVCpP9Rww0+W128Jc6/RorGYwUF/nQRbryezRFPWRGqS5UbFPEZ04yLu/RXmogykwqkFev+Ff08DMJ1Pz8LsuUr+SqiIApmW51DLdk8uATM3CzkG8dpRt7CBVsT37cH9PdmqwK9uL60xmonzv3ukBKwU085fsR8VOOZukoSzCyNOHIC48n8lukDPZAaqWAZp5XwRpwdxo3gsjK9kTGPQXZNCHRu3d/b3h48wF1UBf20ix6O88hD9zmnk61DBvrqbphtXVtpfKFh8gg2OAZqVh3r/RX9RScDeez2bfPpzILo3OZNeIOxFIzTiwIHUZjemXLTIR3ZN/NtSVAkfPomGe5qpQIFtlplZaqaBpuDDvnxy6mmpdqGqd+hNNopVbMIEZ0in6VOH9HYY1OuGkmUDjNEjJOm7NgLpMRtbeNNRZZ3S0+peAAUHmJ1bQuPo7j3LCfYc5+ZzowdFE5eUsYNrUXfOddJtU2vpZmyfQNPcBmmGerbuBfuGFpBI1F9OgyEv4MVVgnsxUo2WdD1UfYrETPtcwpVw9hEa5l2AffZjv7evO9hNf0tVGmkmN7b+lgmY+Zl2U5jrJacJBsVD1FFreg+n5bAKtz6Agg4PKap6kKg4K4Hl/iiLE2NJbAE0137dwQuuPNbYyWiNIwIOURAfdBB6czo72/Tp7Ov0dpqpJXn4pHejqUQrObpdApa0vG6wcZ87vZQ0EaNbjWG98p1n23lujs9nlZwT+cF0bn4Wofy3Th+kWXEY+okQ3S2iYXWhTZ8GEDwDMDw/0Zicxy5pe4rystbYjoKkwOlqr4T+CZipSPdwEaEIQDXgl2iYEqbyK1jg1CavdLvM8/atquxdbpzFPUGOR05bBQWqcRgDX2omn1ibTbu9Pda5ROZ4o2r1db2VLQ5y6V0ehXLzKfFiqRpkyJ2wlnuuqD9zmP5nu61GzVrMYYJ73JbOs/sxONE7TTqLVpwSsGGLmwl18l0bJfvd4KrszSSogbjIBU4Wh6H031zDbwIL+zpbsxEBn8mF+fqgvO9LfWdPusR0BzXwq6t88zelCMJKBZYJBGyHMeRRTqYBZlj3d/niq6qQf0i48QuMcg9C9RVMtHdEZfSr1Uyt/tHqXgAFBg11HCT7ozIZnvsoetLZmC5AD6U5wYjo3d3vzVXwfNeu+jpOYZX9Gus1bHGZ7OES28fN6eMvdPkrF9F/AlNTlPIB5AbPsdTRMlYUOLGwqEGU0554+zH7cYO9i0fsY7VKz7LGBCmlPtb3P7ihodqKSH+qz0GlLNipYErF1DXPBJBpnKgPj6HkkphV98tEB3c6EUeMcA7wfkNS7h8ClzvVJNAjxvK1Nv6xIGq1uJdACC45+vW5yFoe6jhHufiDTQDu7NJOsIA7/bp0B68spjZ3fy4TU33kCU/SvMM2eJodZt0lomfU4uZcIdJRT9gkFK67gvzwPI9otNEwJDMxkEDSLbjlNn3EiXTzvAPSqguYnB3uzo2iY+3tqP09+R0EzHyCrobyN47enA3/SnTH8nKvZOKchq3XbPP2UtUnlGqfPfAqF1J9wls9wCrOpcR7u60yVW9IP4o86lUDVt+lBal/3J+QX/y/Zw8lvsnvjX2CunS5vMhYkXY+hAqbg397Sku3rOUmU4q85KBzgZ7V9yi9IJA1x2+eA4xV8l5cBzAt8vQmRgVWfOtnsyspc0OWlD1M+8vcAy59xfUC2wnE0TONHdkOrCdDUb3isvwITS2f2GNPoAzgPXdhzFopGj3fzKqvlGqce13G036frNFLd2N7thQPrZRBTmf0q6/3jOWpfjjRlsbgGO89mqwPtBEhwQp++SqT1Av+GM2FdZStxam7L0OSAKfK3Ugqt0kZ6VeVYdrj/fX6CWTZAc1vkXEs3MTvAffSp1KFol5pkZUN7Zq48+1h7wRpmvlace26iArRRsmqXssRpkt0NGmY+pjUBmmmLQpBE/Gdvc/KwncPePvuAyFpMtcUbDXJx/Pirg9vBwyUv/hYfwKKjzs90Ykse3EeAULT6lkAXJlrb9OKHMKQ8zJ7PXCGI4g4pUmNOBfeAXdf0J3W29iXmI/MyBytnOQA6l3dqpe06Ee6qDj+ZXEiKiGkll6AwfYgFzRQ/sxTKOvi7d8r0cwJLnZcpJW+Tdih1qel9u6nVBmgyeJpDPdu/DwuEwNmByVaO2rwI6vrBvlTZylFrSITBSbfRgMcBcIdXc4a+zQDNUodjRx7W07EXt8FeDkqWtFtBO+siaGIS18FYmgu7ETU9+7W3DGLZ+TWm5/+RA+A7bJ6RYrIjE6yEh2q5++LuWMrDvMCeOr20nPyXlkQsoznfBMxJ0lmsVvIPxwezdwHN04BmL3Eju63VXI89+WAJzY5jrv3dqaHsKvZ3c4ms67ZTzTDsbtByFj/rRQpYy1frJDBVRn5EU1Ki1bcEZAg62PsegWJzmGhnmaPt+IMec6gbB3Cq/sFaloDapQdPK7gMwvhzoOcT3uejRBkoqUG0+pKAJlkDfp5yfYdJ9jJ7qMQFmkrdz1RSim4+Sx+mB8vjaJcH0Co/P9SbWH72sm+2ldGJAl6yBkFTC2gToNlJRNdQ1oPqPoGmt5OgaepLFwNsTulFT2qApaZbzRtqnAGaBczMGrulkbQdrbgOmAvLKxbmhZsTM9fs4niyagqctdwETA76zNdB/EkfEkPw36VqLjIARbRsLY/c1vqmD/MhGua5R5PJ1XUFejyDftQtJZApY7qKlwb9qAgdh0/2t2iYkq+fIX2v17z3AM2tDe6LvyVgOqDm6rSgyp8ZIhiHzSk5sgnKkWC9erIvY9irvXPQnWxJu2TnGTE1BvDUVGvotABq5G+Ya6vyqsc/ZcjxGug8TJrUhwDQPIc7NwRyOKHam18e/cHHyXSomfYXDbOX1K4D2b6u90ke/4wo8PeZr4ejZmbNjNT2dMSAtVGsco/RMC8RIWvQzwO+FzAlYBcw3c+KbDlxgXujUbIvUuNJFCMB+25tNadp5oJUg3NwTfMQlLrROP9IyZrnaJ2twKrAWXZr45nW3lxkAl7BTDtMX0xGWWUynqCfAZplj0j5z5Ni7mi/JNK9XANEn+7NHk9+TaDQKKBqZGD5fXrVE3MNU8A83v/32ZG+z4lW/JxoxXcx1Xa+6lfj33ahBMzDvMGB/s8PIF/n62UuiQtyDbMMqPKgJnGBeZimlRglK9f4W1xmSuxWs2w+HWoWNJN2xw5k8dFmQpJn4KV9xgnKItbjkA9oKvXA5CSopgjkr1Tc11zjTJR79GcJv8F1zB5ulGaUDkCA0MkJytqhtcTKX5xEGu/O1tz0WlszHYp6sGiaHuBW4aadX35G8vgwQUOrKWVK6YihBR/sfxgEAfLFVmkbws2xB5D8CLD/BSbZD0gxOUHaVOOUPntRJvX490SNhxVODfMKkf5qmEbJWhPTOViahsmzEjUee6DEBeZhmlZilGy9KBU1C5r5xPZk0gdwnhgwanEVjbM5+wo7/ej8LOwlBmA4JcptArXOdHfG2+MSzcOZy88slOrk8Gqxuna0upWAdHN7uk8R5d1DGbEB5uhBwvr/yPVv2fLyAsBZBUsBtcwZ6jzcCJ4Szx/u/WUK+jnS/ymH0COJW7ZuB6ZBX2wSwLwKWF4BLC88r+ZhmnnQyj5V1hx0zuvDlEtWlh8viQvMw9xtaSWvmkY1D5qaab0IuuJr1dcpN+0I2qaTwquZgSpd42Qn1HZvsdbn9KWChikt4M8IpbYE2iCWL4npQ+N81fTbvf9mCTEvo2q9+qjDqcVheXWKUncj2dySNQln8H1OJ61UMMtbDqJbPe9tBMX8vt5Ti0trUzdzroIZzCoR3QT8/IqKEf9ITubb2RDFtTsB+2j1IwHLe1mt5A5lDc8/JeiHSNn7aJsSFxiomIJ+tjrRNikm90HnoYE9ViuRfF0uWc2yMv3sJuKCzbxyzYNm/hI6jgep5m0E4KcMhieoK4RRX+USNFMR6/zDJX11o1LjdMLcJ4F4mvQDI2vlDjo9VGGjInF3l1BDlSSyunuMtHMViAKaKKl1Zs8/wVV7nDD/G5Ag3MWNcIvrMhaSyaR5CnbuX1WAezMN1FO98y4HUO/bRq5lb8dxCNhPZHu7T7NZAZSVM6ybM5hj96Q0mbobgAZ/IethmpJXZfqZoVrJfKIfdT8sywqX+zCth2l5rw/JtZd8XS7Z3UKN9zrTaPeAJtqbplqvD/avphONAHUN8+gqEWMG5DSxg1Q3JP8svlVP9lWNU9Lj6wBnO6etXuzG+jYFzHbyVZIv1F0tWt1JQNDsICiovaUnkbwf7f85VoZz2YO2c/iXKvi9R5KPcxliBHPn4JMCOJ2tmPRFvS206q85nzieQaMl9V0rV2erOZhnActPOOF/Rj7c3+HC6EQDqDAHw12wBVHX7K+YTeB8GmbfsR6muZhWK0nk6wBmGcQFOT2em657nFGy1sO0vNduo8Z7nYHeNaCZv5QsPTqYNXtK6m7dy1sA50NMEot8b3mvsrcHt69Ug46vJhT/K1G+krwv0J9TmCeGOIGZlxStviXgzHPzsJBzK2A11H00OzLwYTY5/xjqvWeUvntKoBCm22XNtyNooOR4bqG1an4FqDtbh/Dx70v+1L6O/clErA+zr+No+pkmWgOVysnK28KLxK9sWQLuMzeNjsWPKeWo9TBTeS8O7WYblNEkLjAo8ggxHG+hYapdWkDaepi1Xt7rTeSz63Zy/YV7MXv2drRlc9jymwEm/Zr3iBSb5/RVFtvFRqGrcXYwTwXOZ5z8bqFxaofrR9Psor/6OgM0N0qs/r6vRnBXSd77K0cyr+XV9yB6/w3E/4/JNb7KgepSNjZ3O11LkCOsrG0RNJs60Wz3EHh2Agq8s/j73yfQ52cpMKnSNpA03/qTcLzRRglYsUTiAqNkr4zBmEZchaW9yijvlfdDwDR3XR7uXx3uT/EcJ0m9U0mo57brQDMfDLCIkkbt2TtrvdlzCkZPkTspi/802uciA2lQRlknrrxPftXxLuX8+Nxi9h0nwAVr2AHseqBM6u1u37Ui9/WivYYECAPDIqJfZwj/drXA8/6eM/icRpinT0g4H+bAJ7/yNCbcZa6VdGk9cb60YFJtZiOsarCa+rtSuktn6yDRiNT7JEfUvNG+jkNweO4HLC0gXd8b1muIvy4/+oCAH9NKLrC3mIf5CPBcKlFZMOhnCQ3TPfYY1HiHe9uzj4iQPQPTz36UGYMf673t2h1cQJT814GyhNgy16XmGWjuVtLfy6xCvnGSWMja5N0RJrP+hmEc9fa1D63zEBpCgOZGadX39/oa2xjz1o4Oxt1cybeBQvzvAOQiQLm0MptMtuNzj9j4jLZd4GdsgiuUHuO/9pY25lIb88cUJk38AGXHEIFH/eQCD6af6dMUnH1Ws2WCdDBFq1sJ3Bmby77C/SNpwfdc7n1a17RyldE8zmnRmyYi8xhRsv9wdCAV2LDIhntbSd0o41Vf+oxdC5p5EI6jdATw/PhgH2w9zUyi1ewxplq/LjKwZWuc9svpK0uQp7JRWIPOY0JZ4+fv7zMhPkMzaE1a50tHJf6hLiRQNdmuexQBtdzXbgBFKxrhCpphM4DY3tKLqXaR+bLE/FjGrAtVBqf5FgpEW/OyGQ4sfZOVtr6UF9qGr7Lqr8zvWBfiipd4iQQsDDEM2fqw9TDRMAXMpGGymcDkqCeIq1jQdC9jS0u0ofLISuTyMRpmKu/V08FBzrlabB9eIp7Sf7xrQXOjpGTPt8SM/k4LR7spPWSCzVACR3OpwFl2c/6YJzUNc9A5ottGyC2V+7FCH40s01QbrXEl0NxM0bk1D0+wSFFlZA0WIZFSTZTpm76vHsCcvEbIOo+r4KlWSUy2H4rWABIwZkMN8/vHU+wlU8mHmfLTeXf5XcuYCU5JiQsquAvOsH99TsDPewd6SK3rSlkCu5V8fSvTpy52bs0CXqeHVpNP09ygiiXFsP+rcc4R5iV7kLmdZbU8R2oJbdf6dfch+L7QPpWt4a+yT5psTUmxr/lny+pbPGdnJVAFQ7REpiPn80SSsLM9iqfXogQkLjAP8z7VSs6TUvLnx5PZA6xokxzE1TBLo8bjWVLj7e1uzY7ixzRP3rQSlRU1zkYjcKkL0Mwn/B7yhD453Je0TlNTzGW6g9N8dHExI/geTTT/ZHlf1XIr9MVc0pskIWuu9XTYxSR00lXaOgM0yxuOeFJIYNdIQKYfiQvOAZYXSC25Rh6mVUz0YXr+L0MF0CQr+Xo3+9U7EK7/nP1VAoPjgxUsJPrSd404t62jdQWaucap5rbAKU2NboFBn1hEs2PgDZHOQyWK9gHkI2RfwEh8VlX/prmlBynA6iQ0j9NUFDXONswejXZiy2UUX0MCIYG/SEAfpm6dB2iY17CYff90Ors7NZ+NcOA24KdMajw1TPcq6xtLvv4RbD/S4g3WeVrJX0bjr7+rK9DMX2+gsy17Hye11UY8DUl4IPmBlcvVQPU1lt0Ea59tu87pUW7IMQBUB7oE7+Y6VYLkPckn/ggJNLIErOJ0CXPsZQDTPMyraJj6MDuJhygrPkO6Un2Y+3tg+dnfTYmvnpSHeaS/kvbVRh6fugRNNbeudllT0OYoJZZo9pgAankGW2hy2BHKPZ9OPyRAsDCsUbQWaTUyTXpAo8/UNsPH2chLMt69USWghik4yvZzCbBUw7wF089TDthqmGUQF7g/sT0m8vV2rF9HiJT9EAVEDdMUv3onLtjM3KtL0Mxf3HI0RneZcGuSuL4AJ+AjImulWTcwqHydsxqQZEqdScp/uDeBY58Ug9QRClkDpGrH0UICIYHGkoBpJUbJWuJLH6Ym2VlIWwTMsohacmq8o5hgz+C3/Hi9gLQmWZWRaOzf9SyEFFG7pxUuRAirQaVOQPJ7as09xTewAk4Z5G98v3hVlo/T57TxQBIOsieA9x0o9xZx7ndjppVkudlkeGwwVV/oTkB6Pc+IeLeQQO1JQOJ1gxb1Yf75wUQyyV7GhTO2UPVhFq1hql3a/JPtKe09x/Bh/gbigo8AzcNEzPbj8opWlUBdg2Y+yGBRIhHW9NlG7skaE0Mf5+OZJUiOV5JjfScEoX/CU6Tm2i8eTmSzmGY+OrCSnSQPSr9sV1Du5UMYX0MCdSsBzbEPAcxvycOUGu8haSUCqbEXZblqcg3zBHvPW5Q1tFqJ1HjGWpRRMWU3De5OYEXp8tG0YW23Q9jnLdWV/Jn87PHccjaHuil48ePSm8YOn/2MRfKEawZTTCc/MB2lA82zgQPUSh+LeGBIYKck8BTQlHzd8l6XR2eyCWIvUsAiB+qyWk6+bsWSfzwxmJ2CeP1IXyVF95fYjbJe942e0xCgqUlUk6cvewDb/Hs4tvVqytB/h7JiU0xS01PKJkD4wSRMP0xJkav2HM5/yZAlRbYZAaxvNlpIICRQPxLQHKuGabUSA34uEin7iIPzvNR4vGa62LeKbIkaLz2gCfL1DsgL2int1ZMAcx/fV9gQIw3ur0egIUBz42vvAzS1z7cLRqiX0kJ9R6TaGHlRO0mAoBlmFPaPP81PJPOMxazVOPdBSB+guXEE4/uQwO6XgOZX62GqYWqSvYSGOWOpQ14t5WGW8Iqey62Q0sJe8w45mH93pD87hWn2xEA1eDIA86cHoeFA09QOr0OYIZZXevAjrmGiRcvkZ3MAp4VcNdWWSbmnxumZUm5aT5pqnBeJnvPn75IfVQE8TZ+x3z9opz89nvHTkEBIoIYlMI8LZoxARMsYmlZiHqbk6wKm2mfiki1DwwQxq9R4beRitlNAujsBZ8oXR6EIwHz5JGo40MxFIWei2pxJvAKWxaKvSHO3sJBo73aCck/fgWkxCywsTTYj+FwNbDuAqaRPQnpZg+xstJBASGBXSsAUkpsjs9lFqpVYyMEC0mp7aphlka+bNSBxQQ8H8XcI9vkYk6wuq6NkGaT0vNhjXjm3GhY0NXl6eboTiNTmCFVLvsRFJraXIOZkLku7S2kmPE+N08CgafowAFj2EkV7kpypkwOAO32uTuyY2a+c2fGPIYEakoAa5iSVjm6Thyn5+ndPJrO7k1Djwf7jQblM8nWtVkNdLdkpImXNw/z8UG92sKczka/XkMhqtisNC5r5iPRSmunkIH4EJlLOs3iNk+B1fAxlTOS8Hxu/CtSJcB5T7VUCBKYx3fwComTNxiYZ7yWstjlUzo0ii+9DAjUtAQFT0oLzT6vk6zcm5rJ52MrMwXQpl3EE5iyeyNeHOlpg+OnNPgUsz0LCfpgo2Yib2Pz0aXjQrFLuqXVSognVUoFINiBPrVqolykqZWqcarb2w0LWj4iwe4LPQ014gMlulG3Skvl3/Q5l5XFtfkrFJ0MCIYFcAlYlMU5C9q8rEKucQ8u8g4b5lDXdAVoWTVxgP3JqPAN+euC3Pgwd3gfQ4n12sC8zMFI/ZrTNS6DhQTMXlSbPQ0ymZCIFjAagszvPyfAqfk5BU9L3shM/PH2qXfr1Bv2YJDXms0NL/KwayGSFlKDcy0cwvoYEak8CppRcYx+5TMCPPsxbkBjMQahiPnbZ1HjH2N8+wxxrtRKvRI2Huyfa60kgQHNdXppn97S2J35FidMFzTHMojeY5CucFrFspBObHy/Lx5lrnJ4U1Thv0xcX2kkmv6XEDAwy6pfultandXHFl5BASOAVEsip8YyEv4B2+T2geZ1qJTn5umToRbacGs9nNKUDfxN+y47sl4f7s3dh+9nb3UZwYVDjbWUMAjRfkJqAOUgxazXOzw4upX+1cvp9fBCaWgStnTibqXGKjlLu/eHeWAog0IlvgFA1OGgnevWC8OKvIYGQQJJATo13GS3zInmYDwjss4JJmdR4RsmaHXAc4oLjBP1okvWrwYWmr0XbmgQCNF+Qm5qbhAJetkMA6L8/GEfTs+LA2nrFgRd+qeC/5hqnwPkIf8jd8bnsObleXTB2uAAEcmn3ooUEQgK1IQG5ZL+8N57yMM8DmlPkgOu/LJPHNdXEJC7i5EBn9s+nBlPQj2klFrKItnUJhPReIbv+Smt2fK2STRIuLpm6YCXV1fTCCkAlb6zqX7lNU6za8Aglzr6CTWSBlfE+J0jDxyuU7ukM8Cx3QOJpIYF1CWiSfULVIoN+cvJ1iQsM6DOtxD2j6KZZVvJ1t6bj8G0fRcv8hICf47D8DFbak1un6D7U+/0DNF8xwlYa6eFU5gSsMOP/DChZ+3IU0oFqjbtX/HJB/1SN4s0SaH75cDnx5hqFpw/W5OgAzYIEH7cNCfwNCRhpb3mvb6lY9J3EBVLjme/N75VJjSf5uu6l42iYvz02kL0Nq9jxpGEG08/fGMJN/XOA5ivEpKnW4DKjzJyEmjtM+egBPHXwT5B7VbbGqanWA6ssIvMUBb3HIlXjnCHn66MDvdmZ9aLbEr1HCwmEBIqXwCJWKAtIG/vw7ePJ7FvYfu6jbQqYiTyFw6z7R5FN8nX3pzY2pJPUv7TE1+eH+lLQj0Uqutmz3M+ivbkEAjQ3IUMDbQ7CVWvrxI9ozuSfHk5mw/gVO4AwgbPslmuclhH6hug8zUDSAg7i45QiMECz7BGJ5zWqBAzwuQPTjwWkJV+XGs+fuUa1/pSxPXCGTtR4nS0tKZ3kHyjvdQzt0pKIFVw2wSW7fbMzQHMTsqxqnAYIQbnHSjBZeRy/piW8pqDBmsVk68Io+jS5sas/aJxE9HqiXeDrZdiDugH4U2ibgqa+zyBA2Ci1+D4ksH0SUMMcZ/0bKSvbj+TrFpA2n9r9oAxGMX2YRsmaZz6Ei+Ywh3tzMN8jrUS+at1LAZjbN+beKUDzNeQpEO1r7sDkIc1dc3aQXKcvOF0aVm5QEBhVevM06+I0l1S2kSdUT/gtp8x9sHxokjFSbif6Vbog4oEhgZIlME1E7CXWXLVaCQQGEJAYDCSzmFtBGduBgClX9X72ImnxrIcpNZ61MT3sx9rf/kkRoPkaMs01zgPdRs5iqiUHZIQamBPzRNei7c2wiPLFoiZYRvM5ei85cCa6vTFOuRaQPYZfw1Pn4V7qcmJSThUUSupTGe8dzwgJ7JQE5mH00bpk0I/WHSsS3SUlbWxhKeVhpqCfgteaGiZLPqWwDHa2ZKfJ134f7VJOWQEz0kqKmx0BmluQrexBhm97lvzlkVVyJduy74mW+zNBANbhzKnvtnDrN/6VJaIBruFXkT/357B/aJo5kApZA5w74Xx94zeKG4QEaksCYxyUb6FVXgMwNcnempxLh2Yj6sty0eQa5qHe9ipYEgT49t6uxCUb8QzFzpcAzS3INy9knZh4MIGo0ZkbdYM8zhVAaxXA8hS4sZWhd/oMo3vvcgL20jTTD8m7LQEngO7PylrY6cHxR0igTiSgD9MAH6Nkz3FAVsO8uoEar0zyda1e3e3NKT/7l0f6ycXspdxXe9aLHzNasRIICb+BfAWfHpzvB7jHx5z0DPu+TlmxG+RnzZICkjf9jmU0QXPjsyRj+K93RrMJgpY+ZVEdAtwF+tA4yxiNeEa9ScC0EqNkrYd5gTgGTbKCaDVn29VXfPNwbh7mkf6O7ENITd7b152dHqpk/UTMawGLVrwEAjTfQMaaPq00IhAZqXq4pz37z00j2QOo7qbXQdOlpNZZ9JLy/i8+4874fHaLy3D0A/g5+uirWjLdjRYSCAm8pgSGCbL7/vFUcsNcQ8McIeWsk/VUhoaZd3WFbxZdz+w1ppWYlx0+zFw65XwN0NwGOevz149gXTop7ZzYV/B13EHTm1pPR9mGx7z2LQRRz56PAfE/QvI+xiKX5P0wQUJG+GniiRYSCAm8WgIPKNbwlLSS85hjzcO01q6xAwb8lBEmYNCPe4rkBacI+DHIT3Os69hDu9WOopUngQDNbZC14GR6hxrnpywk2Tj6+LvV2mcAzZ1q9svrHtqmfJhPySFL5Af4PbpIRQmNc6dGJp67myRwF5PsN6SWXSTw5zKulwmi5OWS1SxbRtNSJQOYGuY7pJP8p9NDibhA0FTT9dAerTwJBGhug6xzogERSh+nZtu3mdxTpH8MjbRlD9H0NOWU3fK1ZHDQCs4Qk7C/fjSR/K1n9nQlcA+Ns+xRieftBglUqfEWM4tIX0DDFDAt1jBPkF8T4CVQFZ1WJlh66as8ChXeflws+jFl+hnSh4maaypZtHIlEKC5zfK29I/+zbcAJdl5Bpncf7y3uiOg+eKrCdz/cX881eT03/ZR9iw0zhelFH8PCWSJYeseGuaFJ5PZOdLJLo/NJCawNTQ+D5plGUQFTcv+vQvLz6+Ikj2ND1MuWRmAIgp+Z2ZqgOY2y10tswWVcy/+zS7LdHEQnCcoyAmueVSidxeCwTkeEj0nFn1izV9R+j8Zg3x2f4dV29cA9+6kcQr0XmX1Je9TfA0J1JIE5iEp0fevS+PcU8jXSS25z7qV41kNU8AsuiSgUfjG3luxSO3S6Fij8y3I0E9OuIfx0DB3btYEaBYke4NsOBCmkjwusl7yJdXyBE0d+oaNU3QsESEU1IWX3lZuzHOcoJ8S0PA/0BcBvgJrUEuzcB8tJNC4EpDZ6yZpY99SOSgnX19kwerD1CRbhobJkkw+zH7W5LuklPzd0X4KSVejZN1X7Ee0nZNAgGZBsq9qbi0kHDclQFKrHOUEOwbB83MYRcYIErJ5omwCQF0HZWl5apwP8W9qrj1KMIFmWk0+R/jeRWlEYFl9UQbRQgI7LQF9mHLJ3kfDvEIO5vfPquW9nrNGDPgpgxpPDVPAbGUN9lVaAMpKMsu+v683VS4KarydniXV5zetWlY8WmESsJ6e1wS8lNa+vI2f5D/uj2XfcJK1MokApulWoCrbR+EzBcqDAOavjg5kvzs1lHI5LX8WYeyFTYm4cQ1K4BmHyAuQFlx+Pp2IC66QWiJxgWs0rU36XPRB0ghZLVBGxf4a/+UHBP28hQ/z1GBXyq/Wjxlt5yUQmmbBY5B8nJxUB5vxceKLEKAm1TYx06pxPl33cXpyMR/LVvTiTA/hD6sjyBpkPqkpM+aAHe7ryPZkmmurlHtl9SXvU3wNCZQpgUSNBzCaknWRgB81zDtEuz+bW0waZlHEBT+lqRglWwGhj8DcZR6m5OuDWIHMxYxWOxKI0ShpLDTPavrUt/kRC8LUFPkr//RwIuVyesrUVOuplv9La/pXTUm5iQb8X26NpJB2+ye4e7KVgD5aSKBeJWCMgVGyV9Aw9WHeBzz1a5ZBjZcOyhsEewywNOr+3b096QBrMfnQLjcIqEa+DdAsaSA0vZpXZfTdRwf7svc4Rfr9fdhGnrBw5YeVZURwLVPj1I8in+VNqs0/hEvTDUO6Pau990OC0IzGKWyGxlnSRInHlCIB617qNnmIy+QbDq7fw+B1CeKCUaxAAmYZGqag6UHZ+Af3AtNJ/vHEUPYO6SVBjVfKNNjSQwI0tyS2N/slo2mbcE+cxlfxz2f2psCDq5xyPfUaqadfoyyNUzAHF1MWtT4cfa7/Csm7EbYfEuKeBwdZ7ixaSKBeJCDRh4D5HVyyF1l7D0grSdR4rIeiYws2aph6KU8T8KPvUorLY7KJcVjVKhWtNiUQoLkD46I26cI8Rf7VED4L866m0TSl3FtcXc6WAc4mPuTnim6Cs/ztapsCtqDphuL3cul64tUvW67RuOi3jvs3ugTkkj1HMN63Bv9AXGAepmklRskW3XINU1jMQfOfTg4l8nX3A/MzS+hG0a9Zt/cP0Cx5aDeaOTWBtlSaMMf0pF7o9Ne3YlCCoKWf08VTVDL1xr40E+yuNrmC2Wp6SR/nbPaHu6MpRUaN83h/ZwL6ok/hJQ9HPK6BJKBJ9snkQvbg/2/vTJ+rOLIsXmjfV4RA7LsxtG3cbYej7e6ZaPfEREzM3ztf50PPREzY0YMNGsALGAxmESAJbU87fX75lD2y3GBAL0v53jsZLj9JSFVZJ6vy5L1577lYmCLLrx+TVrIcxEdKk8aTF0mvdRAneEfCIqcVfPe+tmvQq0Y9jD3M6iK1iQamzm7VpLmHA8bL0bWvtTihF2d/b3WFuSRrc15W56z2VlZEnOx3YA2mbqx4sW51yeAeJo9zUfub5JaO6mWm0DYR7ybN1CPh86dCgD1MCPN/7s5IeH2puKk9TJ5xnv2Qh5nqwjvOSxwBAXbsXf751GhQ/TmgUl+2MHcAlem3Js09HJhAQCJEUlFYYRIIwF4iX99EIFqrYFalpIZgccKd263DWnad83J+gpCYRNjffKaUGNJRWJFj7VLEmhwy+h32XPXpZgRyR2BNKSWkeD2WhOR1BfxM6t2ivBeECZEiSZdqMYgrNhx6r2hdereP9Oo90rv07lhfsDB7lO4FYdrCDBBl/z+TZgZDFAhRBHRsqEsumrbwSbeIZEWlZH51M1icZQTj0Bf2diBrJhsmmr8oMIigiU+PDQdlEkTpW/TymzIzeHjchV9FAO3nm+RgyiVLWsmkjrg4hKhSPsdQJRGy4dBLtV+R6R9NDBafHB38u0uWmB/eO7f6QMCkmcE4RSuvTzUuObApL40vy8LcDCpCd5WWAonh1kktuRf7EgS9dE0szp+0D0RkIXsuBCpgcR7qQ3IvrfWbwdC4C3WMAOLreG4IbLsh63JSVuZPipJdWPv/oJ/kFuYWfgT7DUls/Rx5mAd6i3fkmiVX23mY9feAmTQzHDPyJH+n1ShC6l/eny2WZG3Oaa+TgwVpGRZnuI6Wv3iVkBJDg/Oa3LQoqHwsyb1hTQAIvKcKUspwWNylOkMAwvxOOrJsdUzK0vxei08WgeRghu2FhPcTLUzeI7Y70He+rICfy4cGwjbMgKoMtZcRrJDwHpv11CbNDEceSbuzWomO6kWDMKcWliU8sBrIi/1NXD2pLc64At/UjgxRvBTUJh2FT0QPyN8cV/ACEl+Sqg0t1X5rhkPkLmWMANsKuGSxMCFMlLduzS4FyUoCfroS5UBClLHh/uU95Vr9ep+Pq3A0UbIfTgyEd4Z9TLf6RMCkmfG4dcul865Em3HhXNV+TJcsvakladaqQgo6+6G2X+L+Vy1bWZy6DmkwzyrrxV81CT1XHz5WyaIPDg3K7dQWghj4XTcjsNcIEPTDHmZwyeoTwlyQl6ZLll1cDKbqI+8JB1HoyFMeHOwsPtF7ckFBP2cV6IcXqSMRaae6J5/35wiYNH+OR1bfQZbHpRo0KoEBVq6LsjpZvU4rJWVDryau02oxobRRtXiRgtye9lhXVjaLb7V6JzCI1fIRraA79QsQPCpHNFucVRz8/3IRiNJ4BK8R9MMeJi5ZiiJAmB1yy6ZokGRsfM07SoARAXVEyX6kiiXsYeKStYUZkarfT5NmxmOH5caeIeHop0Z6FUHboujV+UBgWJwLiqpdFZGR85Xa2UNfWKXrv6AeRLj+dyrW2902HSaEd8f7ihEFCoXfyRhTd61xEYjCBaSVECVL0A97mLhky7IwI4FSMQhpvIuyMNnKoBZmG6tPt7pHwKSZ8RBisfGe9Sjg5rxePg50KecUlIOVubQu5SDp3yFKkPp9pC8EIGHxssdZ0UEppQeyOGfUn3GtqHE9Icag/9yMQOkIROEC8jBJKyFKlqCfVHuY228wWpjxZ+el9vNvZ8dCIemo9BP/zZ/1jYBJs87GLxSMVr7kgKy6XkUGko6CZi0RrsHixBRM3HByIfK+Jiv3ua59WwFC/3VnJgjOs8ImJYWVferVfeLb9OnrAIEgjaeAH7RkkcZD6QfhAhZ3uEdTLyYjRLx1WLSn9PxTNPpDRckSKIc71luYEaXG+DRp1tk4HhQhDSrdg6hVGXuyNDeKHzdXijm5S8uwOIGLiQhCJHdzZWO9uK1AC9xgz1fWguLJmPZgbXHW2YNVp92N5b0QX0e5aq+k8SBNSoqhJ/snSeMdlUuWggfEJdjzUqcP10u6bdJ8CTC5/rhT+5scJyTwTGg9uV5YnD9I7o4IwWWRKISWqnh0DPJhkiA4qBqgtFHcV7V7+kJAUEXh/qdUwcUWZ65PUf33i3xhSunF8l5UK0F8PUrjEYhTlqcD9+/hgc5QpYTyXlibA1rYopxlabz6f9Z23oFJcycidfJ9dRXbGkiqTWGr+xSyd0uu2ueKsO0Qo5URdBAtTshzXvtHd7W/SR7ptDRr21tGCyzO8Dv8z80I1BABtiN+1LYABaSph0l5L3Iz2TpAS7bMJ65bicqklPxR5b0Ob3mCSCuxhVnDAc/oVCbNjAbjTbrSJYuOA5KqKAWFyCCFBxXLmkxwm2KF8tIyiUTr8E3O/zq/y3mZnMhHw02G8ME9fU2fWHn3d7YG4jzY3/U6p/PvGIFfRQALc1aBZ5TPo4zeNUXKUkCaepiU9yorUpaOYkmyMKRsHiklSOQRJVt1yZZJ278Km3+hhgiYNGsI5l6cCmGBd+USGtHLywq7TTTGJHJnrhICIZhEUr++EDN7mOSMEpREdRbk/2aVFvORJPdMmnvxZDTmNSlgMClXLJHbpJVcV3kvFokE/ei/5M86qBIpy0Ek+ydHhySP118cVb4y2rKpBeC5vtveImDS3Fv8d331aHGylzgjt+iGJpBWuUNnFJSDahAWYBB615VSWpzkiWJxElG7sPoilBSrKDiJvZ0j2n8lHYXgJcgVEk/Vl10D6hNkiQDi61T9uTe7LKUfWZhT7GGuFNOqO9shtgyLQ1izhNYjdyzP8ilFyV6UYheqXRRa4F10a3wETJoNMsa4ik7KPUSIe5cOCPOBLM4HCpYgLD+sxBPfK1NWCEDSF/PaX9qQMgsBGhTTviTxg0vj/UG3lgCNcqa3xDfs05eGALnAtySmcVNBb5M67ijwDBIlYrWsgJ94s4f6Oov3ZF1SD/O0iBMCtTReRKfxP02aDTLGHQptPyaLblwvdLDmRJpXtd8zr2hacWeIck1tcYbJS2zIdZjQiGRckRuNCEcsUNxXkrAOq3Lxemi2OBvkAUx0G+xhhqAfWZhXlFaChfmdIsWnKquBMBEvKKtRQLpbB0o/vz86HKxMiiug2OXWPAiYNBtsrNlTIZfzsvQuW/WCywBVHmVFCd+rIbqwLJF35P/Y91lVQNKMgjTQq8WF9hut0M/tr0ruef+nwR6+BLdDWglRsl8/ngt7mLhkq+W9EC4o119xRLmXuGPfk8eEr9kSYYHq1lwImDQbbLx5iQ/pheZgEd4i6mKl/kTVSdZebBStL9KrpGA9Rsm9VVm8i+siTQVtPJd1QPYJ1jDlxVrUF/tpG+wBrPHtULFk8tFccUWVdW7OLIW6ruRFlmlhxls6oijZPxwfDuklMUo2/ps/mwcBk2YDjzXk9J7kvFAK6mlvC8E5D+WrJcIVKy+VAMJ2SEOKpq61LDfblAKVJqcWiQKqirwf6C/G1Ec3I7ATgfvKOb4rC3Py8ULxtVz89/TcUpqOPcyy034vjPXKJdtbXJKVObFlYfL+uDUnAibNBh73sd5OVR5BYKBapgjX7LTqYOIu7cR3WoJ7ix0n5heCgZa2LM55RfZWRNxYwybNBn4Ad3FraMn+730JF8itj3ABeZgEs+HiL7tBmH+WNN4h5R6P6n0iD7P8XpR9177eyxAwab4MmQb4OathDhKwzyr5mjp/BOcQzABxIkbARASZpmg/C/JRcBBtURYn9Q1vydX2lVxu7E+xBwvBuzU3AqRHPVKO7xNFXV+VhQlhEgGOlwLhAtZ4P3umEsHF29CltBL2LSnrhYUJYQ6qHmaHzNyyo3UT3aZP+5YImDTfErh6+rMRCUcTFt+nA8uvVwEMVxS2/0Du0j4F/rWXsG7GpcbLoLkIAAAUW0lEQVRkQ2DQU02Cm9MV9WRaknurShAfNmnW0wOVqK+kRn3/dKm4Imk8qpVcVT5mULbS9coQ6Yi3xXYG7wuVSv755EhxQAu60Z52Bf1YGi9i1MyfJs0mGP12BU5wjIk8z6gKAxbnilbuiBEsytrEVRpITT9PtZLnvKzgsSa4LuLy95RrhyUcCvTqc78s4v2aoDB8+d1UfdGp3TJCgCIDCHNMycKkgDT1MCnvVdHPsTBRukpl3ZEeFZwgeuDYxuhTCgnbBmeV8/yO8jCPSemHKFnen1R9yGgo3JXXQMCk+RogNcqv9Ei15IRyzFAuadWquU9u2msKsvhmeTG4aQmySN1wsRGABHE+VUTv+mYlEOmCyPuDiYFiSHVCiQAuO50g9X37/C9HYEkLqNuyLG/oWeR5/Fal5rZL4+EdSdW0hgvPIks68WJ4/pDFQx6PKj0s6FjYpX8zUt2hz1trBEyatUY04/MRwNDZ1hH2MFEMgiQRIZhWYM6aXKYkku8TmTFBpLLy4mod0lySahDutw255fjslUusGrzUHmqGlh0lmfHQNWTXeN7Qkr0v8QvyeK9KPeqOomafSf0HdyzPZ6rnkJJ24stwAC6VSsbl5TgjCxNZPNR+qu9LSspuyGFt+JsyaTb8EP/yBrE0yTnrVRWSTTEkou/fSKKMihEvRKZlCCAwFcXE8OeyNO7OrRTdUnypaBL97eEhiSAMhBX+L3vvnzQKArPSjb0uorwhwpzUs0cBaYJ+yMNMvWBSMHewMFnE4Xol6OePysG8pDQoqpbgkrW3o1GetNreh0mztnjWxdnQyezQ/iaBQWvrL4peyYBprgpFfHGVyfCrTii6m1Qrfc6L+Bh7SkyU65vSFlVE7aJIc1hh/bjGBiW7RxQjARhujYNAkMbTmD9SWgl7mNcUKXtbVXlQreoUW6YSLsC6pEULk719guJYNCK+flmBP1iYyOJZSzZA5f/9AwRMmv8AlGb5EavsUQXfULC6gptUk8r3Iq5b0vlcEnnhHkv9gOAKjiv6We1rrsjS/erxfOjLOQUtndYx1G3SbKRn8omCfO5IuOCbLfH1u0ozieLr8VlIdb/bLUyI8eRwd5DFQ8BgQnVfccmyh+lmBF6GQOo58WXX9c8zQIDJoRqxqn1OEeegIgfbNWk8UoDOgvY6WYmnFnnH4kRyj+vMycp9IvGFln1zxVPy89SHQQUGRY1PT2YZPDS76AIpJURP39Me5l8lXIBLltQSytixQKNST4q23cLkmYY48WBgZVI8+k+nRkK1kh59j6vWzQi8CgGT5qvQaaJ/G1DiNlVS3pfbDPfVdVkBpIQ8175TJ/s+JSy+g6yf5ixk/pBNG9BeV5smsbkDa8Vxuc9G5VJ2q18EHmnfmqAfdGQpIP2TxhgipR5mDBBLdXcQJYSpSwVrkpQSXLEfKFKWVCwszNR9SHVvPm+5CJg0y8U726tRJJoyR1hzQwoQwvp7oijGh9pnoqg1Rb1SNjiZa+Kew8qdEXEqmzPkkWIpUFbMpJlyBNKf+6H2MBEuuCL3O+LrcyhS6XlLLY3HIpCtB4gTRR/2Tc8q9epzSeOd0EKxX8+99zDTj3+jXMGk2Sgjucv7CAnkSjYZljtU81ggrjVNMuNSQnkQLM71ENGYSuQ9BhxBni26bqsoc35lIxQb7tEkS/+mReIntAeFAIJbfSCAJUnADzVVrzycL75CfF3fI5/IWIcD8y9Bw+Uvb3DwnPD8EJWLhXlRFiZFpA8r2AwxAwLN4vOXoBs+ZYMhYNJssAHd7e3EkkcXNNkwyYxoUvlPWX5PpNiCRYA1mLrJEAgWJyXNHi/iVFsKOaQIIDDJmTRTj0Dtzs8eJoT5xY+zwSVLWgn6x+wcppbG0yMcLEyeICJy2cPEJfvv58eKYXkuWCBiYZbwSNcOUJ9pzxEwae75EOTVAdyzrS2tqo7SLnmx7rBSf6p9TX6O1NmsrD19mdRCiHtLUXKPChd3NPHShwMqJYbVgKvW7tq8np3tvUGsglqYFJG+EaJkF4oH+hrCZFyDZyOhhSkjs6BcK7nApJAcH+rS0R1Ik5xMyJIjPmvb++6vjcCrEDBpvgqdJv63Hll07a2E4Fer00+IrL7UftSXmviYiMqyOJnUmIAfSdiddBQCg56LuD+YGDRpZvx8knv7LWQp8YL/U9DPVR2oUGFhsvhJad1BmGv6H1sJeEvGe9uLT48NFx8fGQxBP0TJ0oOUfch4aNy1XSJg0twlgI365+zzKKAwTCyntI9IwAYi67PU49SBmguSewgUpNoPilbAuibbVR1c+7by+wgMQkeX2oYDSkwniAnLxW3vESBNaE7jRNDPDYQLdNxXlOy88n5jPcw4rrXuLXuYuGSrUbKqVKJn5IhKep1R0M8FpZacVgQ2UbIWy6g18s11PpNmc433G98twgdDIieIEfLqkeX5hVIGHj+skmaXyAriTNngQ/VA/rYXxZQszjX1o7NVFrB+dl5J6ee0T5U6AjPl/TXSuSFMRAtuqqzX1wr6+U7i6wT9sKfIXnXKpY0ei7CHybPKIm+8r6P4rTwSpJWcEGGS75uKsBtpDH0vr0bApPlqfJr+X1mV93e2aF8IsfeWkPqxpNnpkVykczrWZVmkFkBgooM4SRuYl7Vb0SRMagqVMFo0E++X63hQFifJ8bY49+aRpbwXEox3ZisqID1XfC237G3tQz/WIoc8zJTCBViXND45SCE5qGfiooTXL6tyzvvj/ZbGAyC3miBg0qwJjI1/Eoirt72t0PxT/E4anUxMVySwPjk1HybL1FYECGOl4OKjkUO6+mKpGJU1cUBSgAR5jGmiRFnGrXwECBKjvNc1keWkLM07SlOiHibjkdq6ixYmC6YOLfIQ6fiD9jDfkRfihOphEggUiwOUj4yv2GgImDQbbUQT3Q/BGwQHBYtTFt0JVYKgnNg9lXIKJcUSXXf7aaPFuS6Lc0YRtU9l2Uxoj3NCpIkwA7U4SV6npdpn3d4ff12VPyTA55lI86bcsV+JNHHJIr7epbGAxFK07dJ4WJcQJ0E/pJWcEml+dmyoOKW9zHbcwnp23YxArRAwadYKySY5D4Yeup0t+9okdN2naMgXxbcqK3ZTkndI7jF5pW4xx4+UgpnKanFdk/WwRBgmlEpQ7ZsjI1OPQTw/e5ikltzQHuZXega+0yKKOqmo7pQhvk7QD/uXPdo6uCg3CLUwCfpBU7kqWhB76k8jUBsETJq1wbFpzoIFh7uLA7HrMZEVUYqPFCE5pwjJfWJNGYJJG33o2DIenktc/tuNpVANhb3OkAO4ZW0m7YRPHhCglNtPIsrvZfFfl3v2rqJm+2TxdetI2XjEojQehInoBWT5L5LGm1DELGkldsmmHIHmPbdJs3nHftd3TjQitS9PS5rss9XhYHHelqbo44XVsP+Y0inGuZk4F7Vvtqw8zhlN3hUFJREcxHxtj9yuh/e1TvBcluYPjLnKe61rLNhzTok9blk0ZBl7LMx+PYPn9fxRRo7AHzSKqyo/KZ++14LGv9SgCJg0G3Rgy7gtrE0mqNP7esJeEpVSyMd7KNLEzkg5bYVzawJdlEBuRdYte5xYmmvSOu18kfrqZaBbH9dAdB3SfKTAnw3hjwcgpY0ZLUzQ4fmjuMAFpRz904mRUA9zqLttizTrAz/3sv4QMGnW35hl02MCLNBWgSxDCojIC6uvX2IDP0xXlOC+HPrKPifWR6AyNkV32eIZ4gSKUhAKNFiaBCVtpi7Jssv+1/ufY+2BfbUG6rrKuK0WT0k/0jjgEmWsa91+Jr6uZ4igtDMS3cC6fE97mUTM4qK1NF6tkff5diJg0tyJiL9/YwRwk/WJKEn7YDKbUPWI/9h8Uvwk0oQwia4M0mmaTBPMp6G/7G+tirBxz8bIyje+Ef/BayMQdYEXFPQzJcKcVSQziyLkFVOMsYY37GHSQQpFD+p5u3igP5T3IuiHfXUIO8W1XxsU/2JTIGDSbIphTnuTIT9O0xUCAzEl5a6S3OdJC1EqwpSChGjROmFiq1VKCOdCkejvDlnPmkIjfWMxhGVJJZolWffIHJKTWeuI2SiNR6Q05ybA57CipJF2vCAr86Q+Ed0g1ahWz1R69HyFekbApFnPo5dZ38mjZALbrwokfzg+HCzPL+7PFn+5Mx3cp8tEcKjV0hohULZdB4ozXZpQgypQDVzAmUGbVXfi4gerHouzOqppugg540XAimRBdkRejM9PjUgabyBUvIFEU4snpLkzn7VeETBp1uvIZdjvqvgA1sC+4qRctaMSG1iStUmQyGPl8pHwHtyn6vtupPfinhqTNa5hJtQ+5Y4ygXZoYtW3bokRqBLlC1l3LIJqr/oTx5jzY2HijkX5iTSn38gtSz4m427x9cQD7dP/AgGT5i8g8Q92iwCkRUBGn/aZziuykf3MKxJ5X9fxDPk79h11kd1YnFggJLZDlqjAjCrVYED7qVgj1p/d7Qi++u9Zk2DhQ1go/qDEg2uWn9eq4ZTAwsRz0K0o2VMSXH9PwuuQ5iFZm1yb58zNCJSNgEmzbMSb4HrsLbVrVoUsKct0WMnmNNRjimIpRFpG4nwbixPCRUqPT8qCHZX+7EFZIQQjUf/TLT0CeBW0PglKPINarCxq8UI1E/Y54bK32V+MAVyMa2xEYjO2RMl+cmSoOKOcTPKDsTLdjMBeIGDS3AvUm+SaTGtMblgKTHY06l9eezxfTMlVS/AIFgVWy5tQXZU0ZWlq4h7RhHpB7jqsD6xbt3IQiKTJouWIhPJXlO4zpaCvlY2NMJ5vS2nRwmQsu2VNnlagz2UVCCBS9qDGmD3zWgcblYOYr9IoCJg0G2UkM7yPaHHKMJDF2RuiHukm0bQkxa8qTYFAkn0iVojzdVsgTf0y7tnR3s7iXWngHpI1G8XaX/c8/r23Q4BxrS50lKMrF/xhkSbKQNM68ADgqH1bQxCX7LoGuFvXIO8S0fXPFFR2Wp+4ZPFeuBmBvUTApLmX6DfRtaPFeU57Ukx7JyTuTc3Fn6RViiBCRUdIG9FkybzI7zA584nbLlogTKjk6Z0c7AzBRpdFmCS2I5/mCbX8B2pE2sMXtde4ojGaknj+cy2G3pTXtgsXYGH26gS4Yz+UhfmO9sSJxmZs9Ti4GYE9R8CkuedD0BwdgDSZ+AjowJU6JgtxVmLrWCi4aVH1CfmWmhj5Pf0Xvmee1D+FoBB+b1lf9yqC6Khy9T5VgWECQw4PqGaiJltPquU/S5RjO6sxeKYKN9efLITgrrfpBRYm4xzF1xnXfz07Jm3jdrn37ZJ9G0z9N2kQMGmmwdVn3YFAtBqxJCBFgoM+PjJYYKk8lLuWAxm8Ci5bSFJ/v0+fkCYBJ1iXnQo26ZNFOSrL45Im1fP7+0KuHm5ZR8zuALykbxlP9qmPqr7qB7IM2etkLJ8trW6NY9VdyzjubBresBjib4h67pMf/6yE108Eebz+QJg9GnP+nefHzQjkgMC+TTTO3IxASQjE/DvyNZdEkkyuP6ik1C0daNU+lLt2UdJsiK/L+Aitr6OlGJHFcVBRsufGqjqjlCQbUxAQZEqupifVkgZwx2WCYo/G6anG8YHycUkt+u8fZ4pJ1Thd1tSypqPqNfgl6eFqx61LWslET1txTHujn5/ZX/xee5jI4g3ict/6M4/vDuD97Z4hYEtzz6BvzgtHi7NTLtYof8ZeJi44SPHo4KoszqrweyRNrI0BVbNgb+u43LsH9HsIGfRqYnXbWwSwAnEH9G9pDlfWeoP6E+k/08rJnVuRiL72q1dUNiw2/oYI2FaRZZvGnQjcYxrT4/I+UOLrkMgTbwSEabKMqPkzFwRsaeYyEk3aj3WCgGRV4pqlUgm5fuxvEVUbGxMoLlgsEoiySyTKHqnVYCJCe/+5rpJseA+IisbqnFLlk7sqGYb1iaDFE6UYxYZLl7EkB3Osv6MYF0ke0R41Qv+43gnq2uJik2YEzZ/ZIGDSzGYo3BEjUP8I4K5F4IBF0D2J9iOhCGmSlxtbhxY8na2tYS90XKRJlRICw0ZEmG5GIHcETJq5j5D7ZwTqCAH2rHESQJwLKki+pMCuZblmK9qnji24Zre8B6j7dMtzgNg+RaXdjEDuCJg0cx8h988IGAEjYASyQcC6Y9kMhTtiBIyAETACuSNg0sx9hNw/I2AEjIARyAYBk2Y2Q+GOGAEjYASMQO4ImDRzHyH3zwgYASNgBLJBwKSZzVC4I0bACBgBI5A7AibN3EfI/TMCRsAIGIFsEDBpZjMU7ogRMAJGwAjkjoBJM/cRcv+MgBEwAkYgGwRMmtkMhTtiBIyAETACuSNg0sx9hNw/I2AEjIARyAYBk2Y2Q+GOGAEjYASMQO4ImDRzHyH3zwgYASNgBLJBwKSZzVC4I0bACBgBI5A7AibN3EfI/TMCRsAIGIFsEDBpZjMU7ogRMAJGwAjkjoBJM/cRcv+MgBEwAkYgGwRMmtkMhTtiBIyAETACuSNg0sx9hNw/I2AEjIARyAYBk2Y2Q+GOGAEjYASMQO4ImDRzHyH3zwgYASNgBLJBwKSZzVC4I0bACBgBI5A7AibN3EfI/TMCRsAIGIFsEDBpZjMU7ogRMAJGwAjkjoBJM/cRcv+MgBEwAkYgGwRMmtkMhTtiBIyAETACuSNg0sx9hNw/I2AEjIARyAYBk2Y2Q+GOGAEjYASMQO4ImDRzHyH3zwgYASNgBLJBwKSZzVC4I0bACBgBI5A7AibN3EfI/TMCRsAIGIFsEDBpZjMU7ogRMAJGwAjkjoBJM/cRcv+MgBEwAkYgGwRMmtkMhTtiBIyAETACuSNg0sx9hNw/I2AEjIARyAYBk2Y2Q+GOGAEjYASMQO4ImDRzHyH3zwgYASNgBLJBwKSZzVC4I0bACBgBI5A7AibN3EfI/TMCRsAIGIFsEDBpZjMU7ogRMAJGwAjkjoBJM/cRcv+MgBEwAkYgGwT+Bi3ewlnpy0RzAAAAAElFTkSuQmCC;" vertex="1" parent="86">
                    <mxGeometry width="36.78" height="30" as="geometry"/>
                </mxCell>
            </root>
        </mxGraphModel>
    </diagram>
</mxfile>
